<?xml version="1.0" encoding="utf-8"?>
<!-- Generator: Adobe Illustrator 16.0.0, SVG Export Plug-In . SVG Version: 6.00 Build 0)  -->
<!DOCTYPE svg PUBLIC "-//W3C//DTD SVG 1.1//EN" "http://www.w3.org/Graphics/SVG/1.1/DTD/svg11.dtd">
<svg version="1.1" xmlns="http://www.w3.org/2000/svg" xmlns:xlink="http://www.w3.org/1999/xlink" x="0px" y="0px" width="64px"
	 height="64px" viewBox="0 0 64 64" enable-background="new 0 0 64 64" xml:space="preserve">
<g id="eye">
	<path fill="#1D1D1B" d="M10.883,25.499c0.514,0,1.028-0.196,1.421-0.589L30.109,7.104v54.782c0,1.109,0.898,2.011,2.011,2.011
		c1.111,0,2.011-0.901,2.011-2.011V7.104L51.938,24.91c0.393,0.393,0.907,0.589,1.422,0.589c0.514,0,1.028-0.196,1.421-0.589
		c0.786-0.786,0.786-2.058,0-2.844L33.541,0.828c-0.785-0.785-2.058-0.785-2.843,0L9.461,22.066c-0.786,0.786-0.786,2.058,0,2.844
		C9.854,25.302,10.368,25.499,10.883,25.499z"/>
</g>
<g id="comment">
</g>
<g id="map-marker">
</g>
<g id="earth">
</g>
<g id="heart">
</g>
<g id="twitter">
</g>
<g id="bucket">
</g>
<g id="paperclip">
</g>
<g id="undo">
</g>
<g id="redo">
</g>
<g id="chevron-left">
</g>
<g id="chevron-right">
</g>
<g id="cross">
</g>
<g id="search">
</g>
<g id="hamburger">
</g>
</svg>
