<?xml version="1.0" encoding="utf-8"?>
<!-- Generator: Adobe Illustrator 16.0.0, SVG Export Plug-In . SVG Version: 6.00 Build 0)  -->
<!DOCTYPE svg PUBLIC "-//W3C//DTD SVG 1.1//EN" "http://www.w3.org/Graphics/SVG/1.1/DTD/svg11.dtd">
<svg version="1.1" xmlns="http://www.w3.org/2000/svg" xmlns:xlink="http://www.w3.org/1999/xlink" x="0px" y="0px" width="64px"
	 height="64px" viewBox="0 0 64 64" enable-background="new 0 0 64 64" xml:space="preserve">
<g id="eye">
	<path fill="#1D1D1B" d="M30.711,63.306c0.393,0.393,0.907,0.589,1.422,0.589c0.514,0,1.028-0.196,1.422-0.589l21.237-21.239
		c0.785-0.786,0.785-2.059,0-2.844c-0.786-0.785-2.059-0.785-2.844,0L34.144,57.029V2.248c0-1.11-0.899-2.011-2.011-2.011
		s-2.011,0.9-2.011,2.011v54.781L12.314,39.223c-0.785-0.785-2.058-0.785-2.843,0c-0.786,0.785-0.786,2.058,0,2.844L30.711,63.306z"
		/>
</g>
<g id="comment">
</g>
<g id="map-marker">
</g>
<g id="earth">
</g>
<g id="heart">
</g>
<g id="twitter">
</g>
<g id="bucket">
</g>
<g id="paperclip">
</g>
<g id="undo">
</g>
<g id="redo">
</g>
<g id="chevron-left">
</g>
<g id="chevron-right">
</g>
<g id="cross">
</g>
<g id="search">
</g>
<g id="hamburger">
</g>
</svg>
