<?xml version="1.0" encoding="utf-8"?>
<!-- Generator: Adobe Illustrator 16.0.0, SVG Export Plug-In . SVG Version: 6.00 Build 0)  -->
<!DOCTYPE svg PUBLIC "-//W3C//DTD SVG 1.1//EN" "http://www.w3.org/Graphics/SVG/1.1/DTD/svg11.dtd">
<svg version="1.1" xmlns="http://www.w3.org/2000/svg" xmlns:xlink="http://www.w3.org/1999/xlink" x="0px" y="0px" width="64px"
	 height="64px" viewBox="0 0 64 64" enable-background="new 0 0 64 64" xml:space="preserve">
<g id="eye">
	<path fill="#1D1D1B" d="M5.554,9.605c0,0.097,0.031,0.185,0.037,0.281c0.006,0.032-0.006,0.061-0.002,0.092l0.043,0.216
		c0.031,0.263,0.068,0.523,0.145,0.774l9.064,47.83c0.106,0.564,0.45,1.055,0.942,1.349c0.37,0.22,6.328,3.687,15.402,3.687
		c4.62,0,10.05-0.899,15.957-3.583c0.595-0.27,1.02-0.812,1.142-1.453l9.064-47.83c0.076-0.251,0.111-0.511,0.146-0.774l0.039-0.216
		c0.008-0.031-0.004-0.061,0-0.092c0.006-0.096,0.035-0.184,0.035-0.281c0-0.117-0.035-0.222-0.043-0.337
		c-0.006-0.04-0.006-0.081-0.016-0.121C56.89,2.881,43.789,0.012,31.563,0.012c-12.228,0-25.328,2.869-25.951,9.136
		c-0.008,0.04-0.008,0.081-0.014,0.121C5.589,9.383,5.554,9.488,5.554,9.605z M44.541,57.013
		c-13.017,5.509-23.131,1.469-25.939,0.093l-7.854-41.452c5.068,2.404,13.116,3.543,20.815,3.543s15.747-1.139,20.814-3.543
		L44.541,57.013z M31.563,4.023c14.3,0,21.76,3.795,21.976,5.502l-0.082,0.441c-0.927,1.811-8.344,5.22-21.894,5.22
		S10.595,11.777,9.67,9.966L9.586,9.525C9.802,7.818,17.262,4.023,31.563,4.023z"/>
</g>
<g id="comment">
</g>
<g id="map-marker">
</g>
<g id="earth">
</g>
<g id="heart">
</g>
<g id="twitter">
</g>
<g id="bucket">
</g>
<g id="paperclip">
</g>
<g id="undo">
</g>
<g id="redo">
</g>
<g id="chevron-left">
</g>
<g id="chevron-right">
</g>
<g id="cross">
</g>
<g id="search">
</g>
<g id="hamburger">
</g>
</svg>
