<?xml version="1.0" encoding="utf-8"?>
<!-- Generator: Adobe Illustrator 16.0.0, SVG Export Plug-In . SVG Version: 6.00 Build 0)  -->
<!DOCTYPE svg PUBLIC "-//W3C//DTD SVG 1.1//EN" "http://www.w3.org/Graphics/SVG/1.1/DTD/svg11.dtd">
<svg version="1.1" xmlns="http://www.w3.org/2000/svg" xmlns:xlink="http://www.w3.org/1999/xlink" x="0px" y="0px" width="64px"
	 height="64px" viewBox="0 0 64 64" enable-background="new 0 0 64 64" xml:space="preserve">
<g id="eye">
	<path fill="#1D1D1B" d="M63.065,6.307c-0.581-0.364-1.311-0.408-1.93-0.113c-16.617,7.899-38.423,8.514-44.714,8.514
		c-0.838,0-1.301-0.012-1.316-0.014c-0.557-0.018-1.063,0.188-1.45,0.563c-0.349,0.338-0.536,0.797-0.573,1.277h-7.08
		C2.691,16.535,0,19.214,0,22.508v8.601c0,3.293,2.691,5.973,6.002,5.973h7.07c0.025,0.497,0.223,0.974,0.583,1.323
		c0.272,0.263,0.617,0.399,0.982,0.479c0.045,5.991,1.261,12.229,3.797,19.442c0.28,0.799,1.037,1.333,1.887,1.333h10.338
		c0.679,0,1.312-0.343,1.681-0.911c0.367-0.568,0.422-1.283,0.141-1.9c-1.399-3.083-4.573-11.646-4.103-17.328
		c9.452,0.84,22.153,2.908,32.758,7.949c0.273,0.131,0.569,0.195,0.863,0.195c0.372,0,0.743-0.104,1.066-0.308
		C63.646,46.992,64,46.357,64,45.673V7.991C64,7.306,63.646,6.67,63.065,6.307z M4.001,31.109v-8.601
		c0-1.099,0.896-1.991,2.001-1.991h7.048V33.1H6.002C4.897,33.1,4.001,32.208,4.001,31.109z M27.681,55.678h-5.928
		c-2.057-6.173-3.062-11.557-3.117-16.697c1.555,0.031,3.494,0.1,5.749,0.238C23.943,44.821,26.215,51.84,27.681,55.678z
		 M59.999,42.602c-16.372-6.828-36.13-7.585-42.948-7.625V18.688c6.818-0.041,26.576-0.797,42.948-7.625V42.602z"/>
</g>
<g id="comment">
</g>
<g id="map-marker">
</g>
<g id="earth">
</g>
<g id="heart">
</g>
<g id="twitter">
</g>
<g id="bucket">
</g>
<g id="paperclip">
</g>
<g id="undo">
</g>
<g id="redo">
</g>
<g id="chevron-left">
</g>
<g id="chevron-right">
</g>
<g id="cross">
</g>
<g id="search">
</g>
<g id="hamburger">
</g>
</svg>
