<?xml version="1.0" encoding="utf-8"?>
<!-- Generator: Adobe Illustrator 16.0.0, SVG Export Plug-In . SVG Version: 6.00 Build 0)  -->
<!DOCTYPE svg PUBLIC "-//W3C//DTD SVG 1.1//EN" "http://www.w3.org/Graphics/SVG/1.1/DTD/svg11.dtd">
<svg version="1.1" xmlns="http://www.w3.org/2000/svg" xmlns:xlink="http://www.w3.org/1999/xlink" x="0px" y="0px" width="64px"
	 height="64px" viewBox="0 0 64 64" enable-background="new 0 0 64 64" xml:space="preserve">
<g id="eye">
	<g>
		<path fill="#1D1D1B" d="M64,10.978c0-3.336-2.691-6.049-6-6.049h-6.348V2.017c0-1.115-0.895-2.017-2-2.017
			c-1.105,0-2,0.902-2,2.017v2.912H16.258V2.017c0-1.115-0.895-2.017-2-2.017s-2,0.902-2,2.017v2.912H6c-3.309,0-6,2.713-6,6.049
			v9.209c0,0.11,0.045,0.205,0.063,0.311C0.045,20.604,0,20.699,0,20.809c0,0.003,0.002,0.008,0.002,0.011
			C0.002,20.825,0,20.829,0,20.833v37.119C0,61.287,2.691,64,6,64h52c3.309,0,6-2.713,6-6.049V20.833
			c0-0.004-0.002-0.008-0.002-0.012c0-0.003,0.002-0.008,0.002-0.011c0-0.11-0.045-0.205-0.063-0.312
			C63.955,20.392,64,20.297,64,20.187V10.978z M60,57.951c0,1.112-0.896,2.016-2,2.016H6c-1.104,0-2-0.904-2-2.016V22.825h56V57.951
			z M60,18.792H4v-7.815c0-1.113,0.896-2.017,2-2.017h6.258v2.913c0,1.114,0.895,2.016,2,2.016s2-0.902,2-2.016V8.961h31.395v2.913
			c0,1.114,0.895,2.016,2,2.016c1.106,0,2-0.902,2-2.016V8.961H58c1.104,0,2,0.904,2,2.017V18.792z"/>
		<ellipse fill="#1D1D1B" cx="21.182" cy="33.828" rx="2" ry="2.016"/>
		<ellipse fill="#1D1D1B" cx="30.852" cy="33.828" rx="2" ry="2.016"/>
		<ellipse fill="#1D1D1B" cx="41.662" cy="33.828" rx="2" ry="2.016"/>
		<ellipse fill="#1D1D1B" cx="52.697" cy="33.828" rx="2" ry="2.016"/>
		<ellipse fill="#1D1D1B" cx="11.303" cy="40.806" rx="2" ry="2.016"/>
		<ellipse fill="#1D1D1B" cx="21.182" cy="40.806" rx="2" ry="2.016"/>
		<ellipse fill="#1D1D1B" cx="30.852" cy="40.806" rx="2" ry="2.016"/>
		<ellipse fill="#1D1D1B" cx="41.662" cy="40.806" rx="2" ry="2.016"/>
		<ellipse fill="#1D1D1B" cx="52.697" cy="40.806" rx="2" ry="2.016"/>
		<ellipse fill="#1D1D1B" cx="11.303" cy="47.755" rx="2" ry="2.016"/>
		<ellipse fill="#1D1D1B" cx="21.182" cy="47.755" rx="2" ry="2.016"/>
		<ellipse fill="#1D1D1B" cx="30.852" cy="47.755" rx="2" ry="2.016"/>
		<ellipse fill="#1D1D1B" cx="41.662" cy="47.755" rx="2" ry="2.016"/>
		<ellipse fill="#1D1D1B" cx="52.697" cy="47.755" rx="2" ry="2.016"/>
		<ellipse fill="#1D1D1B" cx="11.303" cy="54.734" rx="2" ry="2.016"/>
		<ellipse fill="#1D1D1B" cx="21.182" cy="54.734" rx="2" ry="2.016"/>
		<ellipse fill="#1D1D1B" cx="30.852" cy="54.734" rx="2" ry="2.016"/>
	</g>
</g>
<g id="comment">
</g>
<g id="map-marker">
</g>
<g id="earth">
</g>
<g id="heart">
</g>
<g id="twitter">
</g>
<g id="bucket">
</g>
<g id="paperclip">
</g>
<g id="undo">
</g>
<g id="redo">
</g>
<g id="chevron-left">
</g>
<g id="chevron-right">
</g>
<g id="cross">
</g>
<g id="search">
</g>
<g id="hamburger">
</g>
</svg>
