<?xml version="1.0" encoding="utf-8"?>
<!-- Generator: Adobe Illustrator 16.0.0, SVG Export Plug-In . SVG Version: 6.00 Build 0)  -->
<!DOCTYPE svg PUBLIC "-//W3C//DTD SVG 1.1//EN" "http://www.w3.org/Graphics/SVG/1.1/DTD/svg11.dtd">
<svg version="1.1" xmlns="http://www.w3.org/2000/svg" xmlns:xlink="http://www.w3.org/1999/xlink" x="0px" y="0px" width="64px"
	 height="64px" viewBox="0 0 64 64" enable-background="new 0 0 64 64" xml:space="preserve">
<g id="eye">
	<path fill="#1D1D1B" d="M16.074,55.049c0.369,0.534,0.975,0.838,1.615,0.838c0.133,0,0.269-0.049,0.404-0.076
		c0.098,0.016,0.193,0.064,0.292,0.064c0.575,0,1.134-0.249,1.526-0.681l43.514-43.521c0.785-0.784,0.785-2.056,0-2.841
		c-0.784-0.784-2.056-0.784-2.84,0l-42.52,42.526L3.725,37.021c-0.784-0.785-2.056-0.785-2.84,0c-0.785,0.784-0.785,2.056,0,2.841
		L16.074,55.049z"/>
</g>
<g id="comment">
</g>
<g id="map-marker">
</g>
<g id="earth">
</g>
<g id="heart">
</g>
<g id="twitter">
</g>
<g id="bucket">
</g>
<g id="paperclip">
</g>
<g id="undo">
</g>
<g id="redo">
</g>
<g id="chevron-left">
</g>
<g id="chevron-right">
</g>
<g id="cross">
</g>
<g id="search">
</g>
<g id="hamburger">
</g>
</svg>
