<?xml version="1.0" encoding="utf-8"?>
<!-- Generator: Adobe Illustrator 16.0.0, SVG Export Plug-In . SVG Version: 6.00 Build 0)  -->
<!DOCTYPE svg PUBLIC "-//W3C//DTD SVG 1.1//EN" "http://www.w3.org/Graphics/SVG/1.1/DTD/svg11.dtd">
<svg version="1.1" xmlns="http://www.w3.org/2000/svg" xmlns:xlink="http://www.w3.org/1999/xlink" x="0px" y="0px" width="64px"
	 height="64px" viewBox="0 0 64 64" enable-background="new 0 0 64 64" xml:space="preserve">
<g id="eye">
	<g>
		<path fill="#1D1D1B" d="M38.719,14.973c-0.781-0.781-2.046-0.781-2.828,0l-15.879,15.88c-0.207,0.204-0.375,0.481-0.477,0.755
			c-0.266,0.73-0.086,1.551,0.465,2.102l15.879,15.879c0.391,0.392,0.902,0.586,1.414,0.586s1.023-0.194,1.415-0.586
			c0.78-0.781,0.78-2.046,0-2.827L24.235,32.285l14.483-14.484C39.5,17.02,39.5,15.754,38.719,14.973z"/>
		<path fill="#1D1D1B" d="M32,0.021c-17.645,0-32,14.354-32,32c0,17.645,14.355,32,32,32s32-14.355,32-32
			C64,14.376,49.645,0.021,32,0.021z M32,60.021c-15.438,0-28-12.561-28-28s12.562-28,28-28c15.439,0,28,12.561,28,28
			S47.439,60.021,32,60.021z"/>
	</g>
</g>
<g id="comment">
</g>
<g id="map-marker">
</g>
<g id="earth">
</g>
<g id="heart">
</g>
<g id="twitter">
</g>
<g id="bucket">
</g>
<g id="paperclip">
</g>
<g id="undo">
</g>
<g id="redo">
</g>
<g id="chevron-left">
</g>
<g id="chevron-right">
</g>
<g id="cross">
</g>
<g id="search">
</g>
<g id="hamburger">
</g>
</svg>
