<?xml version="1.0" encoding="utf-8"?>
<!-- Generator: Adobe Illustrator 16.0.0, SVG Export Plug-In . SVG Version: 6.00 Build 0)  -->
<!DOCTYPE svg PUBLIC "-//W3C//DTD SVG 1.1//EN" "http://www.w3.org/Graphics/SVG/1.1/DTD/svg11.dtd">
<svg version="1.1" xmlns="http://www.w3.org/2000/svg" xmlns:xlink="http://www.w3.org/1999/xlink" x="0px" y="0px" width="64px"
	 height="64px" viewBox="0 0 64 64" enable-background="new 0 0 64 64" xml:space="preserve">
<g id="eye">
	<g>
		<path fill="#1D1D1B" d="M28.154,14.479c-0.781-0.781-2.046-0.781-2.825,0c-0.781,0.78-0.781,2.045,0,2.824l14.46,14.463
			L25.316,46.236c-0.78,0.78-0.78,2.045,0,2.826c0.391,0.389,0.901,0.584,1.413,0.584c0.511,0,1.022-0.195,1.413-0.584
			l15.866-15.865c0.218-0.22,0.394-0.516,0.491-0.811c0.24-0.718,0.053-1.51-0.481-2.045L28.154,14.479z"/>
		<path fill="#1D1D1B" d="M32.029,0.059C14.401,0.059,0.059,14.4,0.059,32.029S14.401,64,32.029,64S64,49.658,64,32.029
			S49.657,0.059,32.029,0.059z M32.029,60.004c-15.425,0-27.975-12.549-27.975-27.975S16.604,4.055,32.029,4.055
			s27.975,12.549,27.975,27.975S47.454,60.004,32.029,60.004z"/>
	</g>
</g>
<g id="comment">
</g>
<g id="map-marker">
</g>
<g id="earth">
</g>
<g id="heart">
</g>
<g id="twitter">
</g>
<g id="bucket">
</g>
<g id="paperclip">
</g>
<g id="undo">
</g>
<g id="redo">
</g>
<g id="chevron-left">
</g>
<g id="chevron-right">
</g>
<g id="cross">
</g>
<g id="search">
</g>
<g id="hamburger">
</g>
</svg>
