<?xml version="1.0" encoding="utf-8"?>
<!-- Generator: Adobe Illustrator 16.0.0, SVG Export Plug-In . SVG Version: 6.00 Build 0)  -->
<!DOCTYPE svg PUBLIC "-//W3C//DTD SVG 1.1//EN" "http://www.w3.org/Graphics/SVG/1.1/DTD/svg11.dtd">
<svg version="1.1" id="Icons" xmlns="http://www.w3.org/2000/svg" xmlns:xlink="http://www.w3.org/1999/xlink" x="0px" y="0px"
	 width="64px" height="64px" viewBox="0 0 64 64" enable-background="new 0 0 64 64" xml:space="preserve">
<g>
	<path fill="#1D1D1B" d="M32,0C14.355,0,0,14.355,0,32s14.355,32,32,32s32-14.355,32-32S49.645,0,32,0z M32,60
		C16.561,60,4,47.439,4,32S16.561,4,32,4s28,12.561,28,28S47.439,60,32,60z"/>
	<path fill="#1D1D1B" d="M43.639,24.572l-11.201,5.037L19.148,16.318c-0.781-0.781-2.047-0.781-2.828,0s-0.781,2.047,0,2.828
		l14.266,14.268c0.029,0.029,0.068,0.039,0.098,0.066c0.143,0.125,0.297,0.227,0.465,0.307c0.061,0.029,0.117,0.061,0.182,0.082
		C31.543,33.947,31.766,34,31.996,34C31.998,34,32,34,32,34l0,0l0,0c0.004,0,0.008-0.002,0.012-0.002
		c0.264-0.002,0.525-0.061,0.773-0.166c0.012-0.006,0.023-0.002,0.035-0.008l12.459-5.604c1.008-0.453,1.457-1.637,1.004-2.645
		C45.828,24.57,44.648,24.121,43.639,24.572z"/>
</g>
</svg>
