<?xml version="1.0" encoding="utf-8"?>
<!-- Generator: Adobe Illustrator 16.0.0, SVG Export Plug-In . SVG Version: 6.00 Build 0)  -->
<!DOCTYPE svg PUBLIC "-//W3C//DTD SVG 1.1//EN" "http://www.w3.org/Graphics/SVG/1.1/DTD/svg11.dtd">
<svg version="1.1" xmlns="http://www.w3.org/2000/svg" xmlns:xlink="http://www.w3.org/1999/xlink" x="0px" y="0px" width="64px"
	 height="64px" viewBox="0 0 64 64" enable-background="new 0 0 64 64" xml:space="preserve">
<g id="eye">
	<path fill="#1D1D1B" d="M50.647,24c-1.642-4.593-6.022-7.895-11.173-7.895c-3.079,0-5.984,1.201-8.169,3.278
		C27.888,15.945,23.296,14,18.354,14C8.257,14,0.041,22.215,0.041,32.314c0,9.705,7.593,17.647,17.147,18.254
		c0.101,0.015,0.188,0.059,0.293,0.059h33.223c0.046,0,0.084-0.023,0.128-0.026c0.044,0.003,0.084,0.026,0.128,0.026
		c7.152,0,12.971-6.016,12.971-13.41c0-7.294-5.933-13.229-13.227-13.229C50.684,23.989,50.668,24,50.647,24z M59.83,37.218
		c0,5.133-3.979,9.309-8.87,9.309c-0.044,0-0.084,0.023-0.128,0.026c-0.044-0.003-0.082-0.026-0.128-0.026h-32.35
		c-7.837,0-14.213-6.375-14.213-14.213c0-7.837,6.376-14.213,14.213-14.213c4.491,0,8.626,2.057,11.341,5.643
		c0.064,0.087,0.16,0.135,0.236,0.209c0.084,0.08,0.145,0.18,0.244,0.247c0.022,0.015,0.048,0.015,0.07,0.029
		c0.134,0.084,0.28,0.128,0.429,0.178c0.104,0.035,0.202,0.088,0.308,0.105c0.162,0.028,0.323,0.011,0.487,0
		c0.094-0.007,0.188,0.005,0.282-0.015c0.162-0.035,0.312-0.114,0.467-0.19c0.086-0.042,0.176-0.068,0.256-0.124
		c0.03-0.019,0.064-0.023,0.092-0.044c0.137-0.101,0.221-0.237,0.32-0.362c0.04-0.05,0.099-0.079,0.137-0.133
		c1.449-2.153,3.86-3.439,6.451-3.439c4.285,0,7.773,3.487,7.773,7.774c0,1.132,0.917,2.051,2.05,2.051
		c1.071,0,1.925-0.831,2.015-1.878C56.058,28.471,59.83,32.392,59.83,37.218z"/>
</g>
<g id="comment">
</g>
<g id="map-marker">
</g>
<g id="earth">
</g>
<g id="heart">
</g>
<g id="twitter">
</g>
<g id="bucket">
</g>
<g id="paperclip">
</g>
<g id="undo">
</g>
<g id="redo">
</g>
<g id="chevron-left">
</g>
<g id="chevron-right">
</g>
<g id="cross">
</g>
<g id="search">
</g>
<g id="hamburger">
</g>
</svg>
