<?xml version="1.0" encoding="utf-8"?>
<!-- Generator: Adobe Illustrator 16.0.0, SVG Export Plug-In . SVG Version: 6.00 Build 0)  -->
<!DOCTYPE svg PUBLIC "-//W3C//DTD SVG 1.1//EN" "http://www.w3.org/Graphics/SVG/1.1/DTD/svg11.dtd">
<svg version="1.1" xmlns="http://www.w3.org/2000/svg" xmlns:xlink="http://www.w3.org/1999/xlink" x="0px" y="0px" width="64px"
	 height="64px" viewBox="0 0 64 64" enable-background="new 0 0 64 64" xml:space="preserve">
<g id="eye">
	<g>
		<path fill="#1D1D1B" d="M5.869,63.115C6.416,63.686,7.155,64,7.947,64c1.018,0,2.034-0.499,3.021-1.482l12.244-12.235
			c1.18-1.176,3.769-2.246,5.432-2.246h29.389c3.32,0,6.02-2.695,6.02-6.009V9.926c0-3.314-2.699-6.01-6.02-6.01H6.071
			c-3.32,0-6.02,2.695-6.02,6.01v32.102c0,3.362,2.061,5.998,4.628,5.998c0.009,0,0.013,0,0.021,0
			c0.193,0.094,0.642,0.779,0.593,1.926l-0.417,9.896C4.815,61.268,5.149,62.366,5.869,63.115z M4.829,44.035
			c-0.006,0-0.014,0-0.021,0c-0.21-0.08-0.744-0.795-0.744-2.008V9.926c0-1.105,0.901-2.003,2.007-2.003h51.961
			c1.105,0,2.005,0.897,2.005,2.003v32.102c0,1.104-0.899,2.003-2.005,2.003H28.644c-2.759,0-6.312,1.469-8.268,3.419L8.932,58.883
			l0.37-8.763c0.079-1.894-0.512-3.641-1.616-4.793C6.885,44.495,5.859,44.035,4.829,44.035z"/>
		<path fill="#1D1D1B" d="M11.854,18.361h40.391c1.107,0,2.008-0.896,2.008-2.003s-0.9-2.003-2.008-2.003H11.854
			c-1.105,0-2.006,0.896-2.006,2.003S10.749,18.361,11.854,18.361z"/>
		<path fill="#1D1D1B" d="M11.854,28.377h40.391c1.107,0,2.008-0.895,2.008-2.002s-0.9-2.004-2.008-2.004H11.854
			c-1.105,0-2.006,0.896-2.006,2.004S10.749,28.377,11.854,28.377z"/>
		<path fill="#1D1D1B" d="M11.854,38.434h28.273c1.107,0,2.008-0.896,2.008-2.004s-0.9-2.004-2.008-2.004H11.854
			c-1.105,0-2.006,0.896-2.006,2.004S10.749,38.434,11.854,38.434z"/>
	</g>
</g>
<g id="comment">
</g>
<g id="map-marker">
</g>
<g id="earth">
</g>
<g id="heart">
</g>
<g id="twitter">
</g>
<g id="bucket">
</g>
<g id="paperclip">
</g>
<g id="undo">
</g>
<g id="redo">
</g>
<g id="chevron-left">
</g>
<g id="chevron-right">
</g>
<g id="cross">
</g>
<g id="search">
</g>
<g id="hamburger">
</g>
</svg>
