<?xml version="1.0" encoding="utf-8"?>
<!-- Generator: Adobe Illustrator 16.0.0, SVG Export Plug-In . SVG Version: 6.00 Build 0)  -->
<!DOCTYPE svg PUBLIC "-//W3C//DTD SVG 1.1//EN" "http://www.w3.org/Graphics/SVG/1.1/DTD/svg11.dtd">
<svg version="1.1" xmlns="http://www.w3.org/2000/svg" xmlns:xlink="http://www.w3.org/1999/xlink" x="0px" y="0px" width="64px"
	 height="64px" viewBox="0 0 64 64" enable-background="new 0 0 64 64" xml:space="preserve">
<g id="eye">
	<path fill="#1D1D1B" d="M4.629,48.049c0.004,0,0.012,0,0.016,0c0.196,0.094,0.643,0.779,0.596,1.924l-0.419,9.881
		c-0.059,1.418,0.276,2.516,0.995,3.264C6.365,63.686,7.102,64,7.895,64c1.019,0,2.033-0.498,3.021-1.48l12.247-12.217
		c1.175-1.174,3.767-2.242,5.432-2.242h29.386c3.32,0,6.021-2.691,6.021-6V10.008c0-3.309-2.7-6.001-6.021-6.001H6.019
		C2.699,4.007,0,6.699,0,10.008v32.053C0,45.418,2.059,48.049,4.629,48.049z M4.012,10.008c0-1.104,0.899-2,2.007-2h51.961
		c1.108,0,2.008,0.896,2.008,2v32.053c0,1.104-0.899,2-2.008,2H28.594c-2.761,0-6.317,1.467-8.271,3.414L8.88,58.891l0.37-8.75
		c0.078-1.891-0.509-3.635-1.618-4.785c-0.797-0.83-1.827-1.289-2.854-1.289c-0.008,0-0.016,0-0.023,0
		c-0.212-0.08-0.743-0.795-0.743-2.006V10.008z"/>
</g>
<g id="comment">
</g>
<g id="map-marker">
</g>
<g id="earth">
</g>
<g id="heart">
</g>
<g id="twitter">
</g>
<g id="bucket">
</g>
<g id="paperclip">
</g>
<g id="undo">
</g>
<g id="redo">
</g>
<g id="chevron-left">
</g>
<g id="chevron-right">
</g>
<g id="cross">
</g>
<g id="search">
</g>
<g id="hamburger">
</g>
</svg>
