<?xml version="1.0" encoding="utf-8"?>
<!-- Generator: Adobe Illustrator 16.0.0, SVG Export Plug-In . SVG Version: 6.00 Build 0)  -->
<!DOCTYPE svg PUBLIC "-//W3C//DTD SVG 1.1//EN" "http://www.w3.org/Graphics/SVG/1.1/DTD/svg11.dtd">
<svg version="1.1" xmlns="http://www.w3.org/2000/svg" xmlns:xlink="http://www.w3.org/1999/xlink" x="0px" y="0px" width="64px"
	 height="64px" viewBox="0 0 64 64" enable-background="new 0 0 64 64" xml:space="preserve">
<g id="eye">
	<path fill="#1D1D1B" d="M0.057,59.515c0.124,0.582,0.591,1.206,1.119,1.487c0.351,0.187,0.753,0.281,1.192,0.281
		c2.611,0,13.219-5.48,19.842-9.045c3.482,1.109,5.677,1.162,9.613,1.162h0.228C49.669,53.4,64,42.149,64,28.319
		c0-13.829-14.331-25.08-31.949-25.08c-17.614,0-31.948,11.251-31.948,25.08c0,6.521,3.26,12.812,8.997,17.466
		c-0.876,1.31-2.628,3.528-3.886,5.121C0.681,56.645-0.263,58.018,0.057,59.515z M8.406,53.393c4.382-5.547,5.384-6.99,5.183-8.443
		c-0.076-0.539-0.439-1.161-0.881-1.484c-5.512-4.014-8.549-9.395-8.549-15.146c0-11.607,12.514-21.052,27.892-21.052
		c15.38,0,27.892,9.444,27.892,21.052c0,11.609-12.512,21.054-27.892,21.054h-0.228c-3.988,0-5.739-0.048-9.139-1.225
		c-0.543-0.188-1.137-0.141-1.641,0.135c-4.91,2.655-10.486,5.492-14.318,7.25C7.306,54.785,7.897,54.037,8.406,53.393z"/>
</g>
<g id="comment">
</g>
<g id="map-marker">
</g>
<g id="earth">
</g>
<g id="heart">
</g>
<g id="twitter">
</g>
<g id="bucket">
</g>
<g id="paperclip">
</g>
<g id="undo">
</g>
<g id="redo">
</g>
<g id="chevron-left">
</g>
<g id="chevron-right">
</g>
<g id="cross">
</g>
<g id="search">
</g>
<g id="hamburger">
</g>
</svg>
