<?xml version="1.0" encoding="utf-8"?>
<!-- Generator: Adobe Illustrator 16.0.0, SVG Export Plug-In . SVG Version: 6.00 Build 0)  -->
<!DOCTYPE svg PUBLIC "-//W3C//DTD SVG 1.1//EN" "http://www.w3.org/Graphics/SVG/1.1/DTD/svg11.dtd">
<svg version="1.1" xmlns="http://www.w3.org/2000/svg" xmlns:xlink="http://www.w3.org/1999/xlink" x="0px" y="0px" width="64px"
	 height="64px" viewBox="0 0 64 64" enable-background="new 0 0 64 64" xml:space="preserve">
<g id="eye">
	<path fill="#1D1D1B" d="M58.002,6.741H5.998c-3.307,0-5.998,2.691-5.998,6v31.974c0,3.309,2.691,6,5.998,6h16.383l-4.088,10.563
		c-0.238,0.615-0.158,1.309,0.215,1.854c0.373,0.543,0.99,0.869,1.65,0.869h23.621c0.656,0,1.271-0.322,1.645-0.863
		c0.375-0.539,0.459-1.229,0.227-1.844l-3.996-10.579h16.348c3.307,0,5.998-2.691,5.998-6V12.741
		C64,9.433,61.309,6.741,58.002,6.741z M40.887,60H23.076l3.592-9.286H37.38L40.887,60z M60,44.714c0,1.104-0.896,2-1.998,2H5.998
		c-1.102,0-1.998-0.896-1.998-2V12.741c0-1.103,0.896-2,1.998-2h52.004c1.102,0,1.998,0.896,1.998,2V44.714z"/>
</g>
<g id="comment">
</g>
<g id="map-marker">
</g>
<g id="earth">
</g>
<g id="heart">
</g>
<g id="twitter">
</g>
<g id="bucket">
</g>
<g id="paperclip">
</g>
<g id="undo">
</g>
<g id="redo">
</g>
<g id="chevron-left">
</g>
<g id="chevron-right">
</g>
<g id="cross">
</g>
<g id="search">
</g>
<g id="hamburger">
</g>
</svg>
