<?xml version="1.0" encoding="utf-8"?>
<!-- Generator: Adobe Illustrator 16.0.0, SVG Export Plug-In . SVG Version: 6.00 Build 0)  -->
<!DOCTYPE svg PUBLIC "-//W3C//DTD SVG 1.1//EN" "http://www.w3.org/Graphics/SVG/1.1/DTD/svg11.dtd">
<svg version="1.1" xmlns="http://www.w3.org/2000/svg" xmlns:xlink="http://www.w3.org/1999/xlink" x="0px" y="0px" width="64px"
	 height="64px" viewBox="0 0 64 64" enable-background="new 0 0 64 64" xml:space="preserve">
<g id="eye">
	<g>
		<path fill="#1D1D1B" d="M38.489,47.434H18.527V26.006c0-1.452-1.159-2.631-2.591-2.631c-1.434,0-2.592,1.179-2.592,2.631v24.059
			c0,1.454,1.158,2.632,2.592,2.632h22.553c1.433,0,2.592-1.178,2.592-2.632C41.081,48.613,39.922,47.434,38.489,47.434z"/>
		<path fill="#1D1D1B" d="M46.168,15.507H2.571c-1.433,0-2.592,1.179-2.592,2.632s1.159,2.631,2.592,2.631h41.005v40.6
			c0,1.453,1.159,2.631,2.592,2.631s2.592-1.178,2.592-2.631v-43.23C48.76,16.686,47.601,15.507,46.168,15.507z"/>
		<path fill="#1D1D1B" d="M15.937,12.899c1.432,0,2.591-1.179,2.591-2.631V2.631C18.527,1.178,17.368,0,15.937,0
			c-1.434,0-2.592,1.178-2.592,2.631v7.638C13.345,11.721,14.503,12.899,15.937,12.899z"/>
		<path fill="#1D1D1B" d="M61.388,47.441h-7.521c-1.433,0-2.591,1.179-2.591,2.631c0,1.454,1.158,2.633,2.591,2.633h7.521
			c1.433,0,2.592-1.179,2.592-2.633C63.979,48.62,62.82,47.441,61.388,47.441z"/>
	</g>
</g>
<g id="comment">
</g>
<g id="map-marker">
</g>
<g id="earth">
</g>
<g id="heart">
</g>
<g id="twitter">
</g>
<g id="bucket">
</g>
<g id="paperclip">
</g>
<g id="undo">
</g>
<g id="redo">
</g>
<g id="chevron-left">
</g>
<g id="chevron-right">
</g>
<g id="cross">
</g>
<g id="search">
</g>
<g id="hamburger">
</g>
</svg>
