<?xml version="1.0" encoding="utf-8"?>
<!-- Generator: Adobe Illustrator 16.0.0, SVG Export Plug-In . SVG Version: 6.00 Build 0)  -->
<!DOCTYPE svg PUBLIC "-//W3C//DTD SVG 1.1//EN" "http://www.w3.org/Graphics/SVG/1.1/DTD/svg11.dtd">
<svg version="1.1" xmlns="http://www.w3.org/2000/svg" xmlns:xlink="http://www.w3.org/1999/xlink" x="0px" y="0px" width="64px"
	 height="64px" viewBox="0 0 64 64" enable-background="new 0 0 64 64" xml:space="preserve">
<g id="eye">
	<g>
		<path fill="#1D1D1B" d="M46.355,17.979c-0.779-0.78-2.043-0.78-2.821,0L31.94,29.57L20.349,17.979c-0.779-0.78-2.044-0.78-2.822,0
			c-0.778,0.779-0.778,2.043,0,2.823l11.499,11.5L17.534,43.791c-0.778,0.779-0.778,2.043,0,2.822
			c0.392,0.391,0.903,0.586,1.414,0.586s1.02-0.195,1.411-0.586L31.94,35.034l11.583,11.579c0.39,0.391,0.899,0.586,1.41,0.586
			c0.512,0,1.024-0.195,1.412-0.586c0.779-0.779,0.779-2.043,0-2.822L34.856,32.303l11.499-11.5
			C47.135,20.022,47.135,18.759,46.355,17.979z"/>
		<path fill="#1D1D1B" d="M31.94,0C14.33,0,0,14.328,0,31.941c0,17.611,14.33,31.94,31.94,31.94
			c17.611,0,31.941-14.329,31.941-31.94C63.882,14.328,49.552,0,31.94,0z M31.94,59.89c-15.411,0-27.948-12.538-27.948-27.948
			c0-15.412,12.537-27.949,27.948-27.949c15.412,0,27.949,12.537,27.949,27.949C59.89,47.352,47.353,59.89,31.94,59.89z"/>
	</g>
</g>
<g id="comment">
</g>
<g id="map-marker">
</g>
<g id="earth">
</g>
<g id="heart">
</g>
<g id="twitter">
</g>
<g id="bucket">
</g>
<g id="paperclip">
</g>
<g id="undo">
</g>
<g id="redo">
</g>
<g id="chevron-left">
</g>
<g id="chevron-right">
</g>
<g id="cross">
</g>
<g id="search">
</g>
<g id="hamburger">
</g>
</svg>
