<?xml version="1.0" encoding="utf-8"?>
<!-- Generator: Adobe Illustrator 16.0.0, SVG Export Plug-In . SVG Version: 6.00 Build 0)  -->
<!DOCTYPE svg PUBLIC "-//W3C//DTD SVG 1.1//EN" "http://www.w3.org/Graphics/SVG/1.1/DTD/svg11.dtd">
<svg version="1.1" xmlns="http://www.w3.org/2000/svg" xmlns:xlink="http://www.w3.org/1999/xlink" x="0px" y="0px" width="64px"
	 height="64px" viewBox="0 0 64 64" enable-background="new 0 0 64 64" xml:space="preserve">
<g id="eye">
	<g>
		<path fill="#1D1D1B" d="M26.881,2.228c-1.028,0.408-1.528,1.572-1.122,2.601c0.023,0.057,2.197,5.771,0.066,8.913
			c-0.842,1.241-2.404,1.949-4.573,2.17V5.821c0-1.106-0.895-2.002-2.001-2.002c-1.106,0-2.001,0.896-2.001,2.002v10.107
			c-2.298-0.188-3.946-0.897-4.819-2.182c-1.79-2.628-0.563-7.331,0.061-8.923c0.407-1.026-0.096-2.188-1.122-2.597
			c-1.026-0.407-2.189,0.092-2.6,1.122c-0.123,0.312-3,7.71,0.344,12.64c1.394,2.053,3.576,3.323,6.494,3.801
			c-0.006,0.035-0.027,0.062-0.031,0.098c-0.807,5.947-4.552,35.945,1.157,42.488C17.905,63.719,19.23,64,20.133,64
			c1.31,0,2.476-0.569,3.375-1.645c5.462-6.545,0.36-36.597-0.717-42.553c-0.002-0.01-0.008-0.02-0.012-0.029
			c2.851-0.497,4.985-1.762,6.357-3.784c3.344-4.93,0.467-12.328,0.344-12.64C29.072,2.319,27.907,1.82,26.881,2.228z
			 M20.436,59.788c-0.174,0.207-0.252,0.207-0.303,0.207c-0.053,0-0.162,0-0.383-0.252c-3.297-3.78-2.14-23.761-0.506-36.989
			C21.604,36.741,23.404,56.231,20.436,59.788z"/>
		<path fill="#1D1D1B" d="M55.818,31.923V2.002C55.818,0.896,54.923,0,53.817,0c-13.109,0-14.28,28.606-14.372,31.868
			c-0.014,0.54,0.189,1.063,0.567,1.451c0.377,0.387,0.893,0.606,1.434,0.606h1.91c-0.383,5.835-1.206,24.086,3.058,28.685
			C47.481,63.76,48.646,64,49.438,64s1.958-0.24,3.023-1.391c4.53-4.885,3.324-25.152,2.998-29.605
			C55.668,32.688,55.818,32.329,55.818,31.923z M51.816,4.491V29.92h-8.272C44.021,22.276,46.145,7.368,51.816,4.491z
			 M49.438,59.979c-1.923-1.118-2.886-12.704-2.14-25.012h4.282C52.326,47.279,51.362,58.865,49.438,59.979z"/>
	</g>
</g>
<g id="comment">
</g>
<g id="map-marker">
</g>
<g id="earth">
</g>
<g id="heart">
</g>
<g id="twitter">
</g>
<g id="bucket">
</g>
<g id="paperclip">
</g>
<g id="undo">
</g>
<g id="redo">
</g>
<g id="chevron-left">
</g>
<g id="chevron-right">
</g>
<g id="cross">
</g>
<g id="search">
</g>
<g id="hamburger">
</g>
</svg>
