<?xml version="1.0" encoding="utf-8"?>
<!-- Generator: Adobe Illustrator 16.0.0, SVG Export Plug-In . SVG Version: 6.00 Build 0)  -->
<!DOCTYPE svg PUBLIC "-//W3C//DTD SVG 1.1//EN" "http://www.w3.org/Graphics/SVG/1.1/DTD/svg11.dtd">
<svg version="1.1" xmlns="http://www.w3.org/2000/svg" xmlns:xlink="http://www.w3.org/1999/xlink" x="0px" y="0px" width="64px"
	 height="64px" viewBox="0 0 64 64" enable-background="new 0 0 64 64" xml:space="preserve">
<g id="eye">
	<path fill="#1D1D1B" d="M0.152,16.638c0.017,0.2,0.065,0.396,0.141,0.584c0.005,0.016,0.005,0.031,0.011,0.047
		c0.019,0.043,0.054,0.074,0.072,0.115c0.044,0.084,0.077,0.173,0.135,0.253l29.846,42.354c0.076,0.11,0.194,0.161,0.288,0.25
		c0.077,0.076,0.129,0.168,0.22,0.232c0.035,0.026,0.077,0.033,0.114,0.057c0.088,0.053,0.172,0.093,0.267,0.131
		c0.233,0.099,0.473,0.164,0.719,0.171c0.011,0,0.022,0.009,0.037,0.009c0.003,0,0.007-0.002,0.007-0.002
		c0.006,0,0.01,0.002,0.014,0.002c0.015,0,0.025-0.009,0.038-0.009c0.245-0.006,0.486-0.071,0.718-0.171
		c0.093-0.037,0.176-0.078,0.263-0.129c0.037-0.022,0.079-0.031,0.116-0.057c0.092-0.065,0.147-0.16,0.224-0.237
		c0.092-0.087,0.208-0.137,0.284-0.245l29.847-42.224c0.235-0.331,0.345-0.719,0.354-1.111c0.006-0.076-0.006-0.148-0.008-0.223
		c-0.005-0.066-0.005-0.132-0.02-0.199c-0.064-0.52-0.306-1.012-0.743-1.349L47.862,3.167c-0.357-0.274-0.783-0.422-1.25-0.417
		c-0.286,0.004-6.962,0.109-14.595,1.697C24.767,2.9,17.726,2.756,17.425,2.75c-0.504,0-0.9,0.14-1.261,0.417L0.928,14.887
		c-0.029,0.022-0.045,0.055-0.072,0.079c-0.118,0.101-0.227,0.212-0.318,0.34c-0.043,0.059-0.078,0.119-0.113,0.181
		c-0.029,0.051-0.068,0.094-0.094,0.148c-0.032,0.067-0.044,0.14-0.064,0.21c-0.024,0.067-0.05,0.132-0.063,0.2
		c-0.036,0.158-0.05,0.316-0.046,0.476C0.156,16.561,0.149,16.599,0.152,16.638z M30.072,8.159v5.507
		c-0.569-0.083-1.221-0.158-1.986-0.218c-2.004-0.27-4.69-0.49-8.157-0.49c-0.337,0-0.71,0.025-1.052,0.029l3.998-5.854
		C24.988,7.338,27.496,7.662,30.072,8.159z M41.168,7.13l3.937,5.856c-0.331-0.003-0.689-0.028-1.016-0.028
		c-4.414,0-7.564,0.356-9.646,0.718c-0.121,0.015-0.234,0.031-0.353,0.048V8.139C36.686,7.65,39.126,7.333,41.168,7.13z
		 M27.386,17.412c1.131,0.148,2,0.305,2.626,0.442V48.56L17.641,17.425C22.282,17.241,25.37,17.288,27.386,17.412z M34.029,17.847
		c0.325-0.071,0.71-0.145,1.163-0.223c1.972-0.203,5.423-0.356,11.211-0.125L34.029,48.55V17.847z M13.399,17.638L23.707,43.58
		L5.808,18.178C8.649,17.943,11.151,17.77,13.399,17.638z M40.316,43.62l10.324-25.903c2.254,0.139,4.752,0.321,7.583,0.571
		L40.316,43.62z M54.756,13.541c-1.612-0.164-3.16-0.275-4.685-0.371l-4.284-6.372c0.059-0.002,0.141-0.007,0.193-0.009
		L54.756,13.541z M18.042,6.791c0.053,0.002,0.135,0.007,0.193,0.009l-4.355,6.376c-1.502,0.095-3.022,0.203-4.612,0.364
		L18.042,6.791z"/>
</g>
<g id="comment">
</g>
<g id="map-marker">
</g>
<g id="earth">
</g>
<g id="heart">
</g>
<g id="twitter">
</g>
<g id="bucket">
</g>
<g id="paperclip">
</g>
<g id="undo">
</g>
<g id="redo">
</g>
<g id="chevron-left">
</g>
<g id="chevron-right">
</g>
<g id="cross">
</g>
<g id="search">
</g>
<g id="hamburger">
</g>
</svg>
