<?xml version="1.0" encoding="utf-8"?>
<!-- Generator: Adobe Illustrator 16.0.0, SVG Export Plug-In . SVG Version: 6.00 Build 0)  -->
<!DOCTYPE svg PUBLIC "-//W3C//DTD SVG 1.1//EN" "http://www.w3.org/Graphics/SVG/1.1/DTD/svg11.dtd">
<svg version="1.1" xmlns="http://www.w3.org/2000/svg" xmlns:xlink="http://www.w3.org/1999/xlink" x="0px" y="0px" width="64px"
	 height="64px" viewBox="0 0 64 64" enable-background="new 0 0 64 64" xml:space="preserve">
<g id="eye">
	<path fill="#1D1D1B" d="M7.119,58.267c0,2.249,0.887,3.562,1.632,4.269c1.358,1.288,3.058,1.388,3.508,1.388
		c0.058,0,0.095-0.002,0.106-0.003h38.836c2.043,0,3.309-0.841,4.011-1.547c1.613-1.625,1.645-3.871,1.643-4.106V13.023
		c0-0.265-0.054-0.527-0.156-0.775c-0.104-0.249-0.252-0.474-0.44-0.661L45.268,0.596c-0.188-0.188-0.413-0.337-0.662-0.44
		c-0.248-0.103-0.512-0.156-0.774-0.156H12.365c-2.036,0-3.246,0.889-3.901,1.634C6.963,3.34,7.059,5.725,7.119,6.395V58.267z
		 M42.814,4.059h0.175l9.315,9.315l-7.488,0.002c-0.004,0.012-0.863,0.012-1.422-0.52c-0.386-0.366-0.58-0.992-0.58-1.863V4.059z
		 M11.513,4.314c0.056-0.063,0.224-0.256,0.853-0.256h26.39v6.936c0,2.524,1.001,4.006,1.84,4.805
		c1.598,1.52,3.64,1.638,4.191,1.638c0.068,0,0.114-0.002,0.132-0.003h7.877v40.82c-0.035,1.607-1.21,1.607-1.594,1.607
		l-38.942,0.003c-0.006,0-0.456-0.03-0.715-0.275c-0.317-0.301-0.364-0.958-0.364-1.322V6.291c0-0.087-0.006-0.174-0.017-0.26
		C11.12,5.692,11.157,4.718,11.513,4.314z"/>
</g>
<g id="comment">
</g>
<g id="map-marker">
</g>
<g id="earth">
</g>
<g id="heart">
</g>
<g id="twitter">
</g>
<g id="bucket">
</g>
<g id="paperclip">
</g>
<g id="undo">
</g>
<g id="redo">
</g>
<g id="chevron-left">
</g>
<g id="chevron-right">
</g>
<g id="cross">
</g>
<g id="search">
</g>
<g id="hamburger">
</g>
</svg>
