<?xml version="1.0" encoding="utf-8"?>
<!-- Generator: Adobe Illustrator 16.0.0, SVG Export Plug-In . SVG Version: 6.00 Build 0)  -->
<!DOCTYPE svg PUBLIC "-//W3C//DTD SVG 1.1//EN" "http://www.w3.org/Graphics/SVG/1.1/DTD/svg11.dtd">
<svg version="1.1" xmlns="http://www.w3.org/2000/svg" xmlns:xlink="http://www.w3.org/1999/xlink" x="0px" y="0px" width="64px"
	 height="64px" viewBox="0 0 64 64" enable-background="new 0 0 64 64" xml:space="preserve">
<g id="eye">
	<g>
		<path fill="#1D1D1B" d="M7.053,58.337c0,2.251,0.888,3.565,1.633,4.272c1.359,1.29,3.061,1.39,3.511,1.39
			c0.058,0,0.095-0.002,0.107-0.003h38.87c2.045,0,3.312-0.842,4.015-1.548c1.615-1.627,1.646-3.875,1.645-4.11V13.053
			c0-0.265-0.054-0.527-0.156-0.776c-0.104-0.249-0.253-0.474-0.441-0.662l-11-11.001c-0.188-0.188-0.412-0.337-0.663-0.44
			c-0.248-0.103-0.512-0.157-0.775-0.157H12.304c-2.038,0-3.249,0.89-3.905,1.636C6.896,3.361,6.992,5.748,7.053,6.418V58.337z
			 M42.78,4.08h0.176l9.323,9.324l-7.494,0.002c0.004,0.012-0.865,0.012-1.426-0.52c-0.384-0.366-0.579-0.993-0.579-1.864V4.08z
			 M11.45,4.336c0.056-0.064,0.224-0.256,0.854-0.256h26.413v6.942c0,2.526,1.003,4.009,1.842,4.809
			c1.6,1.521,3.644,1.639,4.195,1.639c0.069,0,0.114-0.002,0.133-0.003h7.883v40.857c-0.035,1.608-1.211,1.608-1.596,1.608
			l-38.978,0.003c-0.006,0-0.456-0.03-0.714-0.275c-0.318-0.302-0.366-0.958-0.366-1.323V6.313c0-0.087-0.006-0.174-0.016-0.26
			C11.057,5.715,11.095,4.74,11.45,4.336z"/>
		<path fill="#1D1D1B" d="M17.523,48.621h5.107v5.106c0,1.122,0.909,2.032,2.032,2.032c1.122,0,2.032-0.91,2.032-2.032v-5.106h5.107
			c1.123,0,2.031-0.91,2.031-2.032s-0.908-2.032-2.031-2.032h-5.107V39.45c0-1.122-0.91-2.032-2.032-2.032
			c-1.123,0-2.032,0.91-2.032,2.032v5.107h-5.107c-1.123,0-2.031,0.91-2.031,2.032S16.4,48.621,17.523,48.621z"/>
	</g>
</g>
<g id="comment">
</g>
<g id="map-marker">
</g>
<g id="earth">
</g>
<g id="heart">
</g>
<g id="twitter">
</g>
<g id="bucket">
</g>
<g id="paperclip">
</g>
<g id="undo">
</g>
<g id="redo">
</g>
<g id="chevron-left">
</g>
<g id="chevron-right">
</g>
<g id="cross">
</g>
<g id="search">
</g>
<g id="hamburger">
</g>
</svg>
