<?xml version="1.0" encoding="utf-8"?>
<!-- Generator: Adobe Illustrator 16.0.0, SVG Export Plug-In . SVG Version: 6.00 Build 0)  -->
<!DOCTYPE svg PUBLIC "-//W3C//DTD SVG 1.1//EN" "http://www.w3.org/Graphics/SVG/1.1/DTD/svg11.dtd">
<svg version="1.1" xmlns="http://www.w3.org/2000/svg" xmlns:xlink="http://www.w3.org/1999/xlink" x="0px" y="0px" width="64px"
	 height="64px" viewBox="0 0 64 64" enable-background="new 0 0 64 64" xml:space="preserve">
<g id="eye">
	<g>
		<path fill="#1D1D1B" d="M64,41.733c0-1.345-1.089-2.435-2.435-2.435c-1.347,0-2.436,1.09-2.436,2.435v14.115H4.946V41.733
			c0-1.345-1.089-2.435-2.437-2.435c-1.346,0-2.435,1.09-2.435,2.435v15.535c0,0.18,0.067,0.338,0.103,0.507
			c-0.035,0.169-0.103,0.328-0.103,0.507c0,1.345,1.089,2.436,2.435,2.436h59.056c1.346,0,2.435-1.091,2.435-2.436
			c0-0.179-0.064-0.338-0.102-0.507C63.936,57.606,64,57.448,64,57.269V41.733z"/>
		<path fill="#1D1D1B" d="M32.19,2.967c-1.346,0-2.437,1.091-2.437,2.436v35.576L19.148,30.372c-0.951-0.951-2.492-0.951-3.443,0
			s-0.951,2.493,0,3.444l14.764,14.764c0.475,0.476,1.099,0.713,1.722,0.713c0.622,0,1.245-0.238,1.722-0.713l14.764-14.764
			c0.951-0.951,0.951-2.493,0-3.444c-0.952-0.951-2.493-0.951-3.443,0L34.625,40.979V5.403C34.625,4.058,33.536,2.967,32.19,2.967z"
			/>
	</g>
</g>
<g id="comment">
</g>
<g id="map-marker">
</g>
<g id="earth">
</g>
<g id="heart">
</g>
<g id="twitter">
</g>
<g id="bucket">
</g>
<g id="paperclip">
</g>
<g id="undo">
</g>
<g id="redo">
</g>
<g id="chevron-left">
</g>
<g id="chevron-right">
</g>
<g id="cross">
</g>
<g id="search">
</g>
<g id="hamburger">
</g>
</svg>
