<?xml version="1.0" encoding="utf-8"?>
<!-- Generator: Adobe Illustrator 16.0.0, SVG Export Plug-In . SVG Version: 6.00 Build 0)  -->
<!DOCTYPE svg PUBLIC "-//W3C//DTD SVG 1.1//EN" "http://www.w3.org/Graphics/SVG/1.1/DTD/svg11.dtd">
<svg version="1.1" xmlns="http://www.w3.org/2000/svg" xmlns:xlink="http://www.w3.org/1999/xlink" x="0px" y="0px" width="64px"
	 height="64px" viewBox="0 0 64 64" enable-background="new 0 0 64 64" xml:space="preserve">
<g id="eye">
	<path fill="#1D1D1B" d="M32,0C14.355,0,0,14.355,0,32s14.355,32,32,32s32-14.355,32-32S49.645,0,32,0z M60,32.004
		c-7.77-2.025-14.551-2.107-20.402-0.996c-0.855-1.969-1.734-3.869-2.625-5.68c6.141-2.469,11.957-6.104,16.438-11.338
		C57.516,18.863,60,25.145,60,32C60,32.002,60,32.002,60,32.004z M50.623,11.148c-4.102,4.898-9.635,8.254-15.5,10.549
		C31.008,13.898,26.99,8.031,24.766,4.982C27.078,4.361,29.496,4,32,4C39.154,4,45.668,6.719,50.623,11.148z M20.797,6.357
		c1.805,2.428,6.051,8.42,10.463,16.695c-10.928,3.404-22.115,3.586-26.715,3.482C6.346,17.473,12.535,9.98,20.797,6.357z M4,32
		c0-0.494,0.051-0.975,0.074-1.463c0.748,0.025,1.672,0.045,2.758,0.045c5.844,0,16.168-0.574,26.307-3.873
		c0.836,1.686,1.664,3.445,2.475,5.273c-13.445,4.045-21.23,14.258-24.189,18.941C6.832,45.934,4,39.299,4,32z M14.359,53.717
		c2.188-3.807,9.328-14.383,22.787-18.129c2.717,6.684,5.047,14.113,6.346,21.918C39.98,59.094,36.098,60,32,60
		C25.316,60,19.18,57.639,14.359,53.717z M47.209,55.477c-1.342-7.398-3.529-14.406-6.057-20.752
		c5.309-0.842,11.461-0.604,18.52,1.334C58.484,44.184,53.816,51.182,47.209,55.477z"/>
</g>
<g id="comment">
</g>
<g id="map-marker">
</g>
<g id="earth">
</g>
<g id="heart">
</g>
<g id="twitter">
</g>
<g id="bucket">
</g>
<g id="paperclip">
</g>
<g id="undo">
</g>
<g id="redo">
</g>
<g id="chevron-left">
</g>
<g id="chevron-right">
</g>
<g id="cross">
</g>
<g id="search">
</g>
<g id="hamburger">
</g>
</svg>
