<?xml version="1.0" encoding="utf-8"?>
<!-- Generator: Adobe Illustrator 16.0.0, SVG Export Plug-In . SVG Version: 6.00 Build 0)  -->
<!DOCTYPE svg PUBLIC "-//W3C//DTD SVG 1.1//EN" "http://www.w3.org/Graphics/SVG/1.1/DTD/svg11.dtd">
<svg version="1.1" xmlns="http://www.w3.org/2000/svg" xmlns:xlink="http://www.w3.org/1999/xlink" x="0px" y="0px" width="64px"
	 height="64px" viewBox="0 0 64 64" enable-background="new 0 0 64 64" xml:space="preserve">
<g id="eye">
	<path fill="#1D1D1B" d="M45.598,30.602C34.113,10.021,33.688,2.882,33.681,2.694c-0.012-1.102-0.904-1.996-2.011-2.001
		c-0.004,0-0.008,0-0.012,0c-0.561,0-1.068,0.231-1.434,0.601c-0.387,0.353-0.649,0.839-0.667,1.397
		c-0.002,0.069-0.332,7.152-11.917,27.912c-0.002,0.004-0.002,0.008-0.004,0.011s-0.004,0.005-0.007,0.008
		c-1.942,3.571-4.175,8.281-4.175,13.042C13.455,54.877,21.604,64,31.619,64s18.164-9.123,18.164-20.338
		c0-4.761-2.232-9.471-4.175-13.042c-0.002-0.003-0.004-0.005-0.006-0.008C45.6,30.609,45.6,30.605,45.598,30.602z M31.619,59.956
		c-7.786,0-14.119-7.309-14.119-16.293c0-3.841,1.959-7.941,3.671-11.09l0,0c5.707-10.224,8.777-17.239,10.448-21.915
		c1.671,4.675,4.741,11.69,10.448,21.915l0,0c1.712,3.149,3.671,7.249,3.671,11.09C45.738,52.646,39.405,59.956,31.619,59.956z"/>
</g>
<g id="comment">
</g>
<g id="map-marker">
</g>
<g id="earth">
</g>
<g id="heart">
</g>
<g id="twitter">
</g>
<g id="bucket">
</g>
<g id="paperclip">
</g>
<g id="undo">
</g>
<g id="redo">
</g>
<g id="chevron-left">
</g>
<g id="chevron-right">
</g>
<g id="cross">
</g>
<g id="search">
</g>
<g id="hamburger">
</g>
</svg>
