<?xml version="1.0" encoding="utf-8"?>
<!-- Generator: Adobe Illustrator 16.0.0, SVG Export Plug-In . SVG Version: 6.00 Build 0)  -->
<!DOCTYPE svg PUBLIC "-//W3C//DTD SVG 1.1//EN" "http://www.w3.org/Graphics/SVG/1.1/DTD/svg11.dtd">
<svg version="1.1" xmlns="http://www.w3.org/2000/svg" xmlns:xlink="http://www.w3.org/1999/xlink" x="0px" y="0px" width="64px"
	 height="64px" viewBox="0 0 64 64" enable-background="new 0 0 64 64" xml:space="preserve">
<g id="eye">
	<path fill="#1D1D1B" d="M58,10.324H6c-3.309,0-6,2.691-6,6V49c0,3.309,2.691,6,6,6h52c3.309,0,6-2.691,6-6V16.324
		C64,13.016,61.309,10.324,58,10.324z M57.018,14.324L32,32.367L6.982,14.324H57.018z M58,51H6c-1.104,0-2-0.896-2-2V17.107
		l26.83,19.35c0.35,0.252,0.76,0.377,1.17,0.377s0.82-0.125,1.17-0.377L60,17.107V49C60,50.104,59.104,51,58,51z"/>
</g>
<g id="comment">
</g>
<g id="map-marker">
</g>
<g id="earth">
</g>
<g id="heart">
</g>
<g id="twitter">
</g>
<g id="bucket">
</g>
<g id="paperclip">
</g>
<g id="undo">
</g>
<g id="redo">
</g>
<g id="chevron-left">
</g>
<g id="chevron-right">
</g>
<g id="cross">
</g>
<g id="search">
</g>
<g id="hamburger">
</g>
</svg>
