<?xml version="1.0" encoding="utf-8"?>
<!-- Generator: Adobe Illustrator 16.0.0, SVG Export Plug-In . SVG Version: 6.00 Build 0)  -->
<!DOCTYPE svg PUBLIC "-//W3C//DTD SVG 1.1//EN" "http://www.w3.org/Graphics/SVG/1.1/DTD/svg11.dtd">
<svg version="1.1" xmlns="http://www.w3.org/2000/svg" xmlns:xlink="http://www.w3.org/1999/xlink" x="0px" y="0px" width="64px"
	 height="64px" viewBox="0 0 64 64" enable-background="new 0 0 64 64" xml:space="preserve">
<g id="eye">
	<g>
		<path fill="#1D1D1B" d="M31.939,0C14.328,0,0,14.329,0,31.941s14.328,31.941,31.939,31.941c17.615,0,31.943-14.329,31.943-31.941
			S49.555,0,31.939,0z M31.939,59.891c-15.409,0-27.947-12.538-27.947-27.949S16.53,3.992,31.939,3.992
			c15.411,0,27.951,12.538,27.951,27.949S47.351,59.891,31.939,59.891z"/>
		<circle fill="#1D1D1B" cx="32.479" cy="51.574" r="2.246"/>
		<path fill="#1D1D1B" d="M32.479,45.499c1.103,0,1.996-0.894,1.996-1.996V14.732c0-1.102-0.894-1.996-1.996-1.996
			c-1.104,0-1.997,0.895-1.997,1.996v28.771C30.481,44.605,31.374,45.499,32.479,45.499z"/>
	</g>
</g>
<g id="comment">
</g>
<g id="map-marker">
</g>
<g id="earth">
</g>
<g id="heart">
</g>
<g id="twitter">
</g>
<g id="bucket">
</g>
<g id="paperclip">
</g>
<g id="undo">
</g>
<g id="redo">
</g>
<g id="chevron-left">
</g>
<g id="chevron-right">
</g>
<g id="cross">
</g>
<g id="search">
</g>
<g id="hamburger">
</g>
</svg>
