<?xml version="1.0" encoding="utf-8"?>
<!-- Generator: Adobe Illustrator 16.0.0, SVG Export Plug-In . SVG Version: 6.00 Build 0)  -->
<!DOCTYPE svg PUBLIC "-//W3C//DTD SVG 1.1//EN" "http://www.w3.org/Graphics/SVG/1.1/DTD/svg11.dtd">
<svg version="1.1" xmlns="http://www.w3.org/2000/svg" xmlns:xlink="http://www.w3.org/1999/xlink" x="0px" y="0px" width="64px"
	 height="64px" viewBox="0 0 64 64" enable-background="new 0 0 64 64" xml:space="preserve">
<g id="eye">
	<g>
		<path fill="#1D1D1B" d="M62,45c-1.105,0-2,0.896-2,2v13H47c-1.105,0-2,0.895-2,2s0.895,2,2,2h15c1.105,0,2-0.895,2-2V47
			C64,45.896,63.105,45,62,45z"/>
		<path fill="#1D1D1B" d="M17,60H4V47c0-1.104-0.895-2-2-2s-2,0.896-2,2v15c0,1.105,0.895,2,2,2h15c1.105,0,2-0.895,2-2
			S18.105,60,17,60z"/>
		<path fill="#1D1D1B" d="M17-0.001H2c-1.105,0-2,0.896-2,2v15c0,1.104,0.895,2,2,2s2-0.896,2-2v-13h13c1.105,0,2-0.896,2-2
			S18.105-0.001,17-0.001z"/>
		<path fill="#1D1D1B" d="M62-0.001H47c-1.105,0-2,0.896-2,2s0.895,2,2,2h13v13c0,1.104,0.895,2,2,2s2-0.896,2-2v-15
			C64,0.895,63.105-0.001,62-0.001z"/>
	</g>
</g>
<g id="comment">
</g>
<g id="map-marker">
</g>
<g id="earth">
</g>
<g id="heart">
</g>
<g id="twitter">
</g>
<g id="bucket">
</g>
<g id="paperclip">
</g>
<g id="undo">
</g>
<g id="redo">
</g>
<g id="chevron-left">
</g>
<g id="chevron-right">
</g>
<g id="cross">
</g>
<g id="search">
</g>
<g id="hamburger">
</g>
</svg>
