<?xml version="1.0" encoding="utf-8"?>
<!-- Generator: Adobe Illustrator 16.0.0, SVG Export Plug-In . SVG Version: 6.00 Build 0)  -->
<!DOCTYPE svg PUBLIC "-//W3C//DTD SVG 1.1//EN" "http://www.w3.org/Graphics/SVG/1.1/DTD/svg11.dtd">
<svg version="1.1" xmlns="http://www.w3.org/2000/svg" xmlns:xlink="http://www.w3.org/1999/xlink" x="0px" y="0px" width="64px"
	 height="64px" viewBox="0 0 64 64" enable-background="new 0 0 64 64" xml:space="preserve">
<g id="eye">
	<g>
		<path fill="#1D1D1B" d="M58.969,31.772c-8.087,9.937-16.384,15.509-24.675,16.541c-1.104,0.137-1.888,1.143-1.75,2.248
			c0.127,1.019,0.995,1.766,1.996,1.766c0.083,0,0.167-0.005,0.252-0.016c9.729-1.21,19.267-7.702,28.352-19.296
			c0.046-0.059,0.059-0.132,0.098-0.194c0.057-0.089,0.097-0.18,0.139-0.275c0.059-0.139,0.109-0.273,0.136-0.42
			c0.023-0.122,0.025-0.241,0.025-0.366c0-0.123-0.002-0.24-0.025-0.36c-0.026-0.147-0.078-0.284-0.138-0.425
			c-0.042-0.095-0.081-0.183-0.136-0.271c-0.04-0.064-0.051-0.136-0.099-0.196c-3.539-4.517-7.186-8.301-10.838-11.25
			c-0.864-0.694-2.132-0.563-2.833,0.303c-0.698,0.866-0.562,2.133,0.303,2.833C52.851,24.876,55.938,28.048,58.969,31.772z"/>
		<path fill="#1D1D1B" d="M0.042,31.93c0.04,0.431,0.213,0.828,0.513,1.157c2.141,3.783,10.433,13.904,21.602,17.815l-1.152,2.062
			c-0.543,0.971-0.195,2.198,0.777,2.74c0.311,0.174,0.647,0.256,0.98,0.256c0.706,0,1.392-0.372,1.761-1.033l23.839-42.694
			c0.543-0.971,0.195-2.198-0.777-2.74c-0.971-0.547-2.2-0.196-2.741,0.777l-1.816,3.254c-10.137-4.415-20.622-2.979-30.432,4.221
			C4.972,23.34,0.496,30.38,0.309,30.677c-0.04,0.062-0.043,0.133-0.075,0.198c-0.049,0.097-0.081,0.195-0.114,0.299
			c-0.044,0.147-0.079,0.29-0.089,0.44C0.027,31.669,0,31.715,0,31.771C0,31.807,0.031,31.881,0.042,31.93z M31.786,17.206
			c2.827,0,5.509,0.938,7.705,2.649L27.384,41.536c-4.826-1.81-8.169-6.473-8.169-11.759C19.215,22.845,24.854,17.206,31.786,17.206
			z M20.306,17.816c-3.148,3.023-5.12,7.262-5.12,11.961c0,6.769,4.149,12.777,10.213,15.314l-1.236,2.213
			C13.945,44.046,6.671,34.866,4.45,31.759C6.39,29.054,12.117,21.813,20.306,17.816z"/>
	</g>
</g>
<g id="comment">
</g>
<g id="map-marker">
</g>
<g id="earth">
</g>
<g id="heart">
</g>
<g id="twitter">
</g>
<g id="bucket">
</g>
<g id="paperclip">
</g>
<g id="undo">
</g>
<g id="redo">
</g>
<g id="chevron-left">
</g>
<g id="chevron-right">
</g>
<g id="cross">
</g>
<g id="search">
</g>
<g id="hamburger">
</g>
</svg>
