<?xml version="1.0" encoding="utf-8"?>
<!-- Generator: Adobe Illustrator 16.0.0, SVG Export Plug-In . SVG Version: 6.00 Build 0)  -->
<!DOCTYPE svg PUBLIC "-//W3C//DTD SVG 1.1//EN" "http://www.w3.org/Graphics/SVG/1.1/DTD/svg11.dtd">
<svg version="1.1" xmlns="http://www.w3.org/2000/svg" xmlns:xlink="http://www.w3.org/1999/xlink" x="0px" y="0px" width="64px"
	 height="64px" viewBox="0 0 64 64" enable-background="new 0 0 64 64" xml:space="preserve">
<g id="eye">
	<path fill="#1D1D1B" d="M0.022,32.384c0.017,0.087,0.064,0.164,0.095,0.247c0.048,0.15,0.079,0.305,0.167,0.444
		c0.484,0.77,12.067,18.869,29.97,19.793c0.472,0.023,0.942,0.036,1.414,0.036c10.969,0,21.706-6.606,31.931-19.657
		c0.047-0.061,0.06-0.133,0.099-0.197c0.056-0.089,0.097-0.179,0.139-0.275c0.059-0.142,0.111-0.277,0.137-0.426
		c0.024-0.121,0.025-0.24,0.026-0.365c-0.001-0.125-0.002-0.244-0.026-0.365c-0.026-0.149-0.078-0.285-0.137-0.427
		c-0.042-0.096-0.083-0.186-0.139-0.275c-0.039-0.063-0.051-0.136-0.099-0.197C52.935,17.109,41.712,10.525,30.254,11.099
		C12.351,12.023,0.768,30.122,0.284,30.892c-0.088,0.14-0.119,0.294-0.167,0.443c-0.031,0.083-0.078,0.161-0.095,0.247
		c-0.027,0.134-0.014,0.266-0.013,0.401C0.008,32.119-0.005,32.25,0.022,32.384z M32.002,17.317c6.985,0,12.667,5.683,12.667,12.668
		c0,6.985-5.682,12.667-12.667,12.667c-6.986,0-12.667-5.682-12.667-12.667C19.335,23,25.017,17.317,32.002,17.317z M20.507,17.865
		c-3.215,3.05-5.232,7.35-5.232,12.121c0,9.223,7.505,16.728,16.728,16.728c9.222,0,16.727-7.505,16.727-16.728
		c0-4.426-1.739-8.444-4.556-11.438c5.116,2.784,10.207,7.271,15.224,13.437c-9.479,11.65-19.213,17.332-28.914,16.83
		C16.997,48.129,7.127,35.706,4.461,31.983C6.412,29.257,12.23,21.905,20.507,17.865z"/>
</g>
<g id="comment">
</g>
<g id="map-marker">
</g>
<g id="earth">
</g>
<g id="heart">
</g>
<g id="twitter">
</g>
<g id="bucket">
</g>
<g id="paperclip">
</g>
<g id="undo">
</g>
<g id="redo">
</g>
<g id="chevron-left">
</g>
<g id="chevron-right">
</g>
<g id="cross">
</g>
<g id="search">
</g>
<g id="hamburger">
</g>
</svg>
