<?xml version="1.0" encoding="utf-8"?>
<!-- Generator: Adobe Illustrator 16.0.0, SVG Export Plug-In . SVG Version: 6.00 Build 0)  -->
<!DOCTYPE svg PUBLIC "-//W3C//DTD SVG 1.1//EN" "http://www.w3.org/Graphics/SVG/1.1/DTD/svg11.dtd">
<svg version="1.1" xmlns="http://www.w3.org/2000/svg" xmlns:xlink="http://www.w3.org/1999/xlink" x="0px" y="0px" width="64px"
	 height="64px" viewBox="0 0 64 64" enable-background="new 0 0 64 64" xml:space="preserve">
<g id="eye">
	<path fill="#1D1D1B" d="M50.25,2.012C49.993,1.93,43.884,0,37.614,0c-9.04,0-14.093,4.098-14.224,11.574v13.033H15.52
		c-0.535,0-1.049,0.215-1.426,0.596c-0.375,0.383-0.582,0.898-0.574,1.434l0.176,11.881c0.016,1.094,0.906,1.971,2,1.971h7.695
		v21.511c0,1.105,0.895,2,2,2h11.673c1.104,0,2-0.895,2-2V40.488h5.906c0.914,0,1.712-0.619,1.938-1.506l3.034-11.881
		c0.153-0.598,0.021-1.232-0.358-1.721s-0.962-0.773-1.579-0.773h-8.945l-0.003-7.824c0.205-0.25,1.061-0.76,3.198-0.76
		c1.813,0,4.132,0.359,6.888,1.072c0.599,0.148,1.236,0.023,1.725-0.357c0.489-0.377,0.775-0.961,0.775-1.58V3.916
		C51.642,3.047,51.079,2.275,50.25,2.012z M47.642,12.643c-2.037-0.412-3.843-0.619-5.388-0.619c-6.849,0-7.18,4.156-7.194,4.455
		v10.129c0,1.105,0.896,2,2,2h8.369l-2.013,7.881h-6.353c-1.104,0-2,0.895-2,2v21.511h-7.673V38.488c0-1.105-0.896-2-2-2h-7.725
		l-0.117-7.881h7.842c1.104,0,2-0.895,2-2V11.609C27.448,8.342,28.571,4,37.614,4c3.964,0,7.979,0.893,10.027,1.43V12.643z"/>
</g>
<g id="comment">
</g>
<g id="map-marker">
</g>
<g id="earth">
</g>
<g id="heart">
</g>
<g id="twitter">
</g>
<g id="bucket">
</g>
<g id="paperclip">
</g>
<g id="undo">
</g>
<g id="redo">
</g>
<g id="chevron-left">
</g>
<g id="chevron-right">
</g>
<g id="cross">
</g>
<g id="search">
</g>
<g id="hamburger">
</g>
</svg>
