<?xml version="1.0" encoding="utf-8"?>
<!-- Generator: Adobe Illustrator 16.0.0, SVG Export Plug-In . SVG Version: 6.00 Build 0)  -->
<!DOCTYPE svg PUBLIC "-//W3C//DTD SVG 1.1//EN" "http://www.w3.org/Graphics/SVG/1.1/DTD/svg11.dtd">
<svg version="1.1" xmlns="http://www.w3.org/2000/svg" xmlns:xlink="http://www.w3.org/1999/xlink" x="0px" y="0px" width="64px"
	 height="64px" viewBox="0 0 64 64" enable-background="new 0 0 64 64" xml:space="preserve">
<g id="eye">
	<g>
		<path fill="#1D1D1B" d="M3.852,63.965h56.217c1.105,0,2-0.896,2-2V2.096c0-1.104-0.895-2-2-2H3.852c-1.105,0-2,0.896-2,2v59.869
			C1.852,63.069,2.746,63.965,3.852,63.965z M24.645,10.079V4.096h14.758v5.983H24.645z M57.83,14.079
			c0.084,0,0.156-0.038,0.237-0.047v35.303c-0.081-0.01-0.153-0.048-0.237-0.048H6.001c-0.053,0-0.098,0.027-0.148,0.031V14.049
			c0.051,0.005,0.096,0.03,0.148,0.03H57.83z M39.342,53.288v6.676H24.584v-6.676H39.342z M5.853,53.258
			c0.051,0.004,0.096,0.03,0.148,0.03h14.583v6.676H5.853V53.258z M43.343,59.964v-6.676H57.83c0.084,0,0.156-0.039,0.237-0.048
			v6.725H43.343z M58.067,10.127c-0.081-0.01-0.153-0.048-0.237-0.048H43.402V4.096h14.665V10.127z M20.644,4.096v5.983H6.001
			c-0.053,0-0.098,0.025-0.148,0.03V4.096H20.644z"/>
		<path fill="#1D1D1B" d="M21.818,45.891c0.297,0.161,0.623,0.239,0.947,0.239c0.385,0,0.771-0.111,1.103-0.331l18.576-12.263
			c0.561-0.37,0.898-0.998,0.898-1.669c0-0.672-0.338-1.299-0.898-1.67L23.868,17.933c-0.614-0.406-1.403-0.442-2.05-0.093
			c-0.648,0.349-1.053,1.025-1.053,1.762V44.13C20.766,44.866,21.17,45.542,21.818,45.891z M24.766,23.32l12.944,8.547
			l-12.944,8.545V23.32z"/>
	</g>
</g>
<g id="comment">
</g>
<g id="map-marker">
</g>
<g id="earth">
</g>
<g id="heart">
</g>
<g id="twitter">
</g>
<g id="bucket">
</g>
<g id="paperclip">
</g>
<g id="undo">
</g>
<g id="redo">
</g>
<g id="chevron-left">
</g>
<g id="chevron-right">
</g>
<g id="cross">
</g>
<g id="search">
</g>
<g id="hamburger">
</g>
</svg>
