<?xml version="1.0" encoding="utf-8"?>
<!-- Generator: Adobe Illustrator 16.0.0, SVG Export Plug-In . SVG Version: 6.00 Build 0)  -->
<!DOCTYPE svg PUBLIC "-//W3C//DTD SVG 1.1//EN" "http://www.w3.org/Graphics/SVG/1.1/DTD/svg11.dtd">
<svg version="1.1" xmlns="http://www.w3.org/2000/svg" xmlns:xlink="http://www.w3.org/1999/xlink" x="0px" y="0px" width="64px"
	 height="64px" viewBox="0 0 64 64" enable-background="new 0 0 64 64" xml:space="preserve">
<g id="eye">
	<g>
		<path fill="#1D1D1B" d="M6.112,63.923c1.168,0,2.113-0.946,2.113-2.113V2.113C8.226,0.946,7.28,0,6.112,0
			C4.947,0,3.999,0.946,3.999,2.113V61.81C3.999,62.977,4.947,63.923,6.112,63.923z"/>
		<path fill="#1D1D1B" d="M29.902,3.054c-9.27-5.429-16.373-1.64-18.835,1.121c-0.776,0.872-0.7,2.207,0.171,2.983
			c0.871,0.776,2.206,0.698,2.984-0.171c0.048-0.053,4.912-5.34,13.521-0.301c0.754,0.456,16.814,9.972,29.329,3.942
			c-0.858,3.598-2.807,8.593-7.223,11.769c-5.32,3.828-13.053,4.235-22.869,1.242c-0.455-0.162-11.194-3.922-16.312,2.273
			c-0.743,0.899-0.619,2.232,0.28,2.976c0.9,0.742,2.233,0.617,2.976-0.283c2.682-3.244,9.308-1.812,11.726-0.955
			c4.775,1.457,9.139,2.185,13.076,2.185c5.349,0,9.904-1.345,13.624-4.029c9.208-6.65,9.6-18.948,9.612-19.469
			c0.02-0.836-0.456-1.606-1.214-1.961c-0.756-0.357-1.653-0.232-2.284,0.316C48.02,13.762,30.105,3.175,29.902,3.054z"/>
	</g>
</g>
<g id="comment">
</g>
<g id="map-marker">
</g>
<g id="earth">
</g>
<g id="heart">
</g>
<g id="twitter">
</g>
<g id="bucket">
</g>
<g id="paperclip">
</g>
<g id="undo">
</g>
<g id="redo">
</g>
<g id="chevron-left">
</g>
<g id="chevron-right">
</g>
<g id="cross">
</g>
<g id="search">
</g>
<g id="hamburger">
</g>
</svg>
