<?xml version="1.0" encoding="utf-8"?>
<!-- Generator: Adobe Illustrator 16.0.0, SVG Export Plug-In . SVG Version: 6.00 Build 0)  -->
<!DOCTYPE svg PUBLIC "-//W3C//DTD SVG 1.1//EN" "http://www.w3.org/Graphics/SVG/1.1/DTD/svg11.dtd">
<svg version="1.1" xmlns="http://www.w3.org/2000/svg" xmlns:xlink="http://www.w3.org/1999/xlink" x="0px" y="0px" width="64px"
	 height="64px" viewBox="0 0 64 64" enable-background="new 0 0 64 64" xml:space="preserve">
<g id="eye">
	<path fill="#1D1D1B" d="M51.311,11.226c-0.361-0.687-1.072-1.053-1.799-1.042c-0.82-0.019-1.607,0.455-1.918,1.268l-2.954,7.805
		c-0.389,1.031,0.131,2.182,1.162,2.572c0.231,0.089,0.47,0.131,0.705,0.131c0.806,0,1.565-0.492,1.867-1.29l1.424-3.765
		l4.174,7.899c-1.403-0.456-2.896-0.709-4.448-0.709c-6.075,0-11.276,3.782-13.398,9.111c-3.826-1.538-6.821-0.694-8.326-0.007
		c-2.124-5.325-7.323-9.104-13.397-9.104c-1.583,0-3.101,0.265-4.525,0.737l4.188-7.928l1.425,3.765
		c0.302,0.797,1.062,1.29,1.867,1.29c0.234,0,0.473-0.042,0.705-0.131c1.03-0.39,1.55-1.541,1.161-2.572l-2.954-7.805
		c-0.308-0.812-1.093-1.286-1.913-1.268c-0.729-0.013-1.44,0.354-1.804,1.042L2.141,30.934c-0.008,0.016-0.006,0.032-0.014,0.047
		c-1.354,2.198-2.151,4.774-2.151,7.541c0,7.955,6.471,14.426,14.426,14.426c7.956,0,14.427-6.471,14.427-14.426
		c0-0.452-0.027-0.898-0.068-1.341c0.106-0.05,0.216-0.088,0.315-0.159c0.025-0.015,2.421-1.622,6.094,0.114
		c-0.043,0.457-0.07,0.919-0.07,1.386c0,7.955,6.471,14.426,14.425,14.426c7.956,0,14.427-6.471,14.427-14.426
		c0-3.006-0.927-5.8-2.507-8.114L51.311,11.226z M14.401,48.957c-5.755,0-10.436-4.682-10.436-10.436s4.681-10.435,10.436-10.435
		c5.754,0,10.436,4.681,10.436,10.435S20.155,48.957,14.401,48.957z M49.523,48.957c-5.754,0-10.435-4.682-10.435-10.436
		s4.681-10.435,10.435-10.435c3.539,0,6.66,1.779,8.549,4.479l0.122,0.233c0.043,0.083,0.105,0.146,0.158,0.22
		c1.004,1.602,1.607,3.478,1.607,5.502C59.96,44.275,55.277,48.957,49.523,48.957z"/>
</g>
<g id="comment">
</g>
<g id="map-marker">
</g>
<g id="earth">
</g>
<g id="heart">
</g>
<g id="twitter">
</g>
<g id="bucket">
</g>
<g id="paperclip">
</g>
<g id="undo">
</g>
<g id="redo">
</g>
<g id="chevron-left">
</g>
<g id="chevron-right">
</g>
<g id="cross">
</g>
<g id="search">
</g>
<g id="hamburger">
</g>
</svg>
