<?xml version="1.0" encoding="utf-8"?>
<!-- Generator: Adobe Illustrator 16.0.0, SVG Export Plug-In . SVG Version: 6.00 Build 0)  -->
<!DOCTYPE svg PUBLIC "-//W3C//DTD SVG 1.1//EN" "http://www.w3.org/Graphics/SVG/1.1/DTD/svg11.dtd">
<svg version="1.1" xmlns="http://www.w3.org/2000/svg" xmlns:xlink="http://www.w3.org/1999/xlink" x="0px" y="0px" width="64px"
	 height="64px" viewBox="0 0 64 64" enable-background="new 0 0 64 64" xml:space="preserve">
<g id="eye">
	<g>
		<path fill="#1D1D1B" d="M62.189,26.553h-4.323v-4.321c0-0.943-0.764-1.708-1.709-1.708c-0.943,0-1.707,0.765-1.707,1.708v4.321
			h-4.32c-0.944,0-1.708,0.766-1.708,1.709s0.764,1.708,1.708,1.708h4.32v4.321c0,0.944,0.764,1.709,1.707,1.709
			c0.945,0,1.709-0.765,1.709-1.709V29.97h4.323c0.944,0,1.708-0.765,1.708-1.708S63.134,26.553,62.189,26.553z"/>
		<path fill="#1D1D1B" d="M43.499,26.553c-6.467,0.009-12.929,0.016-19.398-0.005c-0.003,0-0.007,0-0.011,0
			c-0.719,0-1.302,0.217-1.731,0.649c-0.647,0.648-0.642,1.472-0.64,1.783c0.017,1.691,0.013,3.38,0.011,5.075l-0.002,2.04
			c0,1.74,0.802,2.554,2.527,2.554l2.551,0.001c2.051,0,4.106,0.003,6.171-0.005c-0.019,0.037-0.038,0.077-0.057,0.116
			c-0.583,1.22-1.5,2.303-2.8,3.308c-1.636,0.987-3.275,1.556-5.011,1.735c-3.979,0.402-7.216-0.828-9.899-3.79
			c-0.908-1.004-1.646-2.279-2.279-3.87c-0.78-2.606-0.767-5.039,0.021-7.388c0.698-1.921,1.729-3.495,3.151-4.816
			c4.114-3.83,10.436-3.988,14.392-0.364c0.787,0.721,2.046,0.96,3.103-0.167l1.323-1.324c1.357-1.362,2.712-2.72,4.093-4.072
			c0.528-0.522,0.782-1.105,0.759-1.735c-0.037-0.944-0.698-1.503-0.903-1.677C33.38,9.874,26.905,8.069,19.598,9.231
			c-5.053,0.807-9.475,3.17-13.141,7.017c-1.604,1.676-2.823,3.386-3.718,5.205c-0.224,0.423-0.494,0.952-0.561,1.093
			c-1.896,4.099-2.558,8.47-1.973,12.988c0.353,2.747,1.141,5.266,2.298,7.417c1.473,3.062,3.582,5.69,6.268,7.812
			C13.188,54.25,18.107,56,23.458,56c2.194,0,4.461-0.294,6.795-0.884c3.429-0.868,6.439-2.515,8.874-4.828
			c1.418-1.209,2.642-2.69,3.736-4.534c2.976-5.018,3.969-10.648,3.034-17.213C45.835,28.074,45.469,26.553,43.499,26.553z
			 M39.795,43.934c-0.892,1.498-1.866,2.688-3.053,3.701c-2.057,1.953-4.534,3.307-7.363,4.021
			c-6.994,1.769-13.007,0.559-18.397-3.694c-2.258-1.781-4.027-3.986-5.299-6.63c-1.002-1.863-1.636-3.908-1.937-6.255
			c-0.498-3.844,0.064-7.557,1.67-11.031c0.029-0.059,0.086-0.175,0.159-0.319c0.067-0.095,0.129-0.196,0.177-0.305
			c0.061-0.129,0.121-0.258,0.183-0.387c0.104-0.195,0.189-0.358,0.226-0.426c0.024-0.045,0.049-0.093,0.068-0.14
			c0.705-1.287,1.63-2.524,2.808-3.759c3.117-3.271,6.861-5.275,11.123-5.957c5.83-0.934,10.854,0.273,15.342,3.709
			c-1.039,1.029-2.074,2.066-3.107,3.102l-0.524,0.526c-5.331-3.977-13.072-3.533-18.196,1.237c-1.816,1.689-3.188,3.776-4.09,6.248
			c-1.031,3.073-1.054,6.301-0.021,9.732c0.842,2.146,1.796,3.765,3.002,5.1c3.456,3.815,7.815,5.476,12.913,4.944
			c2.271-0.234,4.487-1.006,6.584-2.289c0.052-0.03,0.102-0.065,0.15-0.103c1.8-1.372,3.082-2.896,3.926-4.657
			c0.374-0.78,0.619-1.555,0.839-2.285c0.094-0.312,0.377-1.255-0.263-2.106c-0.429-0.572-1.052-0.812-1.952-0.847
			c-2.65,0.021-5.303,0.018-7.953,0.018l-1.513-0.002V34.06c0.003-1.308,0.005-2.617,0-3.941c5.72,0.014,11.446,0.01,17.205,0.003
			C43.066,35.39,42.18,39.916,39.795,43.934z"/>
	</g>
</g>
<g id="comment">
</g>
<g id="map-marker">
</g>
<g id="earth">
</g>
<g id="heart">
</g>
<g id="twitter">
</g>
<g id="bucket">
</g>
<g id="paperclip">
</g>
<g id="undo">
</g>
<g id="redo">
</g>
<g id="chevron-left">
</g>
<g id="chevron-right">
</g>
<g id="cross">
</g>
<g id="search">
</g>
<g id="hamburger">
</g>
</svg>
