<?xml version="1.0" encoding="utf-8"?>
<!-- Generator: Adobe Illustrator 16.0.0, SVG Export Plug-In . SVG Version: 6.00 Build 0)  -->
<!DOCTYPE svg PUBLIC "-//W3C//DTD SVG 1.1//EN" "http://www.w3.org/Graphics/SVG/1.1/DTD/svg11.dtd">
<svg version="1.1" xmlns="http://www.w3.org/2000/svg" xmlns:xlink="http://www.w3.org/1999/xlink" x="0px" y="0px" width="64px"
	 height="64px" viewBox="0 0 64 64" enable-background="new 0 0 64 64" xml:space="preserve">
<g id="eye">
	<g>
		<path fill="#1D1D1B" d="M46.549,18.679H18.264c-1.105,0-2,0.896-2,2s0.895,2,2,2h28.285c1.105,0,2-0.896,2-2
			S47.654,18.679,46.549,18.679z"/>
		<path fill="#1D1D1B" d="M46.549,30.119H18.264c-1.105,0-2,0.896-2,2s0.895,2,2,2h28.285c1.105,0,2-0.896,2-2
			S47.654,30.119,46.549,30.119z"/>
		<path fill="#1D1D1B" d="M46.549,41.583H18.264c-1.105,0-2,0.896-2,2s0.895,2,2,2h28.285c1.105,0,2-0.896,2-2
			S47.654,41.583,46.549,41.583z"/>
		<path fill="#1D1D1B" d="M31.998,0C14.354,0,0,14.355,0,32s14.354,32,31.998,32C49.645,64,64,49.645,64,32S49.645,0,31.998,0z
			 M31.998,60C16.561,60,4,47.439,4,32S16.561,4,31.998,4C47.438,4,60,16.561,60,32S47.438,60,31.998,60z"/>
	</g>
</g>
<g id="comment">
</g>
<g id="map-marker">
</g>
<g id="earth">
</g>
<g id="heart">
</g>
<g id="twitter">
</g>
<g id="bucket">
</g>
<g id="paperclip">
</g>
<g id="undo">
</g>
<g id="redo">
</g>
<g id="chevron-left">
</g>
<g id="chevron-right">
</g>
<g id="cross">
</g>
<g id="search">
</g>
<g id="hamburger">
</g>
</svg>
