<?xml version="1.0" encoding="utf-8"?>
<!-- Generator: Adobe Illustrator 16.0.0, SVG Export Plug-In . SVG Version: 6.00 Build 0)  -->
<!DOCTYPE svg PUBLIC "-//W3C//DTD SVG 1.1//EN" "http://www.w3.org/Graphics/SVG/1.1/DTD/svg11.dtd">
<svg version="1.1" xmlns="http://www.w3.org/2000/svg" xmlns:xlink="http://www.w3.org/1999/xlink" x="0px" y="0px" width="64px"
	 height="64px" viewBox="0 0 64 64" enable-background="new 0 0 64 64" xml:space="preserve">
<g id="eye">
	<path fill="#1D1D1B" d="M30.677,63.172c0.356,0.333,0.814,0.491,1.284,0.491c0.295,0,0.596-0.063,0.881-0.187
		c0.317-0.139,0.589-0.368,0.792-0.648c2.823-2.649,27.244-25.847,29.164-37.906c0.114-0.442,2.677-10.912-2.845-17.817
		C56.807,3.17,51.79,1.239,44.996,1.44c-0.372,0.02-8.249,0.485-13.031,4.759c-4.794-4.152-12.521-4.61-12.935-4.631
		C12.283,1.39,7.271,3.299,4.124,7.233c-5.521,6.906-2.956,17.377-2.88,17.645C3.275,37.581,29.558,62.133,30.677,63.172z
		 M7.256,9.736c2.217-2.772,5.897-4.174,10.9-4.174c0.234,0,0.473,0.003,0.714,0.009c0.082,0.005,8.323,0.509,11.567,4.819
		c0.668,0.884,1.922,1.064,2.807,0.395c0.301-0.226,0.521-0.521,0.651-0.845c3.402-4.016,11.229-4.494,11.258-4.497
		C50.548,5.315,54.49,6.7,56.815,9.594c4.28,5.337,2.12,14.259,2.062,14.52c-1.425,8.907-18.819,27.06-26.905,34.772
		c-8.146-7.783-25.354-25.79-26.807-34.815C5.142,23.982,2.962,15.104,7.256,9.736z"/>
</g>
<g id="comment">
</g>
<g id="map-marker">
</g>
<g id="earth">
</g>
<g id="heart">
</g>
<g id="twitter">
</g>
<g id="bucket">
</g>
<g id="paperclip">
</g>
<g id="undo">
</g>
<g id="redo">
</g>
<g id="chevron-left">
</g>
<g id="chevron-right">
</g>
<g id="cross">
</g>
<g id="search">
</g>
<g id="hamburger">
</g>
</svg>
