<?xml version="1.0" encoding="utf-8"?>
<!-- Generator: Adobe Illustrator 16.0.0, SVG Export Plug-In . SVG Version: 6.00 Build 0)  -->
<!DOCTYPE svg PUBLIC "-//W3C//DTD SVG 1.1//EN" "http://www.w3.org/Graphics/SVG/1.1/DTD/svg11.dtd">
<svg version="1.1" xmlns="http://www.w3.org/2000/svg" xmlns:xlink="http://www.w3.org/1999/xlink" x="0px" y="0px" width="64px"
	 height="64px" viewBox="0 0 64 64" enable-background="new 0 0 64 64" xml:space="preserve">
<g id="eye">
	<g>
		<circle fill="#1D1D1B" cx="33.301" cy="12.434" r="2.25"/>
		<path fill="#1D1D1B" d="M32,0C14.355,0,0,14.355,0,32s14.355,32,32,32s32-14.355,32-32S49.645,0,32,0z M32,60
			C16.561,60,4,47.439,4,32S16.561,4,32,4s28,12.561,28,28S47.439,60,32,60z"/>
		<path fill="#1D1D1B" d="M36.691,47.554c-4.176,4.728-7.225,3.191-7.312,3.146c-0.094-0.056-0.193-0.104-0.295-0.144
			c-0.27-0.105-0.67-0.337-1.016-1.126c-2.43-5.55,3.109-22.257,5.447-28.227c0.258-0.657,0.15-1.401-0.283-1.959
			c-0.436-0.557-1.137-0.85-1.83-0.755l-4.07,0.519c-1.096,0.14-1.871,1.142-1.732,2.237c0.141,1.095,1.162,1.869,2.236,1.731
			l0.793-0.102c-2.381,6.691-7.082,21.63-4.225,28.158c0.67,1.529,1.746,2.636,3.117,3.205c0.447,0.225,1.646,0.732,3.328,0.732
			c2.281,0,5.449-0.934,8.838-4.77c0.732-0.828,0.654-2.092-0.174-2.823C38.688,46.648,37.424,46.726,36.691,47.554z"/>
	</g>
</g>
<g id="comment">
</g>
<g id="map-marker">
</g>
<g id="earth">
</g>
<g id="heart">
</g>
<g id="twitter">
</g>
<g id="bucket">
</g>
<g id="paperclip">
</g>
<g id="undo">
</g>
<g id="redo">
</g>
<g id="chevron-left">
</g>
<g id="chevron-right">
</g>
<g id="cross">
</g>
<g id="search">
</g>
<g id="hamburger">
</g>
</svg>
