<?xml version="1.0" encoding="utf-8"?>
<!-- Generator: Adobe Illustrator 16.0.0, SVG Export Plug-In . SVG Version: 6.00 Build 0)  -->
<!DOCTYPE svg PUBLIC "-//W3C//DTD SVG 1.1//EN" "http://www.w3.org/Graphics/SVG/1.1/DTD/svg11.dtd">
<svg version="1.1" xmlns="http://www.w3.org/2000/svg" xmlns:xlink="http://www.w3.org/1999/xlink" x="0px" y="0px" width="64px"
	 height="64px" viewBox="0 0 64 64" enable-background="new 0 0 64 64" xml:space="preserve">
<g id="eye">
	<path fill="#1D1D1B" d="M61.642,0.026L21.674,6.749C10.385,8.447,3.411,12.254,0.952,18.066C-1.804,24.58,2.17,31.01,3.453,32.824
		c1.324,1.874,2.56,3.056,2.642,3.133l2.683,2.452C-0.243,51.031,1.321,61.602,1.44,62.312C1.608,63.303,2.465,64,3.434,64
		c0.108,0,0.221-0.01,0.334-0.028c1.1-0.183,1.844-1.228,1.666-2.334c-0.103-0.642-1.438-10.301,7.404-21.929
		c0.067-0.056,0.146-0.085,0.206-0.151c0.128-0.141,0.2-0.31,0.281-0.473c5.476-6.953,14.61-14.555,29.834-21.329
		c1.022-0.455,1.483-1.655,1.03-2.684c-0.453-1.025-1.647-1.497-2.671-1.036c-14.876,6.619-24.287,14.096-30.24,21.158l-2.428-2.22
		c-0.011-0.008-1.017-0.978-2.096-2.508c-0.978-1.381-4.012-6.239-2.078-10.808c1.847-4.359,7.93-7.433,17.632-8.892l37.413-6.293
		c-0.836,6.877-4.553,26.267-20.494,38.393c-0.072,0.052-0.146,0.118-0.208,0.181c-0.344,0.342-8.627,8.312-20.186-1.5
		c-0.854-0.729-2.134-0.616-2.853,0.24c-0.721,0.858-0.614,2.142,0.24,2.867c5.201,4.419,9.966,5.836,13.941,5.836
		c6.416,0,10.775-3.698,11.587-4.441C62.734,30.026,63.957,3.243,63.998,2.109c0.023-0.612-0.229-1.2-0.686-1.604
		C62.855,0.1,62.24-0.069,61.642,0.026z"/>
</g>
<g id="comment">
</g>
<g id="map-marker">
</g>
<g id="earth">
</g>
<g id="heart">
</g>
<g id="twitter">
</g>
<g id="bucket">
</g>
<g id="paperclip">
</g>
<g id="undo">
</g>
<g id="redo">
</g>
<g id="chevron-left">
</g>
<g id="chevron-right">
</g>
<g id="cross">
</g>
<g id="search">
</g>
<g id="hamburger">
</g>
</svg>
