<?xml version="1.0" encoding="utf-8"?>
<!-- Generator: Adobe Illustrator 16.0.0, SVG Export Plug-In . SVG Version: 6.00 Build 0)  -->
<!DOCTYPE svg PUBLIC "-//W3C//DTD SVG 1.1//EN" "http://www.w3.org/Graphics/SVG/1.1/DTD/svg11.dtd">
<svg version="1.1" xmlns="http://www.w3.org/2000/svg" xmlns:xlink="http://www.w3.org/1999/xlink" x="0px" y="0px" width="64px"
	 height="64px" viewBox="0 0 64 64" enable-background="new 0 0 64 64" xml:space="preserve">
<g id="eye">
	<g>
		<path fill="#1D1D1B" d="M60.135,3.875c-5.156-5.166-13.545-5.168-18.697,0L29.862,15.494c-0.788,0.791-0.788,2.074,0,2.865
			c0.79,0.792,2.067,0.792,2.856,0L44.294,6.741c3.578-3.589,9.401-3.587,12.984,0c3.578,3.591,3.578,9.435,0,13.024L41.986,35.104
			c-1.732,1.739-4.038,2.697-6.49,2.697c-2.451,0-4.758-0.959-6.492-2.697c-0.789-0.792-2.067-0.792-2.857,0
			c-0.788,0.791-0.788,2.074,0,2.865c2.499,2.505,5.818,3.885,9.35,3.885s6.848-1.381,9.347-3.885l15.292-15.338
			C65.288,17.461,65.288,9.047,60.135,3.875z"/>
		<path fill="#1D1D1B" d="M31.015,45.904L19.703,57.25c-1.732,1.739-4.039,2.697-6.491,2.697c-2.451,0-4.759-0.958-6.489-2.697
			c-3.578-3.591-3.578-9.434,0-13.023l15.289-15.338c3.582-3.588,9.406-3.588,12.983,0c0.789,0.793,2.067,0.793,2.856,0
			c0.789-0.791,0.789-2.072,0-2.864c-5.152-5.17-13.541-5.17-18.697,0L3.866,41.361c-5.155,5.17-5.155,13.584,0,18.754
			C6.363,62.621,9.682,64,13.212,64c3.531,0,6.853-1.379,9.348-3.885L33.87,48.77c0.79-0.791,0.79-2.074,0-2.865
			C33.082,45.113,31.803,45.113,31.015,45.904z"/>
	</g>
</g>
<g id="comment">
</g>
<g id="map-marker">
</g>
<g id="earth">
</g>
<g id="heart">
</g>
<g id="twitter">
</g>
<g id="bucket">
</g>
<g id="paperclip">
</g>
<g id="undo">
</g>
<g id="redo">
</g>
<g id="chevron-left">
</g>
<g id="chevron-right">
</g>
<g id="cross">
</g>
<g id="search">
</g>
<g id="hamburger">
</g>
</svg>
