<?xml version="1.0" encoding="utf-8"?>
<!-- Generator: Adobe Illustrator 16.0.0, SVG Export Plug-In . SVG Version: 6.00 Build 0)  -->
<!DOCTYPE svg PUBLIC "-//W3C//DTD SVG 1.1//EN" "http://www.w3.org/Graphics/SVG/1.1/DTD/svg11.dtd">
<svg version="1.1" xmlns="http://www.w3.org/2000/svg" xmlns:xlink="http://www.w3.org/1999/xlink" x="0px" y="0px" width="64px"
	 height="64px" viewBox="0 0 64 64" enable-background="new 0 0 64 64" xml:space="preserve">
<g id="eye">
	<g>
		<path fill="#1D1D1B" d="M15.068,10.225h45.851c1.128,0,2.041-0.913,2.041-2.041c0-1.126-0.913-2.04-2.041-2.04H15.068
			c-1.128,0-2.04,0.914-2.04,2.04C13.028,9.312,13.94,10.225,15.068,10.225z"/>
		<path fill="#1D1D1B" d="M60.919,30.03H15.068c-1.128,0-2.04,0.914-2.04,2.04s0.912,2.041,2.04,2.041h45.851
			c1.128,0,2.041-0.915,2.041-2.041S62.047,30.03,60.919,30.03z"/>
		<path fill="#1D1D1B" d="M60.919,53.965H15.068c-1.128,0-2.04,0.912-2.04,2.04c0,1.126,0.912,2.041,2.04,2.041h45.851
			c1.128,0,2.041-0.915,2.041-2.041C62.96,54.877,62.047,53.965,60.919,53.965z"/>
		<path fill="#1D1D1B" d="M4.577,12.468c2.413,0,4.366-1.956,4.366-4.369c0-2.414-1.953-4.366-4.366-4.366
			c-2.415,0-4.368,1.952-4.368,4.366C0.209,10.512,2.162,12.468,4.577,12.468z"/>
		<path fill="#1D1D1B" d="M4.577,36.329c2.413,0,4.366-1.955,4.366-4.368s-1.953-4.368-4.366-4.368
			c-2.415,0-4.368,1.955-4.368,4.368S2.162,36.329,4.577,36.329z"/>
		<path fill="#1D1D1B" d="M4.577,51.633c-2.417,0-4.37,1.957-4.37,4.37c0,2.416,1.953,4.37,4.37,4.37
			c2.413,0,4.368-1.954,4.368-4.37C8.945,53.59,6.99,51.633,4.577,51.633z"/>
	</g>
</g>
<g id="comment">
</g>
<g id="map-marker">
</g>
<g id="earth">
</g>
<g id="heart">
</g>
<g id="twitter">
</g>
<g id="bucket">
</g>
<g id="paperclip">
</g>
<g id="undo">
</g>
<g id="redo">
</g>
<g id="chevron-left">
</g>
<g id="chevron-right">
</g>
<g id="cross">
</g>
<g id="search">
</g>
<g id="hamburger">
</g>
</svg>
