<?xml version="1.0" encoding="utf-8"?>
<!-- Generator: Adobe Illustrator 16.0.0, SVG Export Plug-In . SVG Version: 6.00 Build 0)  -->
<!DOCTYPE svg PUBLIC "-//W3C//DTD SVG 1.1//EN" "http://www.w3.org/Graphics/SVG/1.1/DTD/svg11.dtd">
<svg version="1.1" xmlns="http://www.w3.org/2000/svg" xmlns:xlink="http://www.w3.org/1999/xlink" x="0px" y="0px" width="64px"
	 height="64px" viewBox="0 0 64 64" enable-background="new 0 0 64 64" xml:space="preserve">
<g id="eye">
	<path fill="#1D1D1B" d="M63.47,2.352c-0.576-0.623-1.486-0.812-2.264-0.477L1.205,27.899c-0.871,0.377-1.355,1.311-1.164,2.24
		c0.193,0.928,1.01,1.592,1.957,1.594l28.068,0.029v28.279c0,0.918,0.625,1.719,1.516,1.941c0.162,0.039,0.324,0.059,0.484,0.059
		c0.727,0,1.415-0.396,1.767-1.061L63.767,4.647C64.165,3.897,64.046,2.977,63.47,2.352z M34.067,52.016V29.764
		c0-1.104-0.895-1.998-1.999-2l-20.453-0.021L57.552,7.819L34.067,52.016z"/>
</g>
<g id="comment">
</g>
<g id="map-marker">
</g>
<g id="earth">
</g>
<g id="heart">
</g>
<g id="twitter">
</g>
<g id="bucket">
</g>
<g id="paperclip">
</g>
<g id="undo">
</g>
<g id="redo">
</g>
<g id="chevron-left">
</g>
<g id="chevron-right">
</g>
<g id="cross">
</g>
<g id="search">
</g>
<g id="hamburger">
</g>
</svg>
