<?xml version="1.0" encoding="utf-8"?>
<!-- Generator: Adobe Illustrator 16.0.0, SVG Export Plug-In . SVG Version: 6.00 Build 0)  -->
<!DOCTYPE svg PUBLIC "-//W3C//DTD SVG 1.1//EN" "http://www.w3.org/Graphics/SVG/1.1/DTD/svg11.dtd">
<svg version="1.1" xmlns="http://www.w3.org/2000/svg" xmlns:xlink="http://www.w3.org/1999/xlink" x="0px" y="0px" width="64px"
	 height="64px" viewBox="0 0 64 64" enable-background="new 0 0 64 64" xml:space="preserve">
<g id="eye">
	<g>
		<path fill="#1D1D1B" d="M50.559,8.143c-4.158-4.668-10.428-7.035-18.701-7.035c-8.213,0-14.473,2.368-18.602,7.037
			c-6.288,7.11-5.17,16.856-5.126,17.216C9.699,41.693,24.626,58.7,29.732,63.369c0.365,0.335,0.842,0.52,1.338,0.52h1.332
			c0.516,0,1.012-0.201,1.382-0.562c13.132-12.769,20.74-25.891,22.002-37.927C55.834,24.989,56.885,15.248,50.559,8.143z
			 M51.844,24.964c-1.144,10.913-8.097,22.941-20.12,34.829c-4.727-4.622-18.246-20.247-19.649-34.86
			c-0.01-0.083-0.933-8.437,4.175-14.185c3.345-3.765,8.596-5.673,15.67-5.673c7.014,0,12.281,1.911,15.654,5.681
			C52.721,16.509,51.855,24.863,51.844,24.964z"/>
		<path fill="#1D1D1B" d="M32.042,15.174c-5.513,0-9.999,4.484-9.999,9.997c0,5.513,4.485,9.999,9.999,9.999
			s9.999-4.485,9.999-9.999C42.04,19.658,37.555,15.174,32.042,15.174z M32.042,31.203c-3.327,0-6.032-2.705-6.032-6.032
			c0-3.325,2.706-6.031,6.032-6.031c3.326,0,6.032,2.706,6.032,6.031C38.074,28.498,35.368,31.203,32.042,31.203z"/>
	</g>
</g>
<g id="comment">
</g>
<g id="map-marker">
</g>
<g id="earth">
</g>
<g id="heart">
</g>
<g id="twitter">
</g>
<g id="bucket">
</g>
<g id="paperclip">
</g>
<g id="undo">
</g>
<g id="redo">
</g>
<g id="chevron-left">
</g>
<g id="chevron-right">
</g>
<g id="cross">
</g>
<g id="search">
</g>
<g id="hamburger">
</g>
</svg>
