<?xml version="1.0" encoding="utf-8"?>
<!-- Generator: Adobe Illustrator 16.0.0, SVG Export Plug-In . SVG Version: 6.00 Build 0)  -->
<!DOCTYPE svg PUBLIC "-//W3C//DTD SVG 1.1//EN" "http://www.w3.org/Graphics/SVG/1.1/DTD/svg11.dtd">
<svg version="1.1" xmlns="http://www.w3.org/2000/svg" xmlns:xlink="http://www.w3.org/1999/xlink" x="0px" y="0px" width="64px"
	 height="64px" viewBox="0 0 64 64" enable-background="new 0 0 64 64" xml:space="preserve">
<g id="eye">
	<g>
		<path fill="#1D1D1B" d="M43.18,37.155V11.697c0-6.236-5.074-11.311-11.311-11.311c-6.237,0-11.312,5.074-11.312,11.311v25.458
			c0,6.237,5.074,11.312,11.312,11.312C38.105,48.467,43.18,43.393,43.18,37.155z M24.582,37.155V11.697
			c0-4.018,3.27-7.287,7.287-7.287c4.016,0,7.285,3.27,7.285,7.287v25.458c0,4.018-3.27,7.286-7.285,7.286
			C27.852,44.441,24.582,41.173,24.582,37.155z"/>
		<path fill="#1D1D1B" d="M31.869,64c1.111,0,2.011-0.9,2.011-2.012V55.52c11.677-1.024,20.87-10.842,20.87-22.779
			c0-1.112-0.9-2.014-2.013-2.014s-2.013,0.901-2.013,2.014c0,10.397-8.457,18.855-18.855,18.855
			c-10.399,0-18.857-8.458-18.857-18.855c0-1.112-0.9-2.014-2.012-2.014c-1.113,0-2.014,0.901-2.014,2.014
			c0,11.938,9.192,21.755,20.87,22.779v6.469C29.856,63.1,30.757,64,31.869,64z"/>
	</g>
</g>
<g id="comment">
</g>
<g id="map-marker">
</g>
<g id="earth">
</g>
<g id="heart">
</g>
<g id="twitter">
</g>
<g id="bucket">
</g>
<g id="paperclip">
</g>
<g id="undo">
</g>
<g id="redo">
</g>
<g id="chevron-left">
</g>
<g id="chevron-right">
</g>
<g id="cross">
</g>
<g id="search">
</g>
<g id="hamburger">
</g>
</svg>
