<?xml version="1.0" encoding="utf-8"?>
<!-- Generator: Adobe Illustrator 16.0.0, SVG Export Plug-In . SVG Version: 6.00 Build 0)  -->
<!DOCTYPE svg PUBLIC "-//W3C//DTD SVG 1.1//EN" "http://www.w3.org/Graphics/SVG/1.1/DTD/svg11.dtd">
<svg version="1.1" xmlns="http://www.w3.org/2000/svg" xmlns:xlink="http://www.w3.org/1999/xlink" x="0px" y="0px" width="64px"
	 height="64px" viewBox="0 0 64 64" enable-background="new 0 0 64 64" xml:space="preserve">
<g id="eye">
	<path fill="#1D1D1B" d="M58.95,54.978c-0.019-0.138-0.033-0.271-0.08-0.404c-0.049-0.14-0.125-0.258-0.203-0.382
		c-0.046-0.072-0.063-0.155-0.118-0.225c-0.023-0.025-0.052-0.037-0.076-0.061c-0.094-0.106-0.211-0.188-0.326-0.271
		c-0.101-0.073-0.193-0.152-0.304-0.203c-0.105-0.052-0.218-0.069-0.333-0.101c-0.144-0.039-0.282-0.081-0.433-0.087
		c-0.03-0.002-0.059-0.02-0.092-0.02c-16.316,0-30.631-12.55-30.631-26.857c0-9.17,4.763-17.64,12.741-22.653
		c0.041-0.025,0.062-0.069,0.1-0.097c0.15-0.108,0.281-0.229,0.396-0.374c0.053-0.069,0.098-0.138,0.141-0.213
		c0.085-0.142,0.152-0.287,0.199-0.448c0.032-0.103,0.048-0.201,0.061-0.306c0.015-0.089,0.054-0.167,0.054-0.26
		c0-0.067-0.031-0.124-0.037-0.189c-0.01-0.114-0.037-0.223-0.069-0.337c-0.039-0.147-0.086-0.283-0.158-0.415
		c-0.022-0.045-0.024-0.097-0.053-0.142c-0.039-0.062-0.1-0.095-0.143-0.152c-0.085-0.106-0.174-0.205-0.278-0.292
		c-0.108-0.091-0.218-0.163-0.341-0.229c-0.097-0.053-0.193-0.099-0.302-0.134c-0.155-0.053-0.31-0.081-0.473-0.095
		C38.135,0.027,38.087,0,38.028,0C20.369,0,6.003,14.355,6.003,32.001C6.003,49.645,20.369,64,38.028,64
		c7.358,0,14.543-2.556,20.231-7.197c0.027-0.021,0.037-0.051,0.062-0.073c0.107-0.098,0.188-0.216,0.275-0.336
		c0.069-0.096,0.147-0.185,0.197-0.293c0.053-0.108,0.073-0.229,0.106-0.347c0.034-0.14,0.074-0.271,0.082-0.413
		c0.002-0.036,0.02-0.063,0.02-0.099C59.003,55.148,58.962,55.068,58.95,54.978z M10.038,32.001c0-13.069,9.03-24.04,21.173-27.094
		c-5.652,5.713-8.892,13.339-8.892,21.46c0,14.66,12.867,27.688,28.73,30.362c-3.993,2.096-8.466,3.237-13.021,3.237
		C22.595,59.967,10.038,47.422,10.038,32.001z"/>
</g>
<g id="comment">
</g>
<g id="map-marker">
</g>
<g id="earth">
</g>
<g id="heart">
</g>
<g id="twitter">
</g>
<g id="bucket">
</g>
<g id="paperclip">
</g>
<g id="undo">
</g>
<g id="redo">
</g>
<g id="chevron-left">
</g>
<g id="chevron-right">
</g>
<g id="cross">
</g>
<g id="search">
</g>
<g id="hamburger">
</g>
</svg>
