<?xml version="1.0" encoding="utf-8"?>
<!-- Generator: Adobe Illustrator 16.0.0, SVG Export Plug-In . SVG Version: 6.00 Build 0)  -->
<!DOCTYPE svg PUBLIC "-//W3C//DTD SVG 1.1//EN" "http://www.w3.org/Graphics/SVG/1.1/DTD/svg11.dtd">
<svg version="1.1" xmlns="http://www.w3.org/2000/svg" xmlns:xlink="http://www.w3.org/1999/xlink" x="0px" y="0px" width="64px"
	 height="64px" viewBox="0 0 64 64" enable-background="new 0 0 64 64" xml:space="preserve">
<g id="eye">
	<path fill="#1D1D1B" d="M63.875,31.203c-0.102-0.246-0.248-0.467-0.435-0.652l-6.837-6.838c-0.783-0.783-2.051-0.783-2.834,0
		c-0.781,0.781-0.781,2.05,0,2.832l3.42,3.42l-23.16-0.001l0.002-23.155l3.568,3.57c0.393,0.392,0.904,0.588,1.418,0.588
		c0.512,0,1.025-0.196,1.416-0.588c0.783-0.781,0.783-2.051,0-2.834l-6.988-6.99c-0.186-0.186-0.406-0.332-0.652-0.434
		c-0.49-0.203-1.041-0.203-1.531,0c-0.244,0.101-0.463,0.246-0.646,0.429c0,0-0.002,0.002-0.004,0.003l-6.844,6.84
		c-0.781,0.783-0.781,2.051,0,2.834c0.393,0.391,0.904,0.587,1.418,0.587c0.512,0,1.025-0.196,1.416-0.587l3.422-3.42l-0.002,23.157
		L6.872,29.963l3.417-3.418c0.781-0.782,0.781-2.051,0-2.832c-0.783-0.783-2.051-0.783-2.834,0l-6.838,6.84
		c-0.393,0.391-0.588,0.903-0.588,1.416s0.195,1.025,0.588,1.417l6.988,6.989c0.392,0.393,0.904,0.588,1.417,0.588
		s1.025-0.195,1.417-0.588c0.782-0.783,0.782-2.051,0-2.833l-3.571-3.571l23.153,0.001L30.02,57.125l-3.418-3.417
		c-0.783-0.78-2.051-0.782-2.834,0.001c-0.781,0.783-0.781,2.052,0,2.834l6.844,6.839c0.391,0.392,0.904,0.587,1.416,0.587
		c0.513,0,1.025-0.195,1.416-0.587l6.99-6.991c0.783-0.783,0.783-2.053,0-2.834c-0.783-0.783-2.051-0.783-2.834,0l-3.572,3.574
		l0.002-23.159l23.16,0.001l-3.57,3.569c-0.781,0.782-0.781,2.05,0,2.833c0.393,0.393,0.904,0.588,1.418,0.588
		c0.512,0,1.025-0.195,1.416-0.588l6.989-6.989c0.004-0.005,0.006-0.012,0.012-0.017c0.177-0.182,0.321-0.396,0.421-0.633
		c0.102-0.246,0.154-0.506,0.154-0.768C64.029,31.709,63.977,31.448,63.875,31.203z"/>
</g>
<g id="comment">
</g>
<g id="map-marker">
</g>
<g id="earth">
</g>
<g id="heart">
</g>
<g id="twitter">
</g>
<g id="bucket">
</g>
<g id="paperclip">
</g>
<g id="undo">
</g>
<g id="redo">
</g>
<g id="chevron-left">
</g>
<g id="chevron-right">
</g>
<g id="cross">
</g>
<g id="search">
</g>
<g id="hamburger">
</g>
</svg>
