<?xml version="1.0" encoding="utf-8"?>
<!-- Generator: Adobe Illustrator 16.0.0, SVG Export Plug-In . SVG Version: 6.00 Build 0)  -->
<!DOCTYPE svg PUBLIC "-//W3C//DTD SVG 1.1//EN" "http://www.w3.org/Graphics/SVG/1.1/DTD/svg11.dtd">
<svg version="1.1" xmlns="http://www.w3.org/2000/svg" xmlns:xlink="http://www.w3.org/1999/xlink" x="0px" y="0px" width="64px"
	 height="64px" viewBox="0 0 64 64" enable-background="new 0 0 64 64" xml:space="preserve">
<g id="eye">
	<path fill="#1D1D1B" d="M11.915,59.858c6.677,0,11.907-3.572,11.907-8.133V23.062L60,19.588v21.175
		c-2.09-1.256-4.844-2.016-7.91-2.016c-6.68,0-11.912,3.572-11.912,8.133c0,4.562,5.232,8.135,11.912,8.135S64,51.442,64,46.88
		c0-0.113-0.018-0.221-0.022-0.332C63.979,46.505,64,46.472,64,46.429V7.558c0-0.032-0.018-0.061-0.02-0.094
		c0-0.032,0.014-0.063,0.011-0.098c-0.011-0.111-0.065-0.203-0.094-0.309c-0.031-0.121-0.05-0.24-0.103-0.352
		c-0.07-0.149-0.17-0.273-0.272-0.399c-0.054-0.065-0.094-0.138-0.156-0.194C63.23,5.979,63.071,5.885,62.9,5.796
		c-0.057-0.029-0.107-0.066-0.168-0.09c-0.158-0.062-0.326-0.084-0.502-0.102c-0.078-0.01-0.148-0.047-0.23-0.047
		c-0.031,0-0.059,0.018-0.092,0.018c-0.033,0.004-0.064-0.012-0.1-0.008L21.631,9.427c-1.1,0.105-1.903,1.083-1.799,2.182
		c0.006,0.068,0.041,0.123,0.055,0.189c-0.021,0.107-0.064,0.205-0.064,0.316v33.492c-2.09-1.256-4.842-2.016-7.907-2.016
		C5.234,43.591,0,47.163,0,51.726C0,56.286,5.234,59.858,11.915,59.858z M23.822,19.044v-5.811L60,9.76v5.81L23.822,19.044z
		 M52.09,51.015c-4.664,0-7.912-2.18-7.912-4.135s3.248-4.133,7.912-4.133c4.66,0,7.91,2.178,7.91,4.133S56.75,51.015,52.09,51.015z
		 M11.915,47.591c4.659,0,7.907,2.18,7.907,4.135c0,1.951-3.381,4.133-7.907,4.133C7.385,55.858,4,53.677,4,51.726
		C4,49.771,7.25,47.591,11.915,47.591z"/>
</g>
<g id="comment">
</g>
<g id="map-marker">
</g>
<g id="earth">
</g>
<g id="heart">
</g>
<g id="twitter">
</g>
<g id="bucket">
</g>
<g id="paperclip">
</g>
<g id="undo">
</g>
<g id="redo">
</g>
<g id="chevron-left">
</g>
<g id="chevron-right">
</g>
<g id="cross">
</g>
<g id="search">
</g>
<g id="hamburger">
</g>
</svg>
