<?xml version="1.0" encoding="utf-8"?>
<!-- Generator: Adobe Illustrator 16.0.0, SVG Export Plug-In . SVG Version: 6.00 Build 0)  -->
<!DOCTYPE svg PUBLIC "-//W3C//DTD SVG 1.1//EN" "http://www.w3.org/Graphics/SVG/1.1/DTD/svg11.dtd">
<svg version="1.1" xmlns="http://www.w3.org/2000/svg" xmlns:xlink="http://www.w3.org/1999/xlink" x="0px" y="0px" width="64px"
	 height="64px" viewBox="0 0 64 64" enable-background="new 0 0 64 64" xml:space="preserve">
<g id="eye">
	<path fill="#1D1D1B" d="M63.992,7.425c-0.012-0.111-0.066-0.203-0.094-0.309c-0.031-0.121-0.051-0.24-0.104-0.352
		c-0.07-0.15-0.17-0.275-0.273-0.404c-0.053-0.062-0.092-0.133-0.154-0.189c-0.137-0.135-0.299-0.23-0.471-0.318
		c-0.057-0.029-0.104-0.064-0.162-0.088c-0.158-0.062-0.328-0.084-0.504-0.102c-0.078-0.01-0.148-0.047-0.23-0.047
		c-0.031,0-0.059,0.018-0.092,0.018c-0.033,0.004-0.064-0.012-0.1-0.008L21.631,9.485c-1.1,0.105-1.904,1.082-1.799,2.182
		c0.006,0.068,0.041,0.123,0.055,0.189c-0.02,0.107-0.064,0.205-0.064,0.316v33.492c-2.09-1.256-4.842-2.016-7.908-2.016
		C5.234,43.649,0,47.222,0,51.784c0,4.561,5.234,8.133,11.914,8.133c6.678,0,11.908-3.572,11.908-8.133V13.292L60,9.817v31.004
		c-2.09-1.256-4.844-2.016-7.91-2.016c-6.68,0-11.912,3.572-11.912,8.133c0,4.562,5.232,8.135,11.912,8.135S64,51.501,64,46.938
		c0-0.113-0.018-0.221-0.023-0.332C63.979,46.563,64,46.53,64,46.487V7.616c0-0.033-0.018-0.061-0.02-0.094
		C63.98,7.489,63.994,7.458,63.992,7.425z M11.914,55.917C7.385,55.917,4,53.735,4,51.784c0-1.955,3.25-4.135,7.914-4.135
		c4.66,0,7.908,2.18,7.908,4.135C19.822,53.735,16.441,55.917,11.914,55.917z M52.09,51.073c-4.664,0-7.912-2.18-7.912-4.135
		s3.248-4.133,7.912-4.133c4.66,0,7.91,2.178,7.91,4.133S56.75,51.073,52.09,51.073z"/>
</g>
<g id="comment">
</g>
<g id="map-marker">
</g>
<g id="earth">
</g>
<g id="heart">
</g>
<g id="twitter">
</g>
<g id="bucket">
</g>
<g id="paperclip">
</g>
<g id="undo">
</g>
<g id="redo">
</g>
<g id="chevron-left">
</g>
<g id="chevron-right">
</g>
<g id="cross">
</g>
<g id="search">
</g>
<g id="hamburger">
</g>
</svg>
