<?xml version="1.0" encoding="utf-8"?>
<!-- Generator: Adobe Illustrator 16.0.0, SVG Export Plug-In . SVG Version: 6.00 Build 0)  -->
<!DOCTYPE svg PUBLIC "-//W3C//DTD SVG 1.1//EN" "http://www.w3.org/Graphics/SVG/1.1/DTD/svg11.dtd">
<svg version="1.1" xmlns="http://www.w3.org/2000/svg" xmlns:xlink="http://www.w3.org/1999/xlink" x="0px" y="0px" width="64px"
	 height="64px" viewBox="0 0 64 64" enable-background="new 0 0 64 64" xml:space="preserve">
<g id="eye">
	<path fill="#1D1D1B" d="M16.494,41.848c5.545,0,10.07-2.236,10.261-2.332c0.066-0.033,0.129-0.07,0.191-0.11
		c2.816-1.826,4.294-4.003,4.972-6.099c0.676,2.097,2.154,4.273,4.971,6.099c0.062,0.04,0.125,0.077,0.191,0.11
		c0.189,0.095,4.715,2.332,10.261,2.332c0,0,0,0,0.002,0c5.094,0,12.055-1.909,16.304-11.002c0.375-0.803,0.179-1.756-0.481-2.345
		c-0.664-0.591-1.635-0.676-2.385-0.212c-0.018,0.011-1.815,1.065-4.72,1.065c-3.148,0-6.332-1.222-9.363-3.551
		c-0.432-0.378-4.32-3.692-8.318-3.692c-2.723,0-4.908,1.542-6.136,4.302c-0.115,0.247-0.223,0.532-0.323,0.834
		c-0.096-0.288-0.199-0.559-0.309-0.793c-1.248-2.801-3.434-4.343-6.155-4.343c-3.998,0-7.89,3.314-8.22,3.61
		c-3.132,2.412-6.315,3.634-9.463,3.634c-2.88,0-4.715-1.063-4.719-1.065C2.307,27.826,1.333,27.911,0.67,28.5
		c-0.66,0.589-0.856,1.542-0.482,2.345C4.438,39.939,11.4,41.848,16.494,41.848z M35.89,28.083c0.773-1.739,1.737-1.962,2.489-1.962
		c2.114,0,4.812,1.948,5.771,2.778c3.852,2.964,7.858,4.466,11.911,4.466c0.465,0,0.911-0.02,1.334-0.056
		c-2.567,3.009-5.932,4.529-10.054,4.529c-4.183,0-7.773-1.584-8.375-1.864C34.014,32.691,35.672,28.568,35.89,28.083z
		 M7.773,33.364c4.054,0,8.061-1.503,12.006-4.546c0.861-0.75,3.561-2.698,5.677-2.698c0.752,0,1.716,0.224,2.501,1.985
		c0.205,0.463,1.862,4.587-3.09,7.869c-0.605,0.285-4.159,1.863-8.373,1.863c-4.123,0-7.486-1.52-10.054-4.529
		C6.863,33.344,7.31,33.364,7.773,33.364z"/>
</g>
<g id="comment">
</g>
<g id="map-marker">
</g>
<g id="earth">
</g>
<g id="heart">
</g>
<g id="twitter">
</g>
<g id="bucket">
</g>
<g id="paperclip">
</g>
<g id="undo">
</g>
<g id="redo">
</g>
<g id="chevron-left">
</g>
<g id="chevron-right">
</g>
<g id="cross">
</g>
<g id="search">
</g>
<g id="hamburger">
</g>
</svg>
