<?xml version="1.0" encoding="utf-8"?>
<!-- Generator: Adobe Illustrator 16.0.0, SVG Export Plug-In . SVG Version: 6.00 Build 0)  -->
<!DOCTYPE svg PUBLIC "-//W3C//DTD SVG 1.1//EN" "http://www.w3.org/Graphics/SVG/1.1/DTD/svg11.dtd">
<svg version="1.1" xmlns="http://www.w3.org/2000/svg" xmlns:xlink="http://www.w3.org/1999/xlink" x="0px" y="0px" width="64px"
	 height="64px" viewBox="0 0 64 64" enable-background="new 0 0 64 64" xml:space="preserve">
<g id="eye">
	<g>
		<path fill="#1D1D1B" d="M46.025,18.086L24.111,42.307l-6.91-7.637c-0.74-0.82-2.006-0.881-2.824-0.142
			c-0.818,0.741-0.883,2.006-0.141,2.825l8.048,8.894c0.368,0.536,0.979,0.85,1.627,0.85c0.073,0,0.146-0.03,0.22-0.039
			c0.051,0.004,0.1,0.032,0.15,0.032c0.592,0,1.166-0.266,1.555-0.725L48.99,20.77c0.742-0.82,0.678-2.085-0.141-2.826
			C48.031,17.203,46.766,17.264,46.025,18.086z"/>
		<path fill="#1D1D1B" d="M31.998,0C14.354,0,0,14.355,0,32s14.354,32,31.998,32C49.645,64,64,49.645,64,32S49.645,0,31.998,0z
			 M31.998,60C16.561,60,4,47.439,4,32S16.561,4,31.998,4C47.438,4,60,16.561,60,32S47.438,60,31.998,60z"/>
	</g>
</g>
<g id="comment">
</g>
<g id="map-marker">
</g>
<g id="earth">
</g>
<g id="heart">
</g>
<g id="twitter">
</g>
<g id="bucket">
</g>
<g id="paperclip">
</g>
<g id="undo">
</g>
<g id="redo">
</g>
<g id="chevron-left">
</g>
<g id="chevron-right">
</g>
<g id="cross">
</g>
<g id="search">
</g>
<g id="hamburger">
</g>
</svg>
