<?xml version="1.0" encoding="utf-8"?>
<!-- Generator: Adobe Illustrator 16.0.0, SVG Export Plug-In . SVG Version: 6.00 Build 0)  -->
<!DOCTYPE svg PUBLIC "-//W3C//DTD SVG 1.1//EN" "http://www.w3.org/Graphics/SVG/1.1/DTD/svg11.dtd">
<svg version="1.1" xmlns="http://www.w3.org/2000/svg" xmlns:xlink="http://www.w3.org/1999/xlink" x="0px" y="0px" width="64px"
	 height="64px" viewBox="0 0 64 64" enable-background="new 0 0 64 64" xml:space="preserve">
<g id="eye">
	<path fill="#1D1D1B" d="M14.754,60.041c3.269,2.399,6.476,3.607,9.567,3.607c0.77,0,1.532-0.075,2.287-0.226
		c5.39-1.072,8.216-5.645,8.233-5.69l15.922-21.676c0.66-0.897,0.467-2.161-0.432-2.821s-2.16-0.466-2.821,0.433L31.489,55.493
		c-0.019,0.031-2.06,3.254-5.669,3.972c-2.628,0.527-5.548-0.378-8.678-2.677c-9.174-6.737-4.389-13.862-3.811-14.656L39.678,6.233
		c0.012-0.016,1.131-1.557,3.168-1.91c1.865-0.325,4.009,0.392,6.427,2.167c0.942,0.652,3.476,2.885,3.886,5.34
		c0.2,1.194-0.116,2.337-0.967,3.495L28.654,47.373c-0.01,0.014-1.062,1.432-2.613,1.689c-0.98,0.158-1.99-0.161-3.105-0.979
		c-3.312-2.434-1.593-5.382-1.255-5.89l13.118-17.861c0.659-0.897,0.467-2.161-0.432-2.821c-0.899-0.66-2.162-0.468-2.822,0.433
		L18.396,39.847c-1.832,2.638-2.77,7.874,2.148,11.488c2.011,1.476,4.078,2.047,6.156,1.708c3.204-0.53,5.061-3.072,5.233-3.321
		l23.511-32.008c1.512-2.059,2.082-4.271,1.689-6.573c-0.791-4.654-5.383-7.844-5.523-7.94c-3.286-2.412-6.465-3.37-9.457-2.855
		c-3.715,0.646-5.617,3.328-5.775,3.565L10.088,39.732c-0.131,0.175-3.201,4.368-2.381,9.863
		C8.293,53.522,10.664,57.037,14.754,60.041z"/>
</g>
<g id="comment">
</g>
<g id="map-marker">
</g>
<g id="earth">
</g>
<g id="heart">
</g>
<g id="twitter">
</g>
<g id="bucket">
</g>
<g id="paperclip">
</g>
<g id="undo">
</g>
<g id="redo">
</g>
<g id="chevron-left">
</g>
<g id="chevron-right">
</g>
<g id="cross">
</g>
<g id="search">
</g>
<g id="hamburger">
</g>
</svg>
