<?xml version="1.0" encoding="utf-8"?>
<!-- Generator: Adobe Illustrator 16.0.0, SVG Export Plug-In . SVG Version: 6.00 Build 0)  -->
<!DOCTYPE svg PUBLIC "-//W3C//DTD SVG 1.1//EN" "http://www.w3.org/Graphics/SVG/1.1/DTD/svg11.dtd">
<svg version="1.1" xmlns="http://www.w3.org/2000/svg" xmlns:xlink="http://www.w3.org/1999/xlink" x="0px" y="0px" width="64px"
	 height="64px" viewBox="0 0 64 64" enable-background="new 0 0 64 64" xml:space="preserve">
<g id="eye">
	<path fill="#1D1D1B" d="M2.138,63.89c0.242,0,0.489-0.043,0.726-0.132l10.757-4.061c0.207-0.079,0.388-0.197,0.554-0.331
		c0.168-0.092,0.339-0.181,0.478-0.319l44.032-44.034c0.008-0.008,0.01-0.019,0.018-0.027l3.214-3.211
		c2.615-2.621,2.659-6.842,0.092-9.415c-2.573-2.566-6.797-2.522-9.414,0.097l-3.365,3.366c-0.018,0.02-0.023,0.043-0.042,0.063
		L5.338,49.735c-0.136,0.136-0.216,0.301-0.306,0.461c-0.121,0.146-0.227,0.305-0.303,0.483L0.254,61.023
		c-0.327,0.755-0.171,1.635,0.398,2.23C1.048,63.668,1.586,63.89,2.138,63.89z M5.946,58.207l1.351-3.126l1.898,1.898L5.946,58.207z
		 M59.104,5.265c0.968,0.969,0.925,2.589-0.094,3.609l-1.782,1.782l-3.514-3.515l1.78-1.781C56.515,4.337,58.139,4.298,59.104,5.265
		z M50.822,10.054l3.509,3.508L13.2,54.694l-3.508-3.509L50.822,10.054z"/>
</g>
<g id="comment">
</g>
<g id="map-marker">
</g>
<g id="earth">
</g>
<g id="heart">
</g>
<g id="twitter">
</g>
<g id="bucket">
</g>
<g id="paperclip">
</g>
<g id="undo">
</g>
<g id="redo">
</g>
<g id="chevron-left">
</g>
<g id="chevron-right">
</g>
<g id="cross">
</g>
<g id="search">
</g>
<g id="hamburger">
</g>
</svg>
