<?xml version="1.0" encoding="utf-8"?>
<!-- Generator: Adobe Illustrator 16.0.0, SVG Export Plug-In . SVG Version: 6.00 Build 0)  -->
<!DOCTYPE svg PUBLIC "-//W3C//DTD SVG 1.1//EN" "http://www.w3.org/Graphics/SVG/1.1/DTD/svg11.dtd">
<svg version="1.1" xmlns="http://www.w3.org/2000/svg" xmlns:xlink="http://www.w3.org/1999/xlink" x="0px" y="0px" width="64px"
	 height="64px" viewBox="0 0 64 64" enable-background="new 0 0 64 64" xml:space="preserve">
<g id="eye">
	<g>
		<path fill="#1D1D1B" d="M41.778,12.625c-1.053-0.39-2.204,0.146-2.589,1.187c-0.388,1.043,0.146,2.2,1.188,2.585
			c8.772,3.244,14.666,11.702,14.666,21.047c0,12.372-10.08,22.438-22.471,22.438c-12.389,0-22.469-10.065-22.469-22.438
			c0-9.348,5.898-17.808,14.676-21.052c1.045-0.385,1.578-1.542,1.191-2.583c-0.387-1.043-1.545-1.58-2.588-1.188
			c-10.354,3.823-17.311,13.8-17.311,24.823c0,14.59,11.888,26.461,26.5,26.461c14.611,0,26.5-11.871,26.5-26.461
			C59.072,26.423,52.123,16.451,41.778,12.625z"/>
		<path fill="#1D1D1B" d="M32.572,39.817c1.113,0,2.014-0.9,2.014-2.012V1.917c0-1.112-0.9-2.012-2.014-2.012
			c-1.114,0-2.016,0.899-2.016,2.012v35.887C30.557,38.917,31.458,39.817,32.572,39.817z"/>
	</g>
</g>
<g id="comment">
</g>
<g id="map-marker">
</g>
<g id="earth">
</g>
<g id="heart">
</g>
<g id="twitter">
</g>
<g id="bucket">
</g>
<g id="paperclip">
</g>
<g id="undo">
</g>
<g id="redo">
</g>
<g id="chevron-left">
</g>
<g id="chevron-right">
</g>
<g id="cross">
</g>
<g id="search">
</g>
<g id="hamburger">
</g>
</svg>
