<?xml version="1.0" encoding="utf-8"?>
<!-- Generator: Adobe Illustrator 16.0.0, SVG Export Plug-In . SVG Version: 6.00 Build 0)  -->
<!DOCTYPE svg PUBLIC "-//W3C//DTD SVG 1.1//EN" "http://www.w3.org/Graphics/SVG/1.1/DTD/svg11.dtd">
<svg version="1.1" xmlns="http://www.w3.org/2000/svg" xmlns:xlink="http://www.w3.org/1999/xlink" x="0px" y="0px" width="64px"
	 height="64px" viewBox="0 0 64 64" enable-background="new 0 0 64 64" xml:space="preserve">
<g id="eye">
	<g>
		<path fill="#1D1D1B" d="M33.375,10.105c0.057-0.001,4.294-0.153,8.437,1.092l-4.599,1.858c-1.032,0.417-1.529,1.589-1.113,2.621
			c0.417,1.03,1.595,1.525,2.619,1.113l8.948-3.614c0.043-0.018,0.079-0.049,0.122-0.07c0.045-0.021,0.095-0.031,0.14-0.058
			c0.027-0.017,0.043-0.044,0.068-0.062c0.399-0.257,0.688-0.638,0.828-1.09c0.018-0.06,0.029-0.118,0.043-0.18
			c0.014-0.071,0.042-0.137,0.05-0.209c0.012-0.117-0.006-0.23-0.014-0.344c-0.005-0.051,0.002-0.1-0.007-0.15
			c-0.035-0.232-0.111-0.45-0.222-0.654c-0.012-0.021-0.01-0.044-0.021-0.064L43.357,1.21c-0.561-0.958-1.793-1.283-2.755-0.725
			c-0.959,0.56-1.284,1.793-0.726,2.753l2.26,3.875c-4.493-1.188-8.651-1.042-8.845-1.034c-15.866,0-28.776,12.908-28.776,28.775
			c0,1.112,0.9,2.013,2.014,2.013c1.112,0,2.013-0.901,2.013-2.013C8.542,21.209,19.646,10.107,33.375,10.105z"/>
		<path fill="#1D1D1B" d="M56.402,27.133c-1.112,0-2.013,0.901-2.013,2.013c0,13.646-11.102,24.749-24.827,24.75
			c-0.053-0.002-4.294,0.146-8.435-1.094l4.595-1.856c1.03-0.417,1.527-1.589,1.111-2.621c-0.417-1.032-1.589-1.527-2.621-1.113
			l-8.946,3.614c-0.061,0.024-0.108,0.066-0.165,0.095c-0.031,0.015-0.065,0.014-0.095,0.032c-0.027,0.017-0.043,0.044-0.068,0.062
			c-0.201,0.13-0.384,0.279-0.525,0.467c0,0.001-0.002,0.002-0.004,0.003c-0.138,0.184-0.229,0.397-0.297,0.619
			c-0.02,0.061-0.031,0.12-0.045,0.182c-0.014,0.071-0.042,0.137-0.05,0.209c-0.012,0.118,0.004,0.233,0.015,0.349
			c0.004,0.048-0.002,0.094,0.006,0.142c0.033,0.235,0.111,0.455,0.224,0.662c0.01,0.019,0.008,0.041,0.02,0.059l5.293,9.083
			c0.374,0.642,1.048,1,1.742,1c0.344,0,0.692-0.088,1.013-0.273c0.959-0.56,1.284-1.793,0.726-2.753l-2.264-3.883
			c3.521,0.932,6.839,1.052,8.205,1.052c0.378,0,0.605-0.009,0.647-0.011c15.864,0,28.772-12.908,28.772-28.775
			C58.416,28.035,57.516,27.133,56.402,27.133z"/>
	</g>
</g>
<g id="comment">
</g>
<g id="map-marker">
</g>
<g id="earth">
</g>
<g id="heart">
</g>
<g id="twitter">
</g>
<g id="bucket">
</g>
<g id="paperclip">
</g>
<g id="undo">
</g>
<g id="redo">
</g>
<g id="chevron-left">
</g>
<g id="chevron-right">
</g>
<g id="cross">
</g>
<g id="search">
</g>
<g id="hamburger">
</g>
</svg>
