<?xml version="1.0" encoding="utf-8"?>
<!-- Generator: Adobe Illustrator 16.0.0, SVG Export Plug-In . SVG Version: 6.00 Build 0)  -->
<!DOCTYPE svg PUBLIC "-//W3C//DTD SVG 1.1//EN" "http://www.w3.org/Graphics/SVG/1.1/DTD/svg11.dtd">
<svg version="1.1" xmlns="http://www.w3.org/2000/svg" xmlns:xlink="http://www.w3.org/1999/xlink" x="0px" y="0px" width="64px"
	 height="64px" viewBox="0 0 64 64" enable-background="new 0 0 64 64" xml:space="preserve">
<g id="eye">
	<path fill="#1D1D1B" d="M63.924,31.031c-0.102-0.246-0.248-0.467-0.434-0.651l-6.838-6.833c-0.783-0.781-2.051-0.781-2.833,0
		s-0.782,2.049,0,2.83l3.419,3.417L6.92,29.792l3.418-3.415c0.781-0.781,0.781-2.049,0-2.83c-0.783-0.781-2.051-0.781-2.834,0
		l-6.839,6.834c-0.392,0.391-0.587,0.902-0.587,1.415s0.195,1.025,0.587,1.416l6.992,6.982c0.392,0.39,0.903,0.585,1.417,0.585
		c0.512,0,1.024-0.195,1.416-0.586c0.782-0.781,0.782-2.049,0-2.832l-3.57-3.566l50.316,0.002l-3.57,3.564
		c-0.781,0.783-0.781,2.051,0,2.832c0.393,0.391,0.904,0.586,1.417,0.586s1.024-0.195,1.417-0.585l6.992-6.982
		c0.002-0.003,0.004-0.006,0.006-0.009c0.182-0.183,0.326-0.4,0.426-0.643c0.102-0.244,0.154-0.504,0.154-0.765
		S64.025,31.275,63.924,31.031z"/>
</g>
<g id="comment">
</g>
<g id="map-marker">
</g>
<g id="earth">
</g>
<g id="heart">
</g>
<g id="twitter">
</g>
<g id="bucket">
</g>
<g id="paperclip">
</g>
<g id="undo">
</g>
<g id="redo">
</g>
<g id="chevron-left">
</g>
<g id="chevron-right">
</g>
<g id="cross">
</g>
<g id="search">
</g>
<g id="hamburger">
</g>
</svg>
