<?xml version="1.0" encoding="utf-8"?>
<!-- Generator: Adobe Illustrator 16.0.0, SVG Export Plug-In . SVG Version: 6.00 Build 0)  -->
<!DOCTYPE svg PUBLIC "-//W3C//DTD SVG 1.1//EN" "http://www.w3.org/Graphics/SVG/1.1/DTD/svg11.dtd">
<svg version="1.1" xmlns="http://www.w3.org/2000/svg" xmlns:xlink="http://www.w3.org/1999/xlink" x="0px" y="0px" width="64px"
	 height="64px" viewBox="0 0 64 64" enable-background="new 0 0 64 64" xml:space="preserve">
<g id="eye">
	<path fill="#1D1D1B" d="M37.149,10.41c0.391,0.393,0.903,0.588,1.415,0.588s1.024-0.195,1.415-0.586
		c0.782-0.783,0.782-2.052,0-2.834l-6.98-6.99c-0.186-0.186-0.406-0.333-0.652-0.435c-0.485-0.2-1.032-0.206-1.518-0.008
		c-0.006,0.002-0.008,0.006-0.012,0.008c-0.211,0.088-0.395,0.222-0.561,0.372c-0.027,0.025-0.062,0.033-0.09,0.059l-0.002,0.004
		l-6.832,6.838c-0.782,0.781-0.782,2.05,0,2.832c0.391,0.392,0.903,0.588,1.415,0.588c0.513,0,1.024-0.196,1.415-0.588l3.417-3.42
		l-0.002,50.321l-3.415-3.418c-0.781-0.782-2.048-0.782-2.83,0c-0.782,0.783-0.782,2.052,0,2.833l6.834,6.839
		C30.558,63.805,31.07,64,31.582,64s1.024-0.195,1.415-0.587l6.982-6.991c0.782-0.782,0.782-2.052,0-2.833
		c-0.781-0.782-2.048-0.782-2.83,0l-3.567,3.571l0.002-50.32L37.149,10.41z"/>
</g>
<g id="comment">
</g>
<g id="map-marker">
</g>
<g id="earth">
</g>
<g id="heart">
</g>
<g id="twitter">
</g>
<g id="bucket">
</g>
<g id="paperclip">
</g>
<g id="undo">
</g>
<g id="redo">
</g>
<g id="chevron-left">
</g>
<g id="chevron-right">
</g>
<g id="cross">
</g>
<g id="search">
</g>
<g id="hamburger">
</g>
</svg>
