<?xml version="1.0" encoding="utf-8"?>
<!-- Generator: Adobe Illustrator 16.0.0, SVG Export Plug-In . SVG Version: 6.00 Build 0)  -->
<!DOCTYPE svg PUBLIC "-//W3C//DTD SVG 1.1//EN" "http://www.w3.org/Graphics/SVG/1.1/DTD/svg11.dtd">
<svg version="1.1" xmlns="http://www.w3.org/2000/svg" xmlns:xlink="http://www.w3.org/1999/xlink" x="0px" y="0px" width="64px"
	 height="64px" viewBox="0 0 64 64" enable-background="new 0 0 64 64" xml:space="preserve">
<g id="eye">
	<g>
		<path fill="#1D1D1B" d="M25.255,35.905L4.016,57.145V46.59c0-1.108-0.897-2.008-2.008-2.008C0.898,44.582,0,45.481,0,46.59v15.402
			c0,0.261,0.053,0.521,0.155,0.767c0.203,0.492,0.594,0.882,1.086,1.087C1.486,63.947,1.747,64,2.008,64h15.403
			c1.109,0,2.008-0.898,2.008-2.008s-0.898-2.008-2.008-2.008H6.855l21.238-21.24c0.784-0.784,0.784-2.055,0-2.839
			S26.039,35.121,25.255,35.905z"/>
		<path fill="#1D1D1B" d="M63.845,1.241c-0.203-0.491-0.594-0.882-1.086-1.087C62.514,0.053,62.253,0,61.992,0H46.589
			c-1.109,0-2.008,0.898-2.008,2.008s0.898,2.008,2.008,2.008h10.556l-21.238,21.24c-0.784,0.784-0.784,2.055,0,2.839
			c0.392,0.392,0.906,0.589,1.42,0.589s1.027-0.197,1.419-0.589L59.984,6.855V17.41c0,1.108,0.897,2.008,2.008,2.008
			c1.109,0,2.008-0.899,2.008-2.008V2.008C64,1.747,63.947,1.486,63.845,1.241z"/>
	</g>
</g>
<g id="comment">
</g>
<g id="map-marker">
</g>
<g id="earth">
</g>
<g id="heart">
</g>
<g id="twitter">
</g>
<g id="bucket">
</g>
<g id="paperclip">
</g>
<g id="undo">
</g>
<g id="redo">
</g>
<g id="chevron-left">
</g>
<g id="chevron-right">
</g>
<g id="cross">
</g>
<g id="search">
</g>
<g id="hamburger">
</g>
</svg>
