<?xml version="1.0" encoding="utf-8"?>
<!-- Generator: Adobe Illustrator 16.0.0, SVG Export Plug-In . SVG Version: 6.00 Build 0)  -->
<!DOCTYPE svg PUBLIC "-//W3C//DTD SVG 1.1//EN" "http://www.w3.org/Graphics/SVG/1.1/DTD/svg11.dtd">
<svg version="1.1" xmlns="http://www.w3.org/2000/svg" xmlns:xlink="http://www.w3.org/1999/xlink" x="0px" y="0px" width="64px"
	 height="64px" viewBox="0 0 64 64" enable-background="new 0 0 64 64" xml:space="preserve">
<g id="eye">
	<g>
		<path fill="#1D1D1B" d="M15.486,25.515c0.398,0.454,0.952,0.687,1.507,0.687c0.478,0,0.958-0.172,1.345-0.518
			c0.832-0.75,0.906-2.043,0.165-2.887l-7.488-8.528c-0.014-0.015-0.032-0.021-0.046-0.034c-0.029-0.031-0.057-0.06-0.088-0.088
			c-0.016-0.015-0.02-0.033-0.035-0.047c-0.073-0.066-0.163-0.09-0.241-0.144c-0.093-0.062-0.177-0.142-0.275-0.187
			c-0.037-0.018-0.075-0.027-0.112-0.041c-0.108-0.041-0.219-0.052-0.331-0.074c-0.108-0.021-0.211-0.057-0.323-0.06
			c-0.021-0.001-0.038-0.012-0.058-0.012s-0.037,0.011-0.058,0.012c-0.112,0.003-0.217,0.038-0.327,0.06
			c-0.112,0.022-0.221,0.033-0.327,0.074c-0.037,0.014-0.074,0.023-0.11,0.041c-0.101,0.045-0.184,0.124-0.278,0.187
			C8.326,14.01,8.235,14.034,8.162,14.1c-0.016,0.015-0.02,0.034-0.035,0.049c-0.03,0.027-0.058,0.056-0.085,0.086
			c-0.014,0.014-0.031,0.02-0.046,0.034L0.51,22.797c-0.741,0.844-0.666,2.137,0.168,2.887c0.385,0.346,0.863,0.518,1.34,0.518
			c0.557,0,1.11-0.232,1.509-0.687l3.96-4.511v23.445c0,3.383,2.717,6.134,6.058,6.134h29.14c1.115,0,2.019-0.915,2.019-2.044
			c0-1.13-0.903-2.045-2.019-2.045h-29.14c-1.115,0-2.02-0.918-2.02-2.045V21.004L15.486,25.515z"/>
		<path fill="#1D1D1B" d="M60.473,38.652l-3.959,4.51V19.717c0-3.383-2.718-6.134-6.058-6.134H22.041
			c-1.117,0-2.02,0.915-2.02,2.044c0,1.13,0.902,2.045,2.02,2.045h28.415c1.115,0,2.02,0.918,2.02,2.045v23.445l-3.962-4.51
			c-0.742-0.844-2.016-0.92-2.852-0.168c-0.832,0.75-0.906,2.043-0.166,2.886l7.489,8.527c0.012,0.015,0.032,0.019,0.044,0.032
			c0.029,0.032,0.059,0.062,0.09,0.092c0.014,0.013,0.02,0.031,0.035,0.045c0.095,0.084,0.206,0.125,0.309,0.189
			c0.033,0.021,0.062,0.048,0.1,0.066c0.047,0.025,0.085,0.07,0.134,0.092c0.018,0.008,0.037,0.01,0.055,0.018
			c0.241,0.096,0.49,0.151,0.744,0.151c0.251,0,0.504-0.055,0.743-0.151c0.018-0.008,0.037-0.01,0.056-0.018
			c0.049-0.021,0.086-0.065,0.131-0.09c0.033-0.019,0.059-0.044,0.091-0.062c0.109-0.064,0.226-0.109,0.321-0.195
			c0.016-0.015,0.02-0.034,0.035-0.049c0.03-0.028,0.058-0.058,0.087-0.088c0.012-0.014,0.031-0.018,0.043-0.032l7.488-8.527
			c0.74-0.843,0.665-2.136-0.169-2.886C62.487,37.732,61.212,37.809,60.473,38.652z"/>
	</g>
</g>
<g id="comment">
</g>
<g id="map-marker">
</g>
<g id="earth">
</g>
<g id="heart">
</g>
<g id="twitter">
</g>
<g id="bucket">
</g>
<g id="paperclip">
</g>
<g id="undo">
</g>
<g id="redo">
</g>
<g id="chevron-left">
</g>
<g id="chevron-right">
</g>
<g id="cross">
</g>
<g id="search">
</g>
<g id="hamburger">
</g>
</svg>
