<?xml version="1.0" encoding="utf-8"?>
<!-- Generator: Adobe Illustrator 16.0.0, SVG Export Plug-In . SVG Version: 6.00 Build 0)  -->
<!DOCTYPE svg PUBLIC "-//W3C//DTD SVG 1.1//EN" "http://www.w3.org/Graphics/SVG/1.1/DTD/svg11.dtd">
<svg version="1.1" id="Icons" xmlns="http://www.w3.org/2000/svg" xmlns:xlink="http://www.w3.org/1999/xlink" x="0px" y="0px"
	 width="64px" height="64px" viewBox="0 0 64 64" enable-background="new 0 0 64 64" xml:space="preserve">
<g>
	<path fill="#1D1D1B" d="M61.995,19.683h-4.403v-1.39c0-1.107-0.896-2.004-2.005-2.004c-0.025,0-2.574-0.053-3.443-2.092
		c-0.252-0.473-6.314-11.521-19.985-11.709c-0.031-0.002-0.057-0.018-0.088-0.018h-0.235c-0.002,0-0.004,0-0.006,0s-0.004,0-0.006,0
		c-0.029,0-0.053,0.016-0.082,0.018C18.078,2.668,12.015,13.727,11.686,14.36c-0.789,1.865-3.276,1.927-3.367,1.929
		c-1.107,0-2.004,0.896-2.004,2.004v1.39h-4.17c-1.107,0-2.004,0.896-2.004,2.005v37.576c0,1.107,0.896,2.005,2.004,2.005h3.97
		c0.04,0,0.077,0.012,0.116,0.012s0.076-0.012,0.115-0.012h51.461c0.039,0,0.076,0.012,0.115,0.012s0.076-0.012,0.116-0.012h3.957
		c1.108,0,2.005-0.897,2.005-2.005V21.688C64,20.579,63.104,19.683,61.995,19.683z M57.863,57.26
		c-1.094-0.033-1.979-0.922-1.979-2.026c0-1.124,0.914-2.038,2.037-2.038c1.124,0,2.038,0.914,2.038,2.038
		c0,1.104-0.885,1.993-1.979,2.026H57.863z M57.922,49.188c-3.333,0-6.046,2.713-6.046,6.046c0,0.715,0.146,1.39,0.376,2.026H11.9
		c0.229-0.637,0.376-1.312,0.376-2.026c0-3.333-2.713-6.046-6.046-6.046c-0.734,0-1.43,0.15-2.081,0.391V31.436
		c0.651,0.24,1.347,0.391,2.081,0.391c3.333,0,6.046-2.713,6.046-6.047c0-0.737-0.152-1.434-0.394-2.088H52.27
		c-0.241,0.654-0.394,1.351-0.394,2.088c0,3.334,2.713,6.047,6.046,6.047c0.73,0,1.422-0.15,2.069-0.387v18.135
		C59.344,49.338,58.652,49.188,57.922,49.188z M6.172,57.26c-1.095-0.033-1.979-0.922-1.979-2.026c0-1.124,0.914-2.038,2.038-2.038
		c1.123,0,2.037,0.914,2.037,2.038c0,1.104-0.885,1.993-1.979,2.026H6.172z M8.268,25.779c0,1.125-0.914,2.039-2.037,2.039
		c-1.124,0-2.038-0.914-2.038-2.039c0-1.123,0.914-2.037,2.038-2.037C7.354,23.742,8.268,24.656,8.268,25.779z M59.96,25.779
		c0,1.125-0.914,2.039-2.038,2.039c-1.123,0-2.037-0.914-2.037-2.039c0-1.123,0.914-2.037,2.037-2.037
		C59.046,23.742,59.96,24.656,59.96,25.779z M31.953,7.027c1.117,0,2.025,0.908,2.025,2.026s-0.908,2.026-2.025,2.026
		c-1.118,0-2.026-0.908-2.026-2.026S30.835,7.027,31.953,7.027z M15.301,16.085c0.041-0.079,3.465-6.335,10.882-8.702
		c-0.155,0.533-0.265,1.088-0.265,1.671c0,3.327,2.707,6.034,6.035,6.034c3.327,0,6.034-2.707,6.034-6.034
		c0-0.587-0.111-1.146-0.268-1.681c7.332,2.312,10.703,8.369,10.809,8.549c0.844,1.995,2.422,3.145,3.978,3.761H11.425
		C12.962,19.082,14.506,17.972,15.301,16.085z"/>
	<path fill="#1D1D1B" d="M17.973,46.836c-0.037-0.072-0.066-0.174-0.092-0.307c-0.023-0.131-0.041-0.278-0.053-0.441
		c-0.012-0.162-0.018-0.334-0.018-0.514c0-0.181,0-0.355,0-0.523v-1.1c0-0.867-0.15-1.547-0.452-2.04
		c-0.3-0.493-0.854-0.774-1.66-0.848v-0.035c0.77-0.121,1.329-0.446,1.678-0.975c0.351-0.528,0.524-1.228,0.524-2.093
		c0-0.493-0.064-0.949-0.189-1.372c-0.128-0.421-0.331-0.782-0.613-1.091c-0.283-0.307-0.649-0.543-1.102-0.712
		c-0.45-0.169-0.994-0.253-1.633-0.253H9.115v12.881h3.355v-5.16h0.883c0.205,0,0.376,0.027,0.515,0.082
		c0.137,0.053,0.253,0.15,0.343,0.287c0.09,0.14,0.152,0.33,0.189,0.568c0.035,0.24,0.053,0.543,0.053,0.902v0.867
		c0,0.131,0.004,0.303,0.01,0.513c0.006,0.212,0.018,0.431,0.035,0.659c0.02,0.228,0.049,0.457,0.093,0.686
		c0.041,0.229,0.104,0.427,0.188,0.596h3.572v-0.181c-0.107-0.061-0.186-0.123-0.235-0.19C18.068,46.977,18.02,46.908,17.973,46.836
		z M14.201,39.557c-0.228,0.283-0.584,0.425-1.063,0.425h-0.667v-3.03h0.647c0.507,0,0.869,0.113,1.093,0.342
		c0.223,0.23,0.334,0.613,0.334,1.156C14.545,38.904,14.43,39.274,14.201,39.557z"/>
	<rect x="19.343" y="34.533" fill="#1D1D1B" width="3.355" height="12.881"/>
	<polygon fill="#1D1D1B" points="28.073,44.238 28.038,44.238 26.686,34.533 23.168,34.533 25.891,47.414 30.221,47.414 
		32.998,34.533 29.428,34.533 	"/>
	<path fill="#1D1D1B" d="M41.351,35.824c-0.36-0.537-0.836-0.926-1.425-1.174c-0.59-0.246-1.312-0.369-2.165-0.369
		s-1.576,0.123-2.165,0.369c-0.589,0.248-1.064,0.637-1.425,1.174c-0.36,0.533-0.619,1.225-0.775,2.074
		c-0.156,0.848-0.235,1.873-0.235,3.075s0.079,2.228,0.235,3.075s0.415,1.541,0.775,2.074c0.36,0.537,0.836,0.918,1.425,1.146
		c0.589,0.229,1.312,0.343,2.165,0.343s1.575-0.113,2.165-0.343c0.589-0.228,1.064-0.608,1.425-1.146
		c0.36-0.533,0.618-1.227,0.775-2.074c0.156-0.848,0.234-1.873,0.234-3.075s-0.078-2.228-0.234-3.075
		C41.969,37.049,41.711,36.357,41.351,35.824z M38.86,43.129c-0.023,0.571-0.074,1.025-0.152,1.362s-0.192,0.571-0.343,0.702
		c-0.15,0.134-0.353,0.2-0.604,0.2c-0.253,0-0.454-0.066-0.605-0.2c-0.15-0.131-0.264-0.365-0.342-0.702
		c-0.079-0.337-0.13-0.791-0.153-1.362c-0.025-0.572-0.037-1.29-0.037-2.155s0.012-1.585,0.037-2.155
		c0.023-0.571,0.074-1.025,0.153-1.362c0.078-0.337,0.191-0.571,0.342-0.704c0.151-0.132,0.353-0.198,0.605-0.198
		c0.252,0,0.454,0.066,0.604,0.198c0.15,0.133,0.265,0.367,0.343,0.704s0.129,0.791,0.152,1.362c0.023,0.57,0.037,1.29,0.037,2.155
		S38.884,42.557,38.86,43.129z"/>
	<polygon fill="#1D1D1B" points="46.926,34.533 43.57,34.533 43.57,47.414 51.056,47.414 51.056,44.672 46.926,44.672 	"/>
	<rect x="51.795" y="34.533" fill="#1D1D1B" width="3.355" height="12.881"/>
</g>
</svg>
