<?xml version="1.0" encoding="utf-8"?>
<!-- Generator: Adobe Illustrator 16.0.0, SVG Export Plug-In . SVG Version: 6.00 Build 0)  -->
<!DOCTYPE svg PUBLIC "-//W3C//DTD SVG 1.1//EN" "http://www.w3.org/Graphics/SVG/1.1/DTD/svg11.dtd">
<svg version="1.1" xmlns="http://www.w3.org/2000/svg" xmlns:xlink="http://www.w3.org/1999/xlink" x="0px" y="0px" width="64px"
	 height="64px" viewBox="0 0 64 64" enable-background="new 0 0 64 64" xml:space="preserve">
<g id="eye">
	<g>
		<path fill="#1D1D1B" d="M25.896,52.205c6.375,0,12.204-2.344,16.706-6.196l17.357,17.356c0.394,0.392,0.906,0.588,1.42,0.588
			c0.513,0,1.025-0.196,1.416-0.588c0.394-0.393,0.589-0.904,0.589-1.418s-0.195-1.026-0.589-1.418L45.437,43.172
			c3.854-4.5,6.198-10.331,6.198-16.707c0-14.195-11.546-25.741-25.739-25.741c-14.194,0-25.742,11.546-25.742,25.741
			C0.153,40.658,11.701,52.205,25.896,52.205z M25.896,4.734c11.979,0,21.729,9.748,21.729,21.73
			c0,11.981-9.75,21.729-21.729,21.729c-11.983,0-21.731-9.747-21.731-21.729C4.164,14.482,13.912,4.734,25.896,4.734z"/>
		<path fill="#1D1D1B" d="M18.15,28.471h5.041v5.041c0,1.107,0.898,2.005,2.006,2.005c1.109,0,2.006-0.897,2.006-2.005v-5.041h5.043
			c1.108,0,2.004-0.898,2.004-2.006s-0.896-2.006-2.004-2.006h-5.043v-5.042c0-1.108-0.896-2.005-2.006-2.005
			c-1.107,0-2.006,0.896-2.006,2.005v5.042H18.15c-1.107,0-2.006,0.898-2.006,2.006S17.043,28.471,18.15,28.471z"/>
	</g>
</g>
<g id="comment">
</g>
<g id="map-marker">
</g>
<g id="earth">
</g>
<g id="heart">
</g>
<g id="twitter">
</g>
<g id="bucket">
</g>
<g id="paperclip">
</g>
<g id="undo">
</g>
<g id="redo">
</g>
<g id="chevron-left">
</g>
<g id="chevron-right">
</g>
<g id="cross">
</g>
<g id="search">
</g>
<g id="hamburger">
</g>
</svg>
