<?xml version="1.0" encoding="utf-8"?>
<!-- Generator: Adobe Illustrator 16.0.0, SVG Export Plug-In . SVG Version: 6.00 Build 0)  -->
<!DOCTYPE svg PUBLIC "-//W3C//DTD SVG 1.1//EN" "http://www.w3.org/Graphics/SVG/1.1/DTD/svg11.dtd">
<svg version="1.1" xmlns="http://www.w3.org/2000/svg" xmlns:xlink="http://www.w3.org/1999/xlink" x="0px" y="0px" width="64px"
	 height="64px" viewBox="0 0 64 64" enable-background="new 0 0 64 64" xml:space="preserve">
<g id="eye">
	<path fill="#1D1D1B" d="M25.915,52.205c6.377,0,12.206-2.344,16.708-6.196L59.98,63.365c0.392,0.391,0.904,0.587,1.418,0.587
		c0.513,0,1.025-0.196,1.418-0.587c0.392-0.393,0.588-0.904,0.588-1.418s-0.196-1.027-0.588-1.419L45.459,43.172
		c3.853-4.5,6.197-10.331,6.197-16.707c0-14.194-11.549-25.741-25.741-25.741c-14.194,0-25.742,11.547-25.742,25.741
		C0.173,40.658,11.721,52.205,25.915,52.205z M25.915,4.735c11.98,0,21.729,9.747,21.729,21.729c0,11.98-9.749,21.729-21.729,21.729
		c-11.981,0-21.73-9.748-21.73-21.729C4.185,14.482,13.934,4.735,25.915,4.735z"/>
</g>
<g id="comment">
</g>
<g id="map-marker">
</g>
<g id="earth">
</g>
<g id="heart">
</g>
<g id="twitter">
</g>
<g id="bucket">
</g>
<g id="paperclip">
</g>
<g id="undo">
</g>
<g id="redo">
</g>
<g id="chevron-left">
</g>
<g id="chevron-right">
</g>
<g id="cross">
</g>
<g id="search">
</g>
<g id="hamburger">
</g>
</svg>
