<?xml version="1.0" encoding="utf-8"?>
<!-- Generator: Adobe Illustrator 16.0.0, SVG Export Plug-In . SVG Version: 6.00 Build 0)  -->
<!DOCTYPE svg PUBLIC "-//W3C//DTD SVG 1.1//EN" "http://www.w3.org/Graphics/SVG/1.1/DTD/svg11.dtd">
<svg version="1.1" xmlns="http://www.w3.org/2000/svg" xmlns:xlink="http://www.w3.org/1999/xlink" x="0px" y="0px" width="64px"
	 height="64px" viewBox="0 0 64 64" enable-background="new 0 0 64 64" xml:space="preserve">
<g id="eye">
	<path fill="#1D1D1B" d="M63.58,14.88c-0.379-0.478-0.959-0.758-1.574-0.758H10.104L8.409,4.626
		C8.396,4.551,8.352,4.494,8.328,4.423C8.289,4.291,8.246,4.169,8.18,4.052c-0.059-0.11-0.125-0.204-0.203-0.3
		C7.893,3.651,7.808,3.559,7.704,3.476C7.61,3.399,7.516,3.338,7.408,3.28C7.291,3.213,7.174,3.161,7.045,3.119
		C6.925,3.08,6.802,3.061,6.674,3.046C6.594,3.037,6.525,3,6.445,3h-4.45C0.893,3,0,3.879,0,4.966c0,1.086,0.893,1.966,1.995,1.966
		H4.77l6.848,38.343l0.027,0.161c0,0.002,0,0.002,0,0.004l1.876,10.501c0.167,0.941,0.995,1.627,1.966,1.627h4.346
		c-1.182,0.072-2.126,1.02-2.126,2.203c0,1.23,1.013,2.229,2.263,2.229s2.264-0.998,2.264-2.229c0-1.184-0.947-2.131-2.128-2.203
		h28.047c-1.183,0.072-2.128,1.02-2.128,2.203c0,1.23,1.014,2.229,2.264,2.229c1.248,0,2.262-0.998,2.262-2.229
		c0-1.184-0.943-2.131-2.127-2.203h2.609c1.104,0,1.996-0.88,1.996-1.967c0-1.086-0.893-1.966-1.996-1.966H17.16l-1.173-6.567
		h38.552c0.914,0,1.711-0.61,1.935-1.482l7.464-29.014C64.09,15.982,63.957,15.36,63.58,14.88z M52.988,43.137H15.291l-4.376-25.082
		h48.526L52.988,43.137z"/>
</g>
<g id="comment">
</g>
<g id="map-marker">
</g>
<g id="earth">
</g>
<g id="heart">
</g>
<g id="twitter">
</g>
<g id="bucket">
</g>
<g id="paperclip">
</g>
<g id="undo">
</g>
<g id="redo">
</g>
<g id="chevron-left">
</g>
<g id="chevron-right">
</g>
<g id="cross">
</g>
<g id="search">
</g>
<g id="hamburger">
</g>
</svg>
