<?xml version="1.0" encoding="utf-8"?>
<!-- Generator: Adobe Illustrator 16.0.0, SVG Export Plug-In . SVG Version: 6.00 Build 0)  -->
<!DOCTYPE svg PUBLIC "-//W3C//DTD SVG 1.1//EN" "http://www.w3.org/Graphics/SVG/1.1/DTD/svg11.dtd">
<svg version="1.1" xmlns="http://www.w3.org/2000/svg" xmlns:xlink="http://www.w3.org/1999/xlink" x="0px" y="0px" width="64px"
	 height="64px" viewBox="0 0 64 64" enable-background="new 0 0 64 64" xml:space="preserve">
<g id="eye">
	<g>
		<path fill="#1D1D1B" d="M32,0C14.355,0,0,14.355,0,32s14.355,32,32,32s32-14.355,32-32S49.645,0,32,0z M32,60
			C16.561,60,4,47.439,4,32S16.561,4,32,4s28,12.561,28,28S47.439,60,32,60z"/>
		<circle fill="#1D1D1B" cx="20.518" cy="21.361" r="4.338"/>
		<circle fill="#1D1D1B" cx="43.48" cy="21.361" r="4.338"/>
		<path fill="#1D1D1B" d="M52.541,36.568c-1.053-0.316-2.172,0.287-2.488,1.344C50.018,38.031,46.314,49.859,32,49.859
			c-14.219,0-17.904-11.467-18.055-11.955c-0.32-1.055-1.441-1.65-2.486-1.336C10.4,36.885,9.799,38,10.115,39.057
			C10.16,39.205,14.742,53.859,32,53.859s21.84-14.654,21.885-14.803C54.201,38,53.6,36.885,52.541,36.568z"/>
	</g>
</g>
<g id="comment">
</g>
<g id="map-marker">
</g>
<g id="earth">
</g>
<g id="heart">
</g>
<g id="twitter">
</g>
<g id="bucket">
</g>
<g id="paperclip">
</g>
<g id="undo">
</g>
<g id="redo">
</g>
<g id="chevron-left">
</g>
<g id="chevron-right">
</g>
<g id="cross">
</g>
<g id="search">
</g>
<g id="hamburger">
</g>
</svg>
