<?xml version="1.0" encoding="utf-8"?>
<!-- Generator: Adobe Illustrator 16.0.0, SVG Export Plug-In . SVG Version: 6.00 Build 0)  -->
<!DOCTYPE svg PUBLIC "-//W3C//DTD SVG 1.1//EN" "http://www.w3.org/Graphics/SVG/1.1/DTD/svg11.dtd">
<svg version="1.1" xmlns="http://www.w3.org/2000/svg" xmlns:xlink="http://www.w3.org/1999/xlink" x="0px" y="0px" width="64px"
	 height="64px" viewBox="0 0 64 64" enable-background="new 0 0 64 64" xml:space="preserve">
<g id="eye">
	<path fill="#1D1D1B" d="M14.924,39.537l-3.557,20.278c-0.143,0.814,0.222,1.633,0.921,2.072c0.699,0.437,1.597,0.409,2.266-0.075
		l17.505-12.653l17.506,12.653c0.354,0.254,0.771,0.385,1.189,0.385c0.372,0,0.746-0.104,1.076-0.31
		c0.699-0.439,1.064-1.258,0.922-2.072l-3.559-20.278l14.152-12.473c0.59-0.521,0.827-1.334,0.605-2.091
		c-0.221-0.755-0.857-1.315-1.635-1.438l-21.377-3.33L33.933,3.363c-0.315-0.757-1.054-1.25-1.874-1.25
		c-0.818,0-1.558,0.493-1.873,1.25l-7.008,16.843l-21.375,3.33c-0.778,0.122-1.415,0.683-1.637,1.438
		c-0.221,0.757,0.017,1.569,0.607,2.091L14.924,39.537z M24.927,24.042c0.698-0.108,1.29-0.575,1.562-1.225l5.57-13.393
		l5.572,13.393c0.271,0.649,0.862,1.116,1.561,1.225l18.225,2.838L45.657,37.247c-0.53,0.466-0.778,1.175-0.657,1.87l2.891,16.479
		L33.248,45.01c-0.354-0.257-0.771-0.384-1.189-0.384c-0.416,0-0.834,0.127-1.188,0.384L16.227,55.596l2.892-16.479
		c0.122-0.695-0.126-1.404-0.657-1.87L6.703,26.88L24.927,24.042z"/>
</g>
<g id="comment">
</g>
<g id="map-marker">
</g>
<g id="earth">
</g>
<g id="heart">
</g>
<g id="twitter">
</g>
<g id="bucket">
</g>
<g id="paperclip">
</g>
<g id="undo">
</g>
<g id="redo">
</g>
<g id="chevron-left">
</g>
<g id="chevron-right">
</g>
<g id="cross">
</g>
<g id="search">
</g>
<g id="hamburger">
</g>
</svg>
