<?xml version="1.0" encoding="utf-8"?>
<!-- Generator: Adobe Illustrator 16.0.0, SVG Export Plug-In . SVG Version: 6.00 Build 0)  -->
<!DOCTYPE svg PUBLIC "-//W3C//DTD SVG 1.1//EN" "http://www.w3.org/Graphics/SVG/1.1/DTD/svg11.dtd">
<svg version="1.1" xmlns="http://www.w3.org/2000/svg" xmlns:xlink="http://www.w3.org/1999/xlink" x="0px" y="0px" width="64px"
	 height="64px" viewBox="0 0 64 64" enable-background="new 0 0 64 64" xml:space="preserve">
<g id="eye">
	<path fill="#1D1D1B" d="M14.831,39.619l-3.569,20.34c-0.143,0.816,0.222,1.637,0.924,2.079c0.703,0.437,1.602,0.409,2.271-0.076
		l17.56-12.692l17.561,12.692c0.353,0.255,0.771,0.386,1.192,0.386c0.373,0,0.747-0.104,1.078-0.31
		c0.702-0.442,1.067-1.263,0.925-2.079l-3.569-20.34l14.194-12.512c0.593-0.522,0.831-1.337,0.608-2.097
		c-0.221-0.758-0.859-1.319-1.64-1.44l-21.441-3.342L33.896,3.335c-0.314-0.759-1.058-1.254-1.879-1.254
		c-0.82,0-1.563,0.495-1.878,1.254l-7.03,16.894L1.668,23.57c-0.781,0.121-1.419,0.683-1.64,1.44
		c-0.223,0.76,0.016,1.574,0.608,2.097L14.831,39.619z"/>
</g>
<g id="comment">
</g>
<g id="map-marker">
</g>
<g id="earth">
</g>
<g id="heart">
</g>
<g id="twitter">
</g>
<g id="bucket">
</g>
<g id="paperclip">
</g>
<g id="undo">
</g>
<g id="redo">
</g>
<g id="chevron-left">
</g>
<g id="chevron-right">
</g>
<g id="cross">
</g>
<g id="search">
</g>
<g id="hamburger">
</g>
</svg>
