<?xml version="1.0" encoding="utf-8"?>
<!-- Generator: Adobe Illustrator 16.0.0, SVG Export Plug-In . SVG Version: 6.00 Build 0)  -->
<!DOCTYPE svg PUBLIC "-//W3C//DTD SVG 1.1//EN" "http://www.w3.org/Graphics/SVG/1.1/DTD/svg11.dtd">
<svg version="1.1" xmlns="http://www.w3.org/2000/svg" xmlns:xlink="http://www.w3.org/1999/xlink" x="0px" y="0px" width="64px"
	 height="64px" viewBox="0 0 64 64" enable-background="new 0 0 64 64" xml:space="preserve">
<g id="eye">
	<path fill="#1D1D1B" d="M14.821,39.538L11.25,59.9c-0.144,0.818,0.223,1.639,0.925,2.081c0.33,0.207,0.708,0.311,1.083,0.311
		c0.418,0,0.837-0.132,1.194-0.386L32.028,49.2l17.576,12.706c0.356,0.254,0.776,0.386,1.193,0.386c0.375,0,0.753-0.104,1.083-0.311
		c0.702-0.442,1.068-1.263,0.925-2.081l-3.571-20.362l14.21-12.525c0.594-0.523,0.83-1.339,0.609-2.099
		c-0.224-0.758-0.863-1.321-1.644-1.442l-21.465-3.345L33.91,3.214c-0.02-0.045-0.058-0.073-0.079-0.114
		c-0.096-0.197-0.208-0.387-0.367-0.541c-0.143-0.144-0.317-0.241-0.492-0.335c-0.059-0.032-0.098-0.084-0.159-0.107
		c-0.004-0.002-0.004,0-0.006-0.002c-0.245-0.102-0.51-0.153-0.778-0.153c-0.271,0-0.533,0.052-0.78,0.153c0,0-0.002,0-0.004,0.002
		c-0.052,0.02-0.084,0.063-0.131,0.087c-0.188,0.098-0.373,0.204-0.523,0.355c-0.155,0.154-0.265,0.342-0.362,0.537
		c-0.022,0.043-0.062,0.071-0.082,0.118L23.11,20.127L1.646,23.472c-0.78,0.121-1.42,0.685-1.644,1.442
		c-0.221,0.76,0.016,1.575,0.609,2.099L14.821,39.538z M39.191,23.979l18.298,2.85l-11.808,10.41
		c-0.531,0.468-0.78,1.18-0.659,1.878l2.903,16.546L33.222,45.033c-0.023-0.016-0.051-0.02-0.075-0.035
		c-0.123-0.079-0.255-0.124-0.389-0.176c-0.114-0.043-0.225-0.104-0.344-0.125c-0.127-0.026-0.255-0.015-0.386-0.015V9.301
		l5.595,13.448C37.894,23.401,38.489,23.869,39.191,23.979z"/>
</g>
<g id="comment">
</g>
<g id="map-marker">
</g>
<g id="earth">
</g>
<g id="heart">
</g>
<g id="twitter">
</g>
<g id="bucket">
</g>
<g id="paperclip">
</g>
<g id="undo">
</g>
<g id="redo">
</g>
<g id="chevron-left">
</g>
<g id="chevron-right">
</g>
<g id="cross">
</g>
<g id="search">
</g>
<g id="hamburger">
</g>
</svg>
