<?xml version="1.0" encoding="utf-8"?>
<!-- Generator: Adobe Illustrator 16.0.0, SVG Export Plug-In . SVG Version: 6.00 Build 0)  -->
<!DOCTYPE svg PUBLIC "-//W3C//DTD SVG 1.1//EN" "http://www.w3.org/Graphics/SVG/1.1/DTD/svg11.dtd">
<svg version="1.1" xmlns="http://www.w3.org/2000/svg" xmlns:xlink="http://www.w3.org/1999/xlink" x="0px" y="0px" width="64px"
	 height="64px" viewBox="0 0 64 64" enable-background="new 0 0 64 64" xml:space="preserve">
<g id="eye">
	<g>
		<path fill="#1D1D1B" d="M16.939,40.09H8.801c-1.173,0-2.122,0.949-2.122,2.122v19.666C6.679,63.051,7.628,64,8.801,64h8.139
			c1.173,0,2.122-0.949,2.122-2.122V42.212C19.062,41.039,18.112,40.09,16.939,40.09z M14.817,59.756h-3.895V44.334h3.895V59.756z"
			/>
		<path fill="#1D1D1B" d="M35.803,25.216h-8.139c-1.173,0-2.122,0.949-2.122,2.122v34.54c0,1.173,0.949,2.122,2.122,2.122h8.139
			c1.173,0,2.122-0.949,2.122-2.122v-34.54C37.925,26.165,36.976,25.216,35.803,25.216z M33.681,59.756h-3.895V29.46h3.895V59.756z"
			/>
		<path fill="#1D1D1B" d="M54.878,9.771h-8.139c-1.173,0-2.122,0.949-2.122,2.122v49.985c0,1.173,0.949,2.122,2.122,2.122h8.139
			C56.051,64,57,63.051,57,61.878V11.893C57,10.72,56.051,9.771,54.878,9.771z M52.756,59.756h-3.895V14.015h3.895V59.756z"/>
	</g>
</g>
<g id="comment">
</g>
<g id="map-marker">
</g>
<g id="earth">
</g>
<g id="heart">
</g>
<g id="twitter">
</g>
<g id="bucket">
</g>
<g id="paperclip">
</g>
<g id="undo">
</g>
<g id="redo">
</g>
<g id="chevron-left">
</g>
<g id="chevron-right">
</g>
<g id="cross">
</g>
<g id="search">
</g>
<g id="hamburger">
</g>
</svg>
