<?xml version="1.0" encoding="utf-8"?>
<!-- Generator: Adobe Illustrator 16.0.0, SVG Export Plug-In . SVG Version: 6.00 Build 0)  -->
<!DOCTYPE svg PUBLIC "-//W3C//DTD SVG 1.1//EN" "http://www.w3.org/Graphics/SVG/1.1/DTD/svg11.dtd">
<svg version="1.1" xmlns="http://www.w3.org/2000/svg" xmlns:xlink="http://www.w3.org/1999/xlink" x="0px" y="0px" width="64px"
	 height="64px" viewBox="0 0 64 64" enable-background="new 0 0 64 64" xml:space="preserve">
<g id="eye">
	<g>
		<path fill="#1D1D1B" d="M31.963,17.177c-8.13,0-14.743,6.613-14.743,14.743c0,8.128,6.613,14.741,14.743,14.741
			c8.131,0,14.743-6.613,14.743-14.741C46.706,23.791,40.094,17.177,31.963,17.177z M31.963,42.644
			c-5.915,0-10.726-4.811-10.726-10.724c0-5.915,4.811-10.726,10.726-10.726s10.726,4.811,10.726,10.726
			C42.688,37.833,37.878,42.644,31.963,42.644z"/>
		<path fill="#1D1D1B" d="M31.963,14.15c1.111,0,2.01-0.898,2.01-2.009V1.938c0-1.11-0.898-2.009-2.01-2.009
			c-1.109,0-2.009,0.898-2.009,2.009v10.203C29.954,13.251,30.854,14.15,31.963,14.15z"/>
		<path fill="#1D1D1B" d="M31.963,49.707c-1.109,0-2.009,0.898-2.009,2.009V61.92c0,1.11,0.899,2.009,2.009,2.009
			c1.111,0,2.01-0.898,2.01-2.009V51.715C33.973,50.605,33.074,49.707,31.963,49.707z"/>
		<path fill="#1D1D1B" d="M61.919,29.927H51.715c-1.11,0-2.009,0.898-2.009,2.009s0.898,2.009,2.009,2.009h10.204
			c1.11,0,2.009-0.898,2.009-2.009S63.029,29.927,61.919,29.927z"/>
		<path fill="#1D1D1B" d="M14.146,31.936c0-1.11-0.898-2.009-2.009-2.009h-10.2c-1.109,0-2.008,0.898-2.008,2.009
			s0.898,2.009,2.008,2.009h10.2C13.247,33.945,14.146,33.046,14.146,31.936z"/>
		<path fill="#1D1D1B" d="M47.285,18.622c0.514,0,1.028-0.196,1.421-0.589l5.219-5.219c0.784-0.784,0.784-2.056,0-2.84
			c-0.785-0.785-2.057-0.785-2.842,0l-5.218,5.218c-0.785,0.785-0.785,2.056,0,2.841C46.258,18.425,46.771,18.622,47.285,18.622z"/>
		<path fill="#1D1D1B" d="M15.221,45.835l-5.227,5.23c-0.784,0.784-0.784,2.058,0,2.84c0.393,0.392,0.906,0.588,1.421,0.588
			c0.514,0,1.027-0.196,1.42-0.588l5.227-5.23c0.784-0.785,0.784-2.058,0-2.841C17.276,45.05,16.005,45.05,15.221,45.835z"/>
		<path fill="#1D1D1B" d="M15.209,18.035c0.393,0.393,0.906,0.589,1.42,0.589c0.515,0,1.028-0.196,1.421-0.589
			c0.784-0.785,0.784-2.056,0-2.841l-5.219-5.218c-0.785-0.785-2.057-0.785-2.841,0c-0.784,0.784-0.784,2.056,0,2.84L15.209,18.035z
			"/>
		<path fill="#1D1D1B" d="M48.694,45.837c-0.785-0.785-2.057-0.785-2.841,0c-0.785,0.785-0.785,2.058,0,2.841l5.229,5.226
			c0.393,0.392,0.906,0.588,1.421,0.588c0.514,0,1.028-0.196,1.421-0.588c0.784-0.785,0.784-2.058,0-2.84L48.694,45.837z"/>
	</g>
</g>
<g id="comment">
</g>
<g id="map-marker">
</g>
<g id="earth">
</g>
<g id="heart">
</g>
<g id="twitter">
</g>
<g id="bucket">
</g>
<g id="paperclip">
</g>
<g id="undo">
</g>
<g id="redo">
</g>
<g id="chevron-left">
</g>
<g id="chevron-right">
</g>
<g id="cross">
</g>
<g id="search">
</g>
<g id="hamburger">
</g>
</svg>
