<?xml version="1.0" encoding="utf-8"?>
<!-- Generator: Adobe Illustrator 16.0.0, SVG Export Plug-In . SVG Version: 6.00 Build 0)  -->
<!DOCTYPE svg PUBLIC "-//W3C//DTD SVG 1.1//EN" "http://www.w3.org/Graphics/SVG/1.1/DTD/svg11.dtd">
<svg version="1.1" xmlns="http://www.w3.org/2000/svg" xmlns:xlink="http://www.w3.org/1999/xlink" x="0px" y="0px" width="64px"
	 height="64px" viewBox="0 0 64 64" enable-background="new 0 0 64 64" xml:space="preserve">
<g id="eye">
	<g>
		<path fill="#1D1D1B" d="M63.406,39.309L24.692,0.592c-0.42-0.418-0.994-0.629-1.597-0.578L3.812,1.732
			C2.856,1.818,2.097,2.57,1.999,3.523L0.004,23.086c-0.061,0.599,0.15,1.193,0.576,1.617L39.294,63.42
			c0.391,0.391,0.902,0.586,1.415,0.586c0.512,0,1.023-0.195,1.414-0.586l21.283-21.283c0.377-0.375,0.588-0.883,0.588-1.414
			S63.783,39.684,63.406,39.309z M40.709,59.176L4.081,22.547L5.813,5.572l16.708-1.49l36.642,36.641L40.709,59.176z"/>
		<path fill="#1D1D1B" d="M13.974,13.711c-1.318,1.318-2.042,3.07-2.042,4.932c-0.002,1.863,0.724,3.615,2.04,4.932
			c1.32,1.318,3.072,2.045,4.937,2.045c1.863,0,3.613-0.725,4.931-2.043c2.719-2.721,2.719-7.145-0.002-9.865
			C21.203,11.076,16.608,11.076,13.974,13.711z M21.01,20.748c-1.123,1.123-3.083,1.123-4.206-0.002
			c-0.561-0.562-0.869-1.309-0.869-2.104c0-0.793,0.309-1.539,0.869-2.102s1.307-0.871,2.103-0.871c0.795,0,1.541,0.309,2.102,0.871
			C22.166,17.701,22.166,19.588,21.01,20.748z"/>
	</g>
</g>
<g id="comment">
</g>
<g id="map-marker">
</g>
<g id="earth">
</g>
<g id="heart">
</g>
<g id="twitter">
</g>
<g id="bucket">
</g>
<g id="paperclip">
</g>
<g id="undo">
</g>
<g id="redo">
</g>
<g id="chevron-left">
</g>
<g id="chevron-right">
</g>
<g id="cross">
</g>
<g id="search">
</g>
<g id="hamburger">
</g>
</svg>
