<?xml version="1.0" encoding="utf-8"?>
<!-- Generator: Adobe Illustrator 16.0.0, SVG Export Plug-In . SVG Version: 6.00 Build 0)  -->
<!DOCTYPE svg PUBLIC "-//W3C//DTD SVG 1.1//EN" "http://www.w3.org/Graphics/SVG/1.1/DTD/svg11.dtd">
<svg version="1.1" xmlns="http://www.w3.org/2000/svg" xmlns:xlink="http://www.w3.org/1999/xlink" x="0px" y="0px" width="64px"
	 height="64px" viewBox="0 0 64 64" enable-background="new 0 0 64 64" xml:space="preserve">
<g id="eye">
	<g>
		<path fill="#1D1D1B" d="M13.945,0.008H6c-3.309,0-6,2.691-6,6v7.941c0,3.309,2.691,6,6,6h7.945c3.309,0,6-2.691,6-6V6.008
			C19.945,2.699,17.254,0.008,13.945,0.008z M15.945,13.949c0,1.103-0.898,2-2,2H6c-1.102,0-2-0.897-2-2V6.008c0-1.103,0.898-2,2-2
			h7.945c1.102,0,2,0.897,2,2V13.949z"/>
		<path fill="#1D1D1B" d="M58,0H28.018c-3.309,0-6,2.691-6,6v7.943c0,3.309,2.691,6,6,6H58c3.309,0,6-2.691,6-6V6
			C64,2.691,61.309,0,58,0z M60,13.943c0,1.103-0.896,2-2,2H28.018c-1.104,0-2-0.897-2-2V6c0-1.103,0.896-2,2-2H58
			c1.104,0,2,0.897,2,2V13.943z"/>
		<path fill="#1D1D1B" d="M13.945,22.037H6c-3.309,0-6,2.691-6,6v7.941c0,3.309,2.691,6,6,6h7.945c3.309,0,6-2.691,6-6v-7.941
			C19.945,24.729,17.254,22.037,13.945,22.037z M15.945,35.979c0,1.103-0.898,2-2,2H6c-1.102,0-2-0.897-2-2v-7.941
			c0-1.103,0.898-2,2-2h7.945c1.102,0,2,0.897,2,2V35.979z"/>
		<path fill="#1D1D1B" d="M58,22.029H28.018c-3.309,0-6,2.691-6,6v7.943c0,3.309,2.691,6,6,6H58c3.309,0,6-2.691,6-6v-7.943
			C64,24.721,61.309,22.029,58,22.029z M60,35.973c0,1.103-0.896,2-2,2H28.018c-1.104,0-2-0.897-2-2v-7.943c0-1.103,0.896-2,2-2H58
			c1.104,0,2,0.897,2,2V35.973z"/>
		<path fill="#1D1D1B" d="M13.945,44.057H6c-3.309,0-6,2.691-6,6V58c0,3.309,2.691,6,6,6h7.945c3.309,0,6-2.691,6-6v-7.943
			C19.945,46.748,17.254,44.057,13.945,44.057z M15.945,58c0,1.103-0.898,2-2,2H6c-1.102,0-2-0.897-2-2v-7.943c0-1.103,0.898-2,2-2
			h7.945c1.102,0,2,0.897,2,2V58z"/>
		<path fill="#1D1D1B" d="M58,44.049H28.018c-3.309,0-6,2.691-6,6v7.943c0,3.309,2.691,6,6,6H58c3.309,0,6-2.691,6-6v-7.943
			C64,46.74,61.309,44.049,58,44.049z M60,57.992c0,1.103-0.896,2-2,2H28.018c-1.104,0-2-0.897-2-2v-7.943c0-1.103,0.896-2,2-2H58
			c1.104,0,2,0.897,2,2V57.992z"/>
	</g>
</g>
<g id="comment">
</g>
<g id="map-marker">
</g>
<g id="earth">
</g>
<g id="heart">
</g>
<g id="twitter">
</g>
<g id="bucket">
</g>
<g id="paperclip">
</g>
<g id="undo">
</g>
<g id="redo">
</g>
<g id="chevron-left">
</g>
<g id="chevron-right">
</g>
<g id="cross">
</g>
<g id="search">
</g>
<g id="hamburger">
</g>
</svg>
