<?xml version="1.0" encoding="utf-8"?>
<!-- Generator: Adobe Illustrator 16.0.0, SVG Export Plug-In . SVG Version: 6.00 Build 0)  -->
<!DOCTYPE svg PUBLIC "-//W3C//DTD SVG 1.1//EN" "http://www.w3.org/Graphics/SVG/1.1/DTD/svg11.dtd">
<svg version="1.1" xmlns="http://www.w3.org/2000/svg" xmlns:xlink="http://www.w3.org/1999/xlink" x="0px" y="0px" width="64px"
	 height="64px" viewBox="0 0 64 64" enable-background="new 0 0 64 64" xml:space="preserve">
<g id="eye">
	<g>
		<path fill="#1D1D1B" d="M13.883-0.055H5.938c-3.309,0-6,2.691-6,6v7.941c0,3.309,2.691,6,6,6h7.945c3.309,0,6-2.691,6-6V5.945
			C19.883,2.637,17.191-0.055,13.883-0.055z M15.883,13.887c0,1.103-0.898,2-2,2H5.938c-1.102,0-2-0.897-2-2V5.945
			c0-1.103,0.898-2,2-2h7.945c1.102,0,2,0.897,2,2V13.887z"/>
		<path fill="#1D1D1B" d="M57.938-0.062h-7.945c-3.309,0-6,2.691-6,6v7.943c0,3.309,2.691,6,6,6h7.945c3.309,0,6-2.691,6-6V5.938
			C63.938,2.629,61.246-0.062,57.938-0.062z M59.938,13.881c0,1.103-0.896,2-2,2h-7.945c-1.102,0-2-0.897-2-2V5.938
			c0-1.103,0.898-2,2-2h7.945c1.104,0,2,0.897,2,2V13.881z"/>
		<path fill="#1D1D1B" d="M35.9-0.062h-7.945c-3.309,0-6,2.691-6,6v7.943c0,3.309,2.691,6,6,6H35.9c3.309,0,6-2.691,6-6V5.938
			C41.9,2.629,39.209-0.062,35.9-0.062z M37.9,13.881c0,1.103-0.896,2-2,2h-7.945c-1.104,0-2-0.897-2-2V5.938c0-1.103,0.896-2,2-2
			H35.9c1.104,0,2,0.897,2,2V13.881z"/>
		<path fill="#1D1D1B" d="M13.883,21.975H5.938c-3.309,0-6,2.691-6,6v7.941c0,3.309,2.691,6,6,6h7.945c3.309,0,6-2.691,6-6v-7.941
			C19.883,24.666,17.191,21.975,13.883,21.975z M15.883,35.916c0,1.103-0.898,2-2,2H5.938c-1.102,0-2-0.897-2-2v-7.941
			c0-1.103,0.898-2,2-2h7.945c1.102,0,2,0.897,2,2V35.916z"/>
		<path fill="#1D1D1B" d="M57.938,21.967h-7.945c-3.309,0-6,2.691-6,6v7.943c0,3.309,2.691,6,6,6h7.945c3.309,0,6-2.691,6-6v-7.943
			C63.938,24.658,61.246,21.967,57.938,21.967z M59.938,35.91c0,1.103-0.896,2-2,2h-7.945c-1.102,0-2-0.897-2-2v-7.943
			c0-1.103,0.898-2,2-2h7.945c1.104,0,2,0.897,2,2V35.91z"/>
		<path fill="#1D1D1B" d="M35.9,21.967h-7.945c-3.309,0-6,2.691-6,6v7.943c0,3.309,2.691,6,6,6H35.9c3.309,0,6-2.691,6-6v-7.943
			C41.9,24.658,39.209,21.967,35.9,21.967z M37.9,35.91c0,1.103-0.896,2-2,2h-7.945c-1.104,0-2-0.897-2-2v-7.943
			c0-1.103,0.896-2,2-2H35.9c1.104,0,2,0.897,2,2V35.91z"/>
		<path fill="#1D1D1B" d="M13.883,43.994H5.938c-3.309,0-6,2.691-6,6v7.943c0,3.309,2.691,6,6,6h7.945c3.309,0,6-2.691,6-6v-7.943
			C19.883,46.686,17.191,43.994,13.883,43.994z M15.883,57.938c0,1.103-0.898,2-2,2H5.938c-1.102,0-2-0.897-2-2v-7.943
			c0-1.103,0.898-2,2-2h7.945c1.102,0,2,0.897,2,2V57.938z"/>
		<path fill="#1D1D1B" d="M57.938,43.986h-7.945c-3.309,0-6,2.691-6,6v7.943c0,3.309,2.691,6,6,6h7.945c3.309,0,6-2.691,6-6v-7.943
			C63.938,46.678,61.246,43.986,57.938,43.986z M59.938,57.93c0,1.103-0.896,2-2,2h-7.945c-1.102,0-2-0.897-2-2v-7.943
			c0-1.103,0.898-2,2-2h7.945c1.104,0,2,0.897,2,2V57.93z"/>
		<path fill="#1D1D1B" d="M35.9,43.986h-7.945c-3.309,0-6,2.691-6,6v7.943c0,3.309,2.691,6,6,6H35.9c3.309,0,6-2.691,6-6v-7.943
			C41.9,46.678,39.209,43.986,35.9,43.986z M37.9,57.93c0,1.103-0.896,2-2,2h-7.945c-1.104,0-2-0.897-2-2v-7.943
			c0-1.103,0.896-2,2-2H35.9c1.104,0,2,0.897,2,2V57.93z"/>
	</g>
</g>
<g id="comment">
</g>
<g id="map-marker">
</g>
<g id="earth">
</g>
<g id="heart">
</g>
<g id="twitter">
</g>
<g id="bucket">
</g>
<g id="paperclip">
</g>
<g id="undo">
</g>
<g id="redo">
</g>
<g id="chevron-left">
</g>
<g id="chevron-right">
</g>
<g id="cross">
</g>
<g id="search">
</g>
<g id="hamburger">
</g>
</svg>
