<?xml version="1.0" encoding="utf-8"?>
<!-- Generator: Adobe Illustrator 16.0.0, SVG Export Plug-In . SVG Version: 6.00 Build 0)  -->
<!DOCTYPE svg PUBLIC "-//W3C//DTD SVG 1.1//EN" "http://www.w3.org/Graphics/SVG/1.1/DTD/svg11.dtd">
<svg version="1.1" xmlns="http://www.w3.org/2000/svg" xmlns:xlink="http://www.w3.org/1999/xlink" x="0px" y="0px" width="64px"
	 height="64px" viewBox="0 0 64 64" enable-background="new 0 0 64 64" xml:space="preserve">
<g id="eye">
	<path fill="#1D1D1B" d="M61.095,34.245c0.669-0.965,1.217-2.206,1.221-3.686c0.006-1.941-0.923-3.777-2.764-5.477
		c0.23-0.361,0.42-0.78,0.542-1.269c0.475-1.908-0.296-4.002-2.357-6.375c0.222-0.624,0.324-1.351,0.21-2.149
		c-0.418-2.893-3.445-5.554-9.251-8.136c-1.029-0.564-5.968-2.733-17.703-0.167c-0.152,0.033-0.37,0.119-0.509,0.186
		c-0.029,0.016-2.997,1.361-9.21-2.277c-0.007-0.004-0.016-0.004-0.023-0.008c-1.083-1.616-2.923-2.685-5.013-2.685H6.03
		C2.705,2.203,0,4.905,0,8.227v30.857c0,3.322,2.705,6.024,6.03,6.024h10.207c1.671,0,3.185-0.685,4.278-1.787
		c2.514,0.381,14.741,2.663,15.932,11.078c0.577,4.081,1.797,6.512,3.731,7.434c0.555,0.265,1.113,0.369,1.628,0.369
		c0.549,0,1.05-0.118,1.453-0.289c0.708-0.186,2.159-0.749,3.269-2.386c1.63-2.402,1.835-6.048,0.628-10.758l-0.941-4.404
		l8.146,1.747c0.825,0.261,4.541,1.274,7.212-0.636c1.105-0.79,2.424-2.382,2.422-5.377C64.068,38.616,63.468,35.965,61.095,34.245z
		 M18.247,39.084c0,1.108-0.902,2.008-2.01,2.008H6.03c-1.108,0-2.01-0.9-2.01-2.008V8.227c0-1.108,0.902-2.008,2.01-2.008h10.207
		c1.108,0,2.01,0.9,2.01,2.008V39.084z M59.238,42.207c-0.928,0.67-2.903,0.328-3.704,0.064c-0.074-0.025-0.151-0.047-0.228-0.062
		l-11.283-2.419c-0.667-0.149-1.36,0.061-1.842,0.541c-0.483,0.483-0.688,1.175-0.546,1.842l1.608,7.516
		c1.182,4.618,0.523,6.671,0.024,7.483c-0.434,0.708-0.956,0.843-0.935,0.845c-0.171,0.021-0.339,0.066-0.499,0.131
		c-0.235-0.225-0.961-1.155-1.407-4.308c-1.453-10.27-13.612-13.46-18.206-14.305c0.011-0.151,0.045-0.296,0.045-0.449V9.902
		c5.451,2.365,8.729,1.427,9.806,0.958c10.712-2.306,14.632-0.218,14.638-0.218c0.083,0.053,0.171,0.1,0.261,0.14
		c6.23,2.755,6.913,4.675,6.985,5.032c0.036,0.175,0.004,0.313-0.023,0.357c-0.428,0.362-0.685,0.888-0.708,1.449
		s0.19,1.105,0.589,1.503c2.593,2.587,2.389,3.669,2.379,3.712c-0.045,0.206-0.387,0.371-0.426,0.386
		c-0.744,0.228-1.29,0.863-1.399,1.632c-0.112,0.771,0.229,1.533,0.879,1.963c1.961,1.296,3.044,2.616,3.048,3.718
		c0.006,1.443-1.733,2.657-1.741,2.661c-0.671,0.439-1.017,1.235-0.879,2.025c0.139,0.791,0.734,1.422,1.515,1.608
		c2.695,0.642,2.795,2.693,2.786,3.169C59.976,41.11,59.729,41.854,59.238,42.207z"/>
</g>
<g id="comment">
</g>
<g id="map-marker">
</g>
<g id="earth">
</g>
<g id="heart">
</g>
<g id="twitter">
</g>
<g id="bucket">
</g>
<g id="paperclip">
</g>
<g id="undo">
</g>
<g id="redo">
</g>
<g id="chevron-left">
</g>
<g id="chevron-right">
</g>
<g id="cross">
</g>
<g id="search">
</g>
<g id="hamburger">
</g>
</svg>
