<?xml version="1.0" encoding="utf-8"?>
<!-- Generator: Adobe Illustrator 16.0.0, SVG Export Plug-In . SVG Version: 6.00 Build 0)  -->
<!DOCTYPE svg PUBLIC "-//W3C//DTD SVG 1.1//EN" "http://www.w3.org/Graphics/SVG/1.1/DTD/svg11.dtd">
<svg version="1.1" xmlns="http://www.w3.org/2000/svg" xmlns:xlink="http://www.w3.org/1999/xlink" x="0px" y="0px" width="64px"
	 height="64px" viewBox="0 0 64 64" enable-background="new 0 0 64 64" xml:space="preserve">
<g id="eye">
	<path fill="#1D1D1B" d="M63.994,24.293c0-3.097-1.318-4.689-2.424-5.479c-2.67-1.906-6.385-0.896-7.209-0.636l-8.148,1.747
		l0.924-4.326c1.226-4.788,1.021-8.434-0.609-10.836c-1.109-1.637-2.562-2.2-3.269-2.387c-0.778-0.331-1.931-0.465-3.081,0.08
		c-1.936,0.922-3.154,3.354-3.732,7.435c-1.189,8.415-13.416,10.696-15.932,11.077c-1.092-1.102-2.605-1.786-4.277-1.786H6.029
		C2.705,19.183,0,21.885,0,25.207v30.857c0,3.322,2.705,6.023,6.029,6.023h10.207c2.088,0,3.93-1.066,5.012-2.682
		c0.008-0.004,0.016-0.006,0.023-0.01c6.163-3.606,9.139-2.311,9.146-2.311v-0.002c0.181,0.104,0.373,0.178,0.573,0.221
		c11.731,2.569,16.673,0.4,17.704-0.166c5.807-2.582,8.834-5.243,9.25-8.136c0.115-0.798,0.012-1.526-0.209-2.149
		c2.059-2.373,2.83-4.469,2.355-6.375c-0.119-0.488-0.311-0.908-0.541-1.269c1.843-1.7,2.771-3.536,2.766-5.478
		c-0.004-1.48-0.553-2.721-1.219-3.686C63.469,28.332,64.068,25.701,63.994,24.293z M18.246,56.064c0,1.107-0.9,2.008-2.01,2.008
		H6.029c-1.108,0-2.01-0.9-2.01-2.008V25.207c0-1.108,0.901-2.009,2.01-2.009h10.207c1.109,0,2.01,0.9,2.01,2.009V56.064z
		 M57.191,27.462c-0.777,0.185-1.365,0.813-1.508,1.599c-0.141,0.783,0.2,1.582,0.859,2.027c0.018,0.012,1.76,1.226,1.754,2.668
		c-0.006,1.104-1.088,2.422-3.049,3.719c-0.633,0.418-0.95,1.166-0.859,1.92c0.09,0.752,0.623,1.402,1.336,1.66
		c0.082,0.029,0.424,0.194,0.469,0.398c0.01,0.045,0.213,1.128-2.381,3.715c-0.398,0.397-0.645,0.911-0.621,1.472
		c0.023,0.562,0.244,1.056,0.674,1.42c0.098,0.104,0.129,0.245,0.094,0.418c-0.073,0.356-0.756,2.276-6.986,5.032
		c-0.059,0.025-0.161,0.08-0.217,0.111c-0.041,0.021-3.957,2.115-14.684-0.19c-1.075-0.467-4.355-1.405-9.807,0.959V25.207
		c0-0.153-0.033-0.299-0.045-0.449c4.594-0.846,16.754-4.035,18.205-14.305c0.446-3.154,1.172-4.084,1.408-4.309
		c0.158,0.064,0.326,0.109,0.498,0.131c0.004,0.002,0.471,0.159,0.867,0.741c0.539,0.792,1.262,2.834,0.024,7.665l-1.591,7.438
		c-0.141,0.667,0.064,1.358,0.547,1.841c0.482,0.479,1.178,0.691,1.843,0.541l11.284-2.419c0.07-0.016,0.148-0.037,0.221-0.061
		c0.809-0.271,2.783-0.61,3.709,0.061c0.49,0.353,0.738,1.096,0.738,2.282C59.982,24.77,59.885,26.82,57.191,27.462z"/>
</g>
<g id="comment">
</g>
<g id="map-marker">
</g>
<g id="earth">
</g>
<g id="heart">
</g>
<g id="twitter">
</g>
<g id="bucket">
</g>
<g id="paperclip">
</g>
<g id="undo">
</g>
<g id="redo">
</g>
<g id="chevron-left">
</g>
<g id="chevron-right">
</g>
<g id="cross">
</g>
<g id="search">
</g>
<g id="hamburger">
</g>
</svg>
