<?xml version="1.0" encoding="utf-8"?>
<!-- Generator: Adobe Illustrator 16.0.0, SVG Export Plug-In . SVG Version: 6.00 Build 0)  -->
<!DOCTYPE svg PUBLIC "-//W3C//DTD SVG 1.1//EN" "http://www.w3.org/Graphics/SVG/1.1/DTD/svg11.dtd">
<svg version="1.1" xmlns="http://www.w3.org/2000/svg" xmlns:xlink="http://www.w3.org/1999/xlink" x="0px" y="0px" width="64px"
	 height="64px" viewBox="0 0 64 64" enable-background="new 0 0 64 64" xml:space="preserve">
<g id="eye">
	<g>
		<path fill="#1D1D1B" d="M38.463,64.008c-2.217,0-4.488-0.322-6.748-0.957c-3.957-0.896-11.838-5.299-12.633-15.373l-0.006-18.977
			H15c-1.104,0-2-0.895-2-2v-7.764c0-0.799,0.477-1.52,1.207-1.836c0.426-0.186,10.496-4.711,10.496-15.094c0-1.105,0.896-2,2-2
			h9.229c1.104,0,2,0.895,2,2V15.34h10.039c1.104,0,2,0.895,2,2v9.361c0,1.105-0.896,2-2,2H37.617v16.475
			c-0.004,0.635,0.211,2.449,1.207,3.451c1.234,1.238,3.639,1.049,6.918-0.43c0.514-0.229,1.098-0.234,1.617-0.012
			c0.516,0.225,0.914,0.654,1.096,1.188l2.949,8.602c0.271,0.791,0.021,1.668-0.627,2.197
			C50.586,60.328,45.994,64.008,38.463,64.008z M17,24.701h4.074c1.105,0,2,0.895,2,2V47.52c0.754,9.451,9.271,11.572,9.633,11.656
			c2,0.561,3.904,0.832,5.756,0.832c4.092,0,7.115-1.336,8.654-2.207l-1.766-5.15c-4.047,1.375-7.285,0.906-9.387-1.229
			c-2.34-2.377-2.354-5.885-2.348-6.277V26.701c0-1.105,0.895-2,2-2h10.354V19.34H35.932c-1.104,0-2-0.895-2-2V4.008h-5.326
			C27.645,13.502,20.02,18.537,17,20.174V24.701z"/>
	</g>
</g>
<g id="comment">
</g>
<g id="map-marker">
</g>
<g id="earth">
</g>
<g id="heart">
</g>
<g id="twitter">
</g>
<g id="bucket">
</g>
<g id="paperclip">
</g>
<g id="undo">
</g>
<g id="redo">
</g>
<g id="chevron-left">
</g>
<g id="chevron-right">
</g>
<g id="cross">
</g>
<g id="search">
</g>
<g id="hamburger">
</g>
</svg>
