<?xml version="1.0" encoding="utf-8"?>
<!-- Generator: Adobe Illustrator 16.0.0, SVG Export Plug-In . SVG Version: 6.00 Build 0)  -->
<!DOCTYPE svg PUBLIC "-//W3C//DTD SVG 1.1//EN" "http://www.w3.org/Graphics/SVG/1.1/DTD/svg11.dtd">
<svg version="1.1" xmlns="http://www.w3.org/2000/svg" xmlns:xlink="http://www.w3.org/1999/xlink" x="0px" y="0px" width="64px"
	 height="64px" viewBox="0 0 64 64" enable-background="new 0 0 64 64" xml:space="preserve">
<g id="eye">
	<path fill="#1FBDDB" d="M61.171,12.311c0.751-1.545,0.83-2.679,0.839-2.903c0.028-0.808-0.421-1.556-1.149-1.909
		c-0.726-0.348-1.593-0.242-2.208,0.281c-1.344,1.145-3.993,1.826-5.609,2.125c-2.779-2.486-5.889-3.746-9.258-3.746
		c-5.297,0-9.246,3.211-9.554,3.478c-4.469,4.468-5.125,8.688-4.881,11.451C14.631,19.035,8.254,9.564,7.978,9.145
		C7.59,8.549,6.899,8.222,6.208,8.214C5.496,8.236,4.846,8.627,4.495,9.246c-3.106,5.477-2.312,10.389-0.393,14.018
		c-0.197,0.027-0.395,0.088-0.581,0.176c-0.648,0.309-1.085,0.936-1.152,1.65c-0.475,5.08,1.979,8.838,4.938,11.348
		c-0.026,0.023-0.051,0.047-0.076,0.07c-0.506,0.48-0.73,1.186-0.596,1.871c0.997,5.062,4.939,7.664,8.271,8.981
		c-6.357,2.948-12.592,2.183-12.602,2.185c-0.972-0.123-1.891,0.441-2.204,1.363s0.071,1.938,0.916,2.422
		C7.583,57.094,14.39,59,21.249,59c12.758,0,21.194-6.557,21.588-6.869C57.592,39.818,58.181,25.76,57.983,21.519
		c2.242-1.846,4.978-5.304,5.579-6.075c0.579-0.744,0.572-1.787-0.015-2.522C62.979,12.207,62.006,11.97,61.171,12.311z
		 M54.83,18.787c-0.71,0.418-1.099,1.221-0.987,2.035c0.021,0.15,1.907,15.227-13.575,28.147c-0.076,0.06-7.663,5.956-19.019,5.956
		c-3.652,0-7.301-0.611-10.908-1.822c3.357-0.684,7.289-2.082,10.983-4.855c0.67-0.504,0.964-1.367,0.74-2.173
		c-0.224-0.808-0.92-1.396-1.754-1.484c-0.07-0.006-5.892-0.657-8.535-4.356c0.85-0.025,1.732-0.105,2.631-0.232
		c0.942-0.137,1.665-0.901,1.743-1.849c0.078-0.946-0.508-1.821-1.414-2.11c-0.078-0.024-6.651-2.178-8.078-7.596
		c0.884,0.249,1.905,0.442,3.018,0.486c0.863,0.064,1.695-0.514,1.996-1.354c0.299-0.838,0.016-1.776-0.694-2.313
		c-0.272-0.206-5.88-4.542-4.144-11.106c3.598,3.842,11.591,10.353,25.019,11.281c0.725,0.041,1.409-0.301,1.816-0.898
		s0.462-1.381,0.151-2.035c-0.087-0.186-2.091-4.604,3.153-9.861c0.029-0.023,3.028-2.414,6.815-2.414
		c2.562,0,4.966,1.104,7.145,3.281c0.442,0.441,1.065,0.654,1.687,0.582c0.217-0.027,1.07-0.139,2.205-0.394
		c-0.235,0.188-0.486,0.376-0.755,0.564c-0.776,0.546-1.074,1.557-0.716,2.437c0.358,0.881,1.274,1.4,2.214,1.242
		c0.066-0.012,0.202-0.033,0.394-0.067C55.52,18.292,55.128,18.611,54.83,18.787z"/>
</g>
<g id="comment">
</g>
<g id="map-marker">
</g>
<g id="earth">
</g>
<g id="heart">
</g>
<g id="twitter">
</g>
<g id="bucket">
</g>
<g id="paperclip">
</g>
<g id="undo">
</g>
<g id="redo">
</g>
<g id="chevron-left">
</g>
<g id="chevron-right">
</g>
<g id="cross">
</g>
<g id="search">
</g>
<g id="hamburger">
</g>
</svg>
