<?xml version="1.0" encoding="utf-8"?>
<!-- Generator: Adobe Illustrator 16.0.0, SVG Export Plug-In . SVG Version: 6.00 Build 0)  -->
<!DOCTYPE svg PUBLIC "-//W3C//DTD SVG 1.1//EN" "http://www.w3.org/Graphics/SVG/1.1/DTD/svg11.dtd">
<svg version="1.1" xmlns="http://www.w3.org/2000/svg" xmlns:xlink="http://www.w3.org/1999/xlink" x="0px" y="0px" width="64px"
	 height="64px" viewBox="0 0 64 64" enable-background="new 0 0 64 64" xml:space="preserve">
<g id="eye">
	<path fill="#1D1D1B" d="M1.253,42.328l9.126,5.32c0.025,0.014,0.051,0.019,0.076,0.032c0.081,0.043,0.165,0.073,0.252,0.105
		c0.085,0.031,0.168,0.063,0.256,0.082c0.08,0.018,0.162,0.024,0.246,0.032c0.062,0.006,0.125,0.024,0.187,0.024
		c0.036,0,0.069-0.012,0.104-0.014c0.031-0.001,0.063,0.007,0.096,0.004c0.051-0.005,0.095-0.026,0.144-0.035
		c0.098-0.017,0.192-0.037,0.286-0.069c0.078-0.025,0.152-0.056,0.227-0.091c0.086-0.04,0.168-0.086,0.248-0.138
		c0.07-0.046,0.137-0.095,0.2-0.149c0.07-0.06,0.134-0.125,0.198-0.195c0.06-0.068,0.115-0.138,0.166-0.214
		c0.023-0.037,0.058-0.064,0.08-0.104c0.017-0.028,0.016-0.062,0.031-0.091c0.03-0.058,0.072-0.108,0.098-0.17l3.631-8.989
		c0.418-1.036-0.082-2.214-1.119-2.633c-1.035-0.415-2.214,0.084-2.633,1.118l-1.865,4.615c-1.244-4.161-1.1-8.437-1.097-8.555
		c0-13.71,11.153-24.864,24.864-24.864c13.709,0,24.863,11.154,24.863,24.864c0,13.709-11.154,24.864-24.863,24.864
		c-1.117,0-2.023,0.906-2.023,2.022c0,1.117,0.906,2.023,2.023,2.023c15.941,0,28.909-12.968,28.909-28.909
		c0-15.941-12.968-28.91-28.909-28.91S6.145,16.273,6.146,32.132c-0.01,0.251-0.156,4.451,1.039,8.972l-3.896-2.271
		c-0.965-0.564-2.204-0.236-2.766,0.729C-0.039,40.527,0.287,41.766,1.253,42.328z"/>
</g>
<g id="comment">
</g>
<g id="map-marker">
</g>
<g id="earth">
</g>
<g id="heart">
</g>
<g id="twitter">
</g>
<g id="bucket">
</g>
<g id="paperclip">
</g>
<g id="undo">
</g>
<g id="redo">
</g>
<g id="chevron-left">
</g>
<g id="chevron-right">
</g>
<g id="cross">
</g>
<g id="search">
</g>
<g id="hamburger">
</g>
</svg>
