<?xml version="1.0" encoding="utf-8"?>
<!-- Generator: Adobe Illustrator 16.0.0, SVG Export Plug-In . SVG Version: 6.00 Build 0)  -->
<!DOCTYPE svg PUBLIC "-//W3C//DTD SVG 1.1//EN" "http://www.w3.org/Graphics/SVG/1.1/DTD/svg11.dtd">
<svg version="1.1" xmlns="http://www.w3.org/2000/svg" xmlns:xlink="http://www.w3.org/1999/xlink" x="0px" y="0px" width="64px"
	 height="64px" viewBox="0 0 64 64" enable-background="new 0 0 64 64" xml:space="preserve">
<g id="eye">
	<g>
		<path fill="#1D1D1B" d="M60.136,3.875c-5.156-5.166-13.545-5.167-18.698,0.001L29.862,15.494c-0.789,0.792-0.789,2.075,0,2.865
			c0.789,0.792,2.067,0.792,2.856,0L44.295,6.741c3.578-3.589,9.401-3.587,12.984,0c3.578,3.592,3.578,9.435,0,13.024L41.987,35.104
			c-0.789,0.791-0.789,2.074,0,2.865c0.395,0.396,0.91,0.594,1.428,0.594c0.517,0,1.033-0.197,1.428-0.594l15.293-15.338
			C65.288,17.461,65.288,9.048,60.136,3.875z"/>
		<path fill="#1D1D1B" d="M31.015,45.904L19.703,57.25c-1.732,1.74-4.038,2.697-6.49,2.697c-2.453,0-4.759-0.957-6.49-2.697
			c-3.578-3.59-3.578-9.432,0-13.023l15.288-15.336c0.789-0.792,0.789-2.074,0-2.865c-0.789-0.792-2.067-0.792-2.856,0L3.866,41.361
			c-5.155,5.171-5.155,13.585,0,18.754C6.363,62.621,9.682,64,13.213,64s6.851-1.379,9.346-3.885L33.87,48.77
			c0.789-0.791,0.789-2.073,0-2.865C33.081,45.113,31.804,45.113,31.015,45.904z"/>
		<path fill="#1D1D1B" d="M61.998,37.824l-7.374-1.15c-1.098-0.17-2.135,0.584-2.309,1.691c-0.169,1.105,0.584,2.142,1.687,2.313
			l7.372,1.151c0.106,0.016,0.212,0.023,0.316,0.023c0.978,0,1.836-0.715,1.992-1.715C63.854,39.032,63.099,37.996,61.998,37.824z"
			/>
		<path fill="#1D1D1B" d="M50.776,46.225c-0.734-0.842-2.008-0.928-2.85-0.194c-0.841,0.736-0.928,2.017-0.193,2.859l3.375,3.878
			c0.398,0.459,0.959,0.693,1.523,0.693c0.471,0,0.943-0.164,1.326-0.5c0.842-0.736,0.928-2.016,0.194-2.859L50.776,46.225z"/>
		<path fill="#1D1D1B" d="M41.28,51.562c-0.261-1.089-1.35-1.751-2.434-1.499c-1.086,0.262-1.757,1.354-1.496,2.443l1.867,7.824
			c0.222,0.93,1.051,1.555,1.965,1.555c0.152,0,0.312-0.018,0.471-0.057c1.085-0.26,1.754-1.354,1.494-2.442L41.28,51.562z"/>
		<path fill="#1D1D1B" d="M25.194,11.705c0.083,0,0.162-0.006,0.245-0.016c1.108-0.134,1.897-1.143,1.764-2.252l-0.89-7.432
			c-0.133-1.111-1.145-1.901-2.247-1.77c-1.107,0.134-1.898,1.143-1.763,2.253l0.891,7.431
			C23.316,10.948,24.188,11.705,25.194,11.705z"/>
		<path fill="#1D1D1B" d="M15.113,16.098c0.398,0.491,0.981,0.744,1.566,0.744c0.451,0,0.902-0.148,1.277-0.457
			c0.864-0.708,0.992-1.985,0.285-2.852L15.225,9.83c-0.71-0.868-1.982-0.996-2.845-0.287c-0.864,0.708-0.989,1.985-0.283,2.852
			L15.113,16.098z"/>
		<path fill="#1D1D1B" d="M3.097,24.125l7.731,2.146c0.18,0.05,0.359,0.073,0.538,0.073c0.888,0,1.7-0.59,1.947-1.486
			c0.298-1.078-0.333-2.194-1.409-2.493l-7.73-2.146c-1.073-0.297-2.188,0.335-2.486,1.414C1.392,22.711,2.021,23.826,3.097,24.125z
			"/>
	</g>
</g>
<g id="comment">
</g>
<g id="map-marker">
</g>
<g id="earth">
</g>
<g id="heart">
</g>
<g id="twitter">
</g>
<g id="bucket">
</g>
<g id="paperclip">
</g>
<g id="undo">
</g>
<g id="redo">
</g>
<g id="chevron-left">
</g>
<g id="chevron-right">
</g>
<g id="cross">
</g>
<g id="search">
</g>
<g id="hamburger">
</g>
</svg>
