<?xml version="1.0" encoding="utf-8"?>
<!-- Generator: Adobe Illustrator 16.0.0, SVG Export Plug-In . SVG Version: 6.00 Build 0)  -->
<!DOCTYPE svg PUBLIC "-//W3C//DTD SVG 1.1//EN" "http://www.w3.org/Graphics/SVG/1.1/DTD/svg11.dtd">
<svg version="1.1" xmlns="http://www.w3.org/2000/svg" xmlns:xlink="http://www.w3.org/1999/xlink" x="0px" y="0px" width="64px"
	 height="64px" viewBox="0 0 64 64" enable-background="new 0 0 64 64" xml:space="preserve">
<g id="eye">
	<path fill="#1D1D1B" d="M31.607,4.195c7.695,0,13.955,6.262,13.955,13.956c0,1.159,0.939,2.098,2.098,2.098
		s2.098-0.938,2.098-2.098C49.758,8.143,41.615,0,31.607,0s-18.15,8.143-18.15,18.151v7.039h-0.154c-3.47,0-6.293,2.823-6.293,6.293
		v25.842c0,3.471,2.823,6.294,6.293,6.294h36.609c3.471,0,6.294-2.823,6.294-6.294V31.483c0-3.47-2.823-6.293-6.294-6.293H17.653
		v-7.039C17.653,10.457,23.913,4.195,31.607,4.195z M52.01,31.483v25.842c0,1.158-0.94,2.099-2.098,2.099H13.303
		c-1.156,0-2.098-0.94-2.098-2.099V31.483c0-1.155,0.941-2.097,2.098-2.097h36.609C51.069,29.387,52.01,30.328,52.01,31.483z"/>
</g>
<g id="comment">
</g>
<g id="map-marker">
</g>
<g id="earth">
</g>
<g id="heart">
</g>
<g id="twitter">
</g>
<g id="bucket">
</g>
<g id="paperclip">
</g>
<g id="undo">
</g>
<g id="redo">
</g>
<g id="chevron-left">
</g>
<g id="chevron-right">
</g>
<g id="cross">
</g>
<g id="search">
</g>
<g id="hamburger">
</g>
</svg>
