<?xml version="1.0" encoding="utf-8"?>
<!-- Generator: Adobe Illustrator 16.0.0, SVG Export Plug-In . SVG Version: 6.00 Build 0)  -->
<!DOCTYPE svg PUBLIC "-//W3C//DTD SVG 1.1//EN" "http://www.w3.org/Graphics/SVG/1.1/DTD/svg11.dtd">
<svg version="1.1" xmlns="http://www.w3.org/2000/svg" xmlns:xlink="http://www.w3.org/1999/xlink" x="0px" y="0px" width="64px"
	 height="64px" viewBox="0 0 64 64" enable-background="new 0 0 64 64" xml:space="preserve">
<g id="eye">
	<g>
		<path fill="#1D1D1B" d="M63.824,41.771c0-1.341-1.086-2.428-2.427-2.428c-1.342,0-2.428,1.087-2.428,2.428v14.07H4.955v-14.07
			c0-1.341-1.085-2.428-2.428-2.428c-1.341,0-2.427,1.087-2.427,2.428v15.486c0,0.179,0.065,0.337,0.103,0.505
			c-0.037,0.168-0.103,0.326-0.103,0.506c0,1.34,1.086,2.427,2.427,2.427h58.87c1.341,0,2.427-1.087,2.427-2.427
			c0-0.18-0.063-0.338-0.103-0.506c0.039-0.168,0.103-0.327,0.103-0.505V41.771z"/>
		<path fill="#1D1D1B" d="M32.114,49.306c1.341,0,2.428-1.087,2.428-2.427V11.415l10.573,10.573
			c0.474,0.474,1.096,0.712,1.717,0.712c0.62,0,1.242-0.238,1.715-0.712c0.95-0.948,0.95-2.484,0-3.432L33.83,3.839
			c-0.947-0.95-2.483-0.95-3.432,0L15.681,18.556c-0.947,0.948-0.947,2.484,0,3.432c0.474,0.474,1.096,0.712,1.717,0.712
			s1.242-0.238,1.716-0.712l10.573-10.573v35.464C29.687,48.219,30.772,49.306,32.114,49.306z"/>
	</g>
</g>
<g id="comment">
</g>
<g id="map-marker">
</g>
<g id="earth">
</g>
<g id="heart">
</g>
<g id="twitter">
</g>
<g id="bucket">
</g>
<g id="paperclip">
</g>
<g id="undo">
</g>
<g id="redo">
</g>
<g id="chevron-left">
</g>
<g id="chevron-right">
</g>
<g id="cross">
</g>
<g id="search">
</g>
<g id="hamburger">
</g>
</svg>
