<?xml version="1.0" encoding="utf-8"?>
<!-- Generator: Adobe Illustrator 16.0.0, SVG Export Plug-In . SVG Version: 6.00 Build 0)  -->
<!DOCTYPE svg PUBLIC "-//W3C//DTD SVG 1.1//EN" "http://www.w3.org/Graphics/SVG/1.1/DTD/svg11.dtd">
<svg version="1.1" xmlns="http://www.w3.org/2000/svg" xmlns:xlink="http://www.w3.org/1999/xlink" x="0px" y="0px" width="64px"
	 height="64px" viewBox="0 0 64 64" enable-background="new 0 0 64 64" xml:space="preserve">
<g id="eye">
	<g>
		<path fill="#1D1D1B" d="M63.835,61.199c-0.767-3.404-6.562-24.54-31.855-24.54c-27.373,0-31.909,24.747-31.952,24.998
			c-0.098,0.582,0.062,1.18,0.444,1.63C0.854,63.739,1.413,64,2.004,64h59.95c0.016,0,0.027,0,0.041,0
			c1.106,0,2.004-0.897,2.004-2.006C63.999,61.712,63.94,61.441,63.835,61.199z M4.575,59.988
			c1.742-5.632,7.978-19.317,27.404-19.317s25.662,13.686,27.404,19.317H4.575z"/>
		<path fill="#1D1D1B" d="M9.144,32.804c0.035,0.002,0.066,0.002,0.102,0.002c3.452,0,7.073-1.724,10.775-5.11
			c3.002,3.191,7.244,5.199,11.957,5.199c4.626,0,8.805-1.93,11.792-5.019c3.641,3.272,7.194,4.93,10.588,4.93
			c0.035,0,0.066,0,0.102-0.002c3.805-0.035,5.914-2.16,6.143-2.401c0.725-0.768,0.73-1.967,0.014-2.74
			c-0.718-0.775-1.913-0.859-2.731-0.195c-0.373,0.303-0.599,0.291-0.803,0.25c-2.501-0.507-6.135-7.292-7.503-9.849
			c-0.331-0.619-0.587-1.097-0.81-1.49c0.911-0.171,1.626-0.925,1.647-1.893c0.023-1.106-0.854-2.025-1.961-2.049
			c-0.199-0.004-0.375-0.021-0.566-0.031C46.084,5.289,39.645,0,31.978,0c-8.639,0-15.727,6.713-16.368,15.2
			c-0.403,0.46-0.799,1.197-1.586,2.668c-1.367,2.557-5.001,9.342-7.503,9.849c-0.201,0.041-0.429,0.053-0.802-0.25
			c-0.819-0.662-2.014-0.578-2.731,0.195c-0.717,0.773-0.711,1.973,0.014,2.74C3.229,30.644,5.339,32.769,9.144,32.804z
			 M47.365,22.172c1.241,2.201,2.534,4.288,3.92,5.944c-1.609-0.669-3.318-1.853-5.08-3.471
			C46.659,23.86,47.044,23.031,47.365,22.172z M44.404,16.448c0,6.855-5.573,12.435-12.427,12.435
			c-5.697,0-10.498-3.863-11.957-9.104c4.97-0.896,10.937-4.979,15.339-8.518c1.46,1.783,4.164,3.936,9.025,4.804
			C44.389,16.193,44.404,16.318,44.404,16.448z M40.169,7.12c1.429,1.258,2.57,2.831,3.304,4.619
			c-2.747-0.784-4.262-2.066-5.054-3.044C39.104,8.094,39.686,7.566,40.169,7.12z M31.978,4.012c1.646,0,3.214,0.329,4.653,0.913
			c-0.409,0.366-0.831,0.738-1.268,1.114c-0.074,0.014-0.148,0-0.225,0.021c-0.631,0.188-1.067,0.672-1.276,1.246
			c-4.663,3.841-10.34,7.68-14.277,8.485C19.931,9.239,25.347,4.012,31.978,4.012z M16.451,21.786
			c0.316,0.92,0.704,1.808,1.172,2.646c-1.84,1.729-3.631,2.987-5.306,3.685C13.781,26.363,15.147,24.131,16.451,21.786z"/>
	</g>
</g>
<g id="comment">
</g>
<g id="map-marker">
</g>
<g id="earth">
</g>
<g id="heart">
</g>
<g id="twitter">
</g>
<g id="bucket">
</g>
<g id="paperclip">
</g>
<g id="undo">
</g>
<g id="redo">
</g>
<g id="chevron-left">
</g>
<g id="chevron-right">
</g>
<g id="cross">
</g>
<g id="search">
</g>
<g id="hamburger">
</g>
</svg>
