<?xml version="1.0" encoding="utf-8"?>
<!-- Generator: Adobe Illustrator 16.0.0, SVG Export Plug-In . SVG Version: 6.00 Build 0)  -->
<!DOCTYPE svg PUBLIC "-//W3C//DTD SVG 1.1//EN" "http://www.w3.org/Graphics/SVG/1.1/DTD/svg11.dtd">
<svg version="1.1" xmlns="http://www.w3.org/2000/svg" xmlns:xlink="http://www.w3.org/1999/xlink" x="0px" y="0px" width="64px"
	 height="64px" viewBox="0 0 64 64" enable-background="new 0 0 64 64" xml:space="preserve">
<g id="eye">
	<g>
		<path fill="#1D1D1B" d="M8.135,22.637c1.153,0,2.087-0.935,2.087-2.087c0-1.153-0.934-2.088-2.087-2.088
			C3.649,18.462,0,21.606,0,25.473v17.792c0,3.866,3.649,7.011,8.135,7.011c1.153,0,2.087-0.935,2.087-2.088
			c0-1.152-0.934-2.087-2.087-2.087c-2.145,0-3.96-1.298-3.96-2.835V25.473C4.175,23.936,5.99,22.637,8.135,22.637z"/>
		<path fill="#1D1D1B" d="M33.401,63.667c0.35,0,0.701-0.087,1.019-0.265c0.661-0.369,1.068-1.066,1.068-1.823V6.26
			c0-0.763-0.415-1.465-1.084-1.831c-0.669-0.366-1.48-0.339-2.128,0.073L11.945,17.507c-0.6,0.383-0.963,1.046-0.963,1.758v29.783
			c0,0.725,0.375,1.397,0.992,1.776l20.332,12.533C32.643,63.563,33.022,63.667,33.401,63.667z M31.313,57.841l-16.156-9.958V20.408
			l16.156-10.335V57.841z"/>
		<path fill="#1D1D1B" d="M56.023,7.177c-1.029,0.515-1.449,1.769-0.937,2.799c0.106,0.212,10.426,21.475-0.052,46.269
			c-0.45,1.061,0.047,2.286,1.109,2.735c0.265,0.112,0.539,0.166,0.811,0.166c0.813,0,1.586-0.479,1.925-1.276
			c11.255-26.627,0.409-48.83-0.058-49.762C58.308,7.079,57.057,6.663,56.023,7.177z"/>
		<path fill="#1D1D1B" d="M49.42,52.457c0.237,0.086,0.479,0.128,0.719,0.128c0.85,0,1.651-0.524,1.961-1.37
			c6.805-18.556,0.236-34.054-0.047-34.706c-0.459-1.057-1.688-1.535-2.742-1.082c-1.058,0.458-1.543,1.686-1.089,2.744
			c0.063,0.145,6.169,14.675-0.044,31.606C47.781,50.86,48.336,52.06,49.42,52.457z"/>
		<path fill="#1D1D1B" d="M43.202,43.213c0.146,0.03,0.29,0.045,0.434,0.045c0.966,0,1.834-0.672,2.042-1.655
			c1.743-8.243,0.053-15.151-0.021-15.441c-0.279-1.117-1.407-1.792-2.528-1.516c-1.117,0.278-1.798,1.41-1.521,2.528
			c0.018,0.062,1.521,6.304-0.015,13.564C41.352,41.866,42.073,42.973,43.202,43.213z"/>
	</g>
</g>
<g id="comment">
</g>
<g id="map-marker">
</g>
<g id="earth">
</g>
<g id="heart">
</g>
<g id="twitter">
</g>
<g id="bucket">
</g>
<g id="paperclip">
</g>
<g id="undo">
</g>
<g id="redo">
</g>
<g id="chevron-left">
</g>
<g id="chevron-right">
</g>
<g id="cross">
</g>
<g id="search">
</g>
<g id="hamburger">
</g>
</svg>
