<?xml version="1.0" encoding="utf-8"?>
<!-- Generator: Adobe Illustrator 16.0.0, SVG Export Plug-In . SVG Version: 6.00 Build 0)  -->
<!DOCTYPE svg PUBLIC "-//W3C//DTD SVG 1.1//EN" "http://www.w3.org/Graphics/SVG/1.1/DTD/svg11.dtd">
<svg version="1.1" xmlns="http://www.w3.org/2000/svg" xmlns:xlink="http://www.w3.org/1999/xlink" x="0px" y="0px" width="64px"
	 height="64px" viewBox="0 0 64 64" enable-background="new 0 0 64 64" xml:space="preserve">
<g id="eye">
	<g>
		<path fill="#1D1D1B" d="M8.156,22.715c1.155,0,2.093-0.938,2.093-2.094s-0.938-2.093-2.093-2.093C3.659,18.528,0,21.681,0,25.558
			v17.841c0,3.877,3.659,7.03,8.156,7.03c1.155,0,2.093-0.937,2.093-2.094c0-1.156-0.938-2.093-2.093-2.093
			c-2.153,0-3.97-1.302-3.97-2.843V25.558C4.187,24.017,6.003,22.715,8.156,22.715z"/>
		<path fill="#1D1D1B" d="M33.492,63.857c0.352,0,0.703-0.088,1.018-0.266c0.663-0.37,1.076-1.069,1.076-1.828V6.292
			c0-0.765-0.417-1.469-1.091-1.836c-0.668-0.367-1.485-0.34-2.132,0.072L11.975,17.57c-0.601,0.385-0.965,1.049-0.965,1.763v29.864
			c0,0.727,0.375,1.402,0.994,1.781l20.389,12.567C32.729,63.753,33.11,63.857,33.492,63.857z M31.399,58.015l-16.203-9.986V20.479
			l16.203-10.364V58.015z"/>
		<path fill="#1D1D1B" d="M43.316,43.347c0.147,0.031,0.295,0.045,0.438,0.045c0.968,0,1.836-0.675,2.044-1.66
			c1.75-8.265,0.058-15.192-0.016-15.482c-0.282-1.12-1.415-1.797-2.536-1.521c-1.122,0.279-1.803,1.415-1.526,2.536
			c0.015,0.062,1.523,6.32-0.019,13.601C41.465,41.997,42.186,43.107,43.316,43.347z"/>
	</g>
</g>
<g id="comment">
</g>
<g id="map-marker">
</g>
<g id="earth">
</g>
<g id="heart">
</g>
<g id="twitter">
</g>
<g id="bucket">
</g>
<g id="paperclip">
</g>
<g id="undo">
</g>
<g id="redo">
</g>
<g id="chevron-left">
</g>
<g id="chevron-right">
</g>
<g id="cross">
</g>
<g id="search">
</g>
<g id="hamburger">
</g>
</svg>
