<?xml version="1.0" encoding="utf-8"?>
<!-- Generator: Adobe Illustrator 16.0.0, SVG Export Plug-In . SVG Version: 6.00 Build 0)  -->
<!DOCTYPE svg PUBLIC "-//W3C//DTD SVG 1.1//EN" "http://www.w3.org/Graphics/SVG/1.1/DTD/svg11.dtd">
<svg version="1.1" xmlns="http://www.w3.org/2000/svg" xmlns:xlink="http://www.w3.org/1999/xlink" x="0px" y="0px" width="64px"
	 height="64px" viewBox="0 0 64 64" enable-background="new 0 0 64 64" xml:space="preserve">
<g id="eye">
	<g>
		<path fill="#1D1D1B" d="M8.146,22.768c1.156,0,2.091-0.936,2.091-2.091s-0.935-2.091-2.091-2.091C3.655,18.586,0,21.735,0,25.607
			v17.818c0,3.872,3.655,7.021,8.146,7.021c1.156,0,2.091-0.936,2.091-2.091s-0.935-2.091-2.091-2.091
			c-2.147,0-3.964-1.3-3.964-2.839V25.607C4.182,24.068,5.998,22.768,8.146,22.768z"/>
		<path fill="#1D1D1B" d="M34.454,4.533c-0.668-0.366-1.484-0.34-2.131,0.073L11.962,17.63c-0.601,0.384-0.963,1.047-0.963,1.76
			v29.826c0,0.726,0.374,1.399,0.993,1.779l20.361,12.551c0.337,0.207,0.717,0.312,1.096,0.312c0.352,0,0.702-0.088,1.021-0.266
			c0.663-0.37,1.07-1.067,1.07-1.825V6.366C35.54,5.603,35.123,4.899,34.454,4.533z M31.358,58.022L15.18,48.049V20.535
			l16.179-10.351V58.022z"/>
		<path fill="#1D1D1B" d="M52.129,16.632c-0.46-1.058-1.691-1.538-2.747-1.084c-1.06,0.459-1.545,1.689-1.09,2.749
			c0.063,0.145,6.178,14.696-0.044,31.651c-0.396,1.083,0.159,2.285,1.244,2.683c0.238,0.087,0.48,0.128,0.719,0.128
			c0.853,0,1.652-0.525,1.964-1.372C58.989,32.805,52.412,17.284,52.129,16.632z"/>
		<path fill="#1D1D1B" d="M43.191,24.779c-1.118,0.278-1.801,1.412-1.522,2.532c0.016,0.062,1.522,6.312-0.016,13.583
			c-0.242,1.13,0.481,2.239,1.613,2.479c0.145,0.03,0.29,0.045,0.433,0.045c0.967,0,1.837-0.674,2.045-1.658
			c1.745-8.254,0.053-15.172-0.021-15.462C45.445,25.178,44.311,24.503,43.191,24.779z"/>
	</g>
</g>
<g id="comment">
</g>
<g id="map-marker">
</g>
<g id="earth">
</g>
<g id="heart">
</g>
<g id="twitter">
</g>
<g id="bucket">
</g>
<g id="paperclip">
</g>
<g id="undo">
</g>
<g id="redo">
</g>
<g id="chevron-left">
</g>
<g id="chevron-right">
</g>
<g id="cross">
</g>
<g id="search">
</g>
<g id="hamburger">
</g>
</svg>
