<?xml version="1.0" encoding="utf-8"?>
<!-- Generator: Adobe Illustrator 16.0.0, SVG Export Plug-In . SVG Version: 6.00 Build 0)  -->
<!DOCTYPE svg PUBLIC "-//W3C//DTD SVG 1.1//EN" "http://www.w3.org/Graphics/SVG/1.1/DTD/svg11.dtd">
<svg version="1.1" xmlns="http://www.w3.org/2000/svg" xmlns:xlink="http://www.w3.org/1999/xlink" x="0px" y="0px" width="64px"
	 height="64px" viewBox="0 0 64 64" enable-background="new 0 0 64 64" xml:space="preserve">
<g id="eye">
	<g>
		<path fill="#1D1D1B" d="M63.719,21.27c-0.389-6.56-6.076-11.978-12.68-12.075l-8.896-0.132c-5.573-0.08-14.687-0.087-20.258-0.002
			l-9.081,0.136C6.191,9.294,0.551,14.722,0.23,21.297l-0.026,0.53c-0.272,5.59-0.272,14.682,0,20.27l0.026,0.54
			c0.32,6.567,5.957,12.015,12.565,12.145l9.101,0.173c2.775,0.053,6.429,0.08,10.086,0.08c3.691,0,7.387-0.027,10.188-0.08
			l8.879-0.173c6.598-0.126,12.281-5.563,12.67-12.118l0.032-0.551c0.332-5.596,0.332-14.703,0-20.301L63.719,21.27z M59.719,41.878
			l-0.032,0.549c-0.264,4.432-4.255,8.25-8.716,8.334l-8.879,0.174c-5.531,0.105-14.582,0.107-20.117,0l-9.101-0.174
			c-4.526-0.088-8.39-3.819-8.608-8.318L4.24,41.903c-0.268-5.48-0.268-14.4,0-19.882l0.025-0.53
			c0.219-4.496,4.077-8.209,8.601-8.275l9.081-0.135c2.734-0.041,6.33-0.062,9.936-0.062c3.694,0,7.397,0.022,10.201,0.063
			l8.895,0.131c4.534,0.066,8.439,3.787,8.708,8.293l0.032,0.542C60.043,27.515,60.043,36.411,59.719,41.878z"/>
		<path fill="#1D1D1B" d="M42.731,29.592l-15.983-8.386c-0.627-0.329-1.38-0.308-1.985,0.058s-0.977,1.017-0.977,1.722v16.77
			c0,0.705,0.371,1.357,0.977,1.723c0.32,0.191,0.682,0.288,1.044,0.288c0.322,0,0.646-0.077,0.941-0.231l15.983-8.386
			c0.663-0.347,1.078-1.032,1.078-1.778S43.395,29.939,42.731,29.592z M27.826,36.425V26.315l9.633,5.055L27.826,36.425z"/>
	</g>
</g>
<g id="comment">
</g>
<g id="map-marker">
</g>
<g id="earth">
</g>
<g id="heart">
</g>
<g id="twitter">
</g>
<g id="bucket">
</g>
<g id="paperclip">
</g>
<g id="undo">
</g>
<g id="redo">
</g>
<g id="chevron-left">
</g>
<g id="chevron-right">
</g>
<g id="cross">
</g>
<g id="search">
</g>
<g id="hamburger">
</g>
</svg>
