<?xml version="1.0" encoding="iso-8859-1"?>
<!-- Generator: Adobe Illustrator 19.0.0, SVG Export Plug-In . SVG Version: 6.00 Build 0)  -->
<svg version="1.1" id="Layer_1" xmlns="http://www.w3.org/2000/svg" xmlns:xlink="http://www.w3.org/1999/xlink" x="0px" y="0px"
	 viewBox="0 0 512 512" style="enable-background:new 0 0 512 512;" xml:space="preserve">
<path style="fill:#5EAC24;" d="M479.05,419.034c-148.7,31.906-297.399-44.97-446.099-13.064
	c-13.941,2.961-25.347-4.861-25.347-18.814c0-87.436,0-174.873,0-262.31c0-13.928,11.406-28.915,25.347-31.879
	c148.7-31.906,297.399,44.97,446.099,13.064c13.941-2.963,25.347,4.861,25.347,18.814c0,87.436,0,174.873,0,262.31
	C504.396,401.084,492.99,416.072,479.05,419.034z"/>
<g>
	<path style="fill:#47821C;" d="M69.45,124.841c0-13.928,11.406-28.915,25.347-31.879c16.619-3.566,33.237-5.765,49.857-6.918
		c-37.234-2.237-74.468-1.069-111.702,6.921c-13.941,2.963-25.347,17.95-25.347,31.879c0,87.436,0,174.873,0,262.31
		c0,13.953,11.406,21.777,25.347,18.814c13.557-2.909,27.115-4.905,40.672-6.17c-2.633-3.239-4.173-7.529-4.173-12.648
		C69.45,299.714,69.45,212.278,69.45,124.841z"/>
	<path style="fill:#47821C;" d="M479.05,353.133C330.35,385.04,181.65,308.163,32.95,340.07
		c-13.941,2.961-25.347-4.861-25.347-18.814c0,21.967,0,43.934,0,65.901c0,13.953,11.406,21.777,25.347,18.814
		c148.7-31.906,297.399,44.97,446.099,13.064c13.941-2.962,25.347-17.95,25.347-31.879c0-21.967,0-43.934,0-65.901
		C504.396,335.183,492.99,350.171,479.05,353.133z"/>
</g>
<path style="fill:#FF3F62;" d="M479.05,106.031c-74.35,15.953-148.7,4.71-223.05-6.532v313.003
	c74.35,11.243,148.7,22.485,223.05,6.532c13.941-2.962,25.347-17.95,25.347-31.879c0-87.436,0-174.873,0-262.31
	C504.396,110.892,492.99,103.068,479.05,106.031z"/>
<path style="fill:#FF0C38;" d="M504.396,387.155c0-21.967,0-43.934,0-65.901c0,13.928-11.406,28.916-25.347,31.879
	c-74.35,15.953-148.7,4.71-223.05-6.532v65.901c74.35,11.243,148.7,22.485,223.05,6.532
	C492.99,416.072,504.396,401.084,504.396,387.155z"/>
<path style="fill:#FFFFFF;" d="M173.205,401.376c55.199,5.565,110.398,16.687,165.597,22.252V110.625
	c-55.199-5.564-110.398-16.687-165.597-22.252L173.205,401.376L173.205,401.376z"/>
<path style="fill:#D1E7F8;" d="M338.802,357.727c-55.199-5.564-110.398-16.687-165.597-22.251v65.901
	c55.199,5.565,110.398,16.687,165.597,22.252V357.727z"/>
<path style="fill:#FFE477;" d="M256.003,313.967c-25.743,0-49.47-14.05-61.924-36.668c-2.026-3.678-0.684-8.302,2.994-10.328
	c3.679-2.028,8.304-0.685,10.328,2.994c9.78,17.762,28.402,28.795,48.601,28.795c19.958,0,38.472-10.839,48.319-28.288
	c2.063-3.657,6.701-4.949,10.36-2.885c3.657,2.064,4.949,6.702,2.885,10.36C305.028,300.165,281.439,313.967,256.003,313.967z"/>
<circle style="fill:#AA6100;" cx="256" cy="243.327" r="37.685"/>
<path d="M286.238,111.686c3.398,0.49,6.796,0.971,10.194,1.442c0.355,0.05,7.556,1.101,8.575-6.488
	c0.559-4.162-2.328-7.999-6.488-8.576c-3.372-0.467-6.743-0.945-10.114-1.431c-4.156-0.599-8.011,2.285-8.611,6.442
	C279.197,107.232,282.082,111.087,286.238,111.686z"/>
<path d="M502.481,103.757c-6.513-5.275-15.631-7.159-25.027-5.161c-56.3,12.08-111.304,7.917-157.682,2.25
	c-4.17-0.506-7.961,2.459-8.47,6.626c-0.509,4.169,2.458,7.961,6.626,8.47c4.35,0.531,8.776,1.049,13.27,1.543v268.797
	c0,4.199,3.405,7.604,7.604,7.604c4.199,0,7.604-3.405,7.604-7.604V119.021c41.03,3.755,87.006,4.58,134.224-5.552
	c4.874-1.036,9.349-0.268,12.28,2.107c2.54,2.056,3.882,5.262,3.882,9.271v262.309c0,10.643-9.21,22.292-19.338,24.444
	c-72.991,15.662-147.888,4.336-220.318-6.615c-25.191-3.809-50.675-7.661-76.328-10.438V96.851
	c24.855,2.73,49.597,6.467,74.058,10.167l8.696,1.313c4.15,0.621,8.026-2.234,8.652-6.386c0.626-4.153-2.234-8.027-6.386-8.652
	l-8.688-1.312C183.358,80.824,107.065,69.287,31.37,85.53C14.365,89.143,0,107.148,0,124.845v262.31
	c0,8.628,3.38,16.117,9.518,21.087c6.514,5.276,15.631,7.157,25.028,5.162c72.992-15.662,147.887-4.336,220.317,6.615
	c47.451,7.175,95.932,14.507,144.632,14.506c27.024,0,54.122-2.259,81.135-8.055C497.634,422.859,512,404.854,512,387.155v-262.31
	C512,116.217,508.62,108.728,502.481,103.757z M31.37,398.532c-4.873,1.036-9.349,0.268-12.281-2.107
	c-2.539-2.056-3.881-5.261-3.881-9.27v-262.31c0-10.643,9.21-22.292,19.337-24.444c43.318-9.295,87.308-9.084,131.055-5.088v297.722
	C121.076,389.039,76.12,388.931,31.37,398.532z"/>
<g>
</g>
<g>
</g>
<g>
</g>
<g>
</g>
<g>
</g>
<g>
</g>
<g>
</g>
<g>
</g>
<g>
</g>
<g>
</g>
<g>
</g>
<g>
</g>
<g>
</g>
<g>
</g>
<g>
</g>
</svg>
