<?xml version="1.0" encoding="iso-8859-1"?>
<!-- Generator: Adobe Illustrator 19.0.0, SVG Export Plug-In . SVG Version: 6.00 Build 0)  -->
<svg version="1.1" id="Layer_1" xmlns="http://www.w3.org/2000/svg" xmlns:xlink="http://www.w3.org/1999/xlink" x="0px" y="0px"
	 viewBox="0 0 512.002 512.002" style="enable-background:new 0 0 512.002 512.002;" xml:space="preserve">
<g>
	<g>
		<g>
			<path d="M449.761,169.391H265.577v-26.327c0-16.017-13.031-29.049-29.049-29.049H89.821c-9.226,0-16.733-7.506-16.733-16.733
				c0-9.227,7.508-16.732,16.733-16.732h305.898c16.017,0,29.049-13.031,29.049-29.049s-13.031-29.049-29.049-29.049H225.083
				c-7.506,0-13.612-6.106-13.612-13.612V0h-15.437v8.843c0,16.017,13.031,29.049,29.049,29.049H395.72
				c7.506,0,13.612,6.106,13.612,13.612s-6.106,13.611-13.612,13.611H89.821c-17.738,0-32.17,14.431-32.17,32.17
				s14.431,32.17,32.17,32.17h146.707c7.506,0,13.612,6.106,13.612,13.612v26.327H62.24c-13.729,0-24.897,11.169-24.897,24.897
				v292.815c0,13.728,11.169,24.897,24.897,24.897h387.522c13.729,0,24.897-11.169,24.897-24.897V194.288
				C474.659,180.56,463.49,169.391,449.761,169.391z M52.779,194.288c0-5.217,4.244-9.46,9.461-9.46h186.042v55.492h15.437v-55.492
				h186.042c5.216,0,9.46,4.244,9.46,9.46v56.972H52.779V194.288z M459.223,487.104c-0.001,5.215-4.245,9.459-9.462,9.459H62.24
				c-5.216,0-9.46-4.244-9.46-9.46V266.698h406.443V487.104z"/>
			<rect x="406.606" y="223.098" width="38.008" height="15.437"/>
			<rect x="67.389" y="223.098" width="38.008" height="15.437"/>
			<polygon points="424.768,443.516 409.331,443.516 409.331,463.82 389.028,463.82 389.028,479.257 424.768,479.257 			"/>
			<polygon points="102.67,304.361 122.973,304.361 122.973,288.923 87.233,288.923 87.233,324.665 102.67,324.665 			"/>
			<polygon points="122.973,463.82 102.67,463.82 102.67,443.516 87.233,443.516 87.233,479.257 122.973,479.257 			"/>
			<polygon points="409.331,324.665 424.768,324.665 424.768,288.923 389.028,288.923 389.028,304.361 409.331,304.361 			"/>
			<path d="M296.364,467.895l22.139,22.139c3.158,3.158,7.228,5.076,11.616,5.506c0.627,0.062,1.261,0.093,1.899,0.093
				s1.272-0.031,1.899-0.093c2.716-0.267,5.301-1.12,7.632-2.468c1.436-0.83,2.781-1.835,3.984-3.038l19.033-19.033
				c7.451-7.452,7.451-19.576,0-27.029L201.049,280.458l-55.866-9.804l9.805,55.866L296.364,467.895z M353.647,454.889
				c0.537,0.537,0.874,1.201,1.008,1.897c0.224,1.159-0.112,2.406-1.008,3.302l-19.033,19.033c-0.117,0.117-0.237,0.221-0.357,0.315
				c-0.016,0.012-0.032,0.021-0.048,0.033c-0.225,0.169-0.455,0.304-0.678,0.404c-0.479,0.216-0.933,0.293-1.278,0.316
				c-0.084,0.005-0.165,0.007-0.236,0.007c-0.071,0-0.15-0.002-0.237-0.008c-0.345-0.023-0.799-0.101-1.278-0.316
				c-0.223-0.101-0.453-0.235-0.678-0.404c-0.016-0.012-0.032-0.021-0.048-0.033c-0.12-0.094-0.24-0.198-0.357-0.315l-11.224-11.224
				l24.23-24.229L353.647,454.889z M331.51,432.75l-24.23,24.229L173.085,322.785l24.23-24.23L331.51,432.75z M181.362,292.677
				l-14.156,14.156l-3.013-17.169L181.362,292.677z"/>
			
				<rect x="192.141" y="345.669" transform="matrix(0.7071 0.7071 -0.7071 0.7071 318.7574 -62.7744)" width="86.025" height="15.437"/>
		</g>
	</g>
</g>
<g>
</g>
<g>
</g>
<g>
</g>
<g>
</g>
<g>
</g>
<g>
</g>
<g>
</g>
<g>
</g>
<g>
</g>
<g>
</g>
<g>
</g>
<g>
</g>
<g>
</g>
<g>
</g>
<g>
</g>
</svg>
