<?xml version="1.0" encoding="iso-8859-1"?>
<!-- Generator: Adobe Illustrator 19.0.0, SVG Export Plug-In . SVG Version: 6.00 Build 0)  -->
<svg version="1.1" id="Layer_1" xmlns="http://www.w3.org/2000/svg" xmlns:xlink="http://www.w3.org/1999/xlink" x="0px" y="0px"
	 viewBox="0 0 512.001 512.001" style="enable-background:new 0 0 512.001 512.001;" xml:space="preserve">
<g>
	<g>
		<g>
			<rect x="411.387" y="312.801" width="32.444" height="15.208"/>
			<rect x="348.527" y="312.801" width="32.444" height="15.208"/>
			<rect x="474.248" y="312.801" width="20.049" height="15.208"/>
			<rect x="149.239" y="312.801" width="32.444" height="15.208"/>
			<rect x="23.518" y="312.801" width="32.444" height="15.208"/>
			<rect x="86.379" y="312.801" width="32.444" height="15.208"/>
			
				<rect x="441.758" y="107.636" transform="matrix(0.7071 0.7071 -0.7071 0.7071 240.8212 -272.5122)" width="15.208" height="93.61"/>
			<polygon points="275.743,133.861 202.774,206.83 213.529,217.584 275.743,155.369 316.064,195.692 326.818,184.936 			"/>
			<polygon points="17.699,277.894 29.341,287.68 80.843,226.412 132.514,287.002 144.087,277.135 80.76,202.877 			"/>
			<path d="M293.268,299.692c30.719-8.41,58.439-26.545,78.562-51.522c21.73-26.97,33.697-60.933,33.697-95.634
				C405.527,68.427,337.1,0,252.991,0S100.455,68.427,100.455,152.535c0,34.702,11.968,68.665,33.697,95.634
				c20.124,24.978,47.843,43.112,78.562,51.522v13.105l0.001-0.357v41.799H202.38v157.762h101.224V354.239h-10.336v-26.233h24.84
				v-15.208h-24.84V299.692z M288.396,496.792h-70.808V369.447h70.808V496.792z M283.956,286.357l-5.897,1.359v66.521h-50.135
				v-66.52l-5.897-1.359c-62.625-14.427-106.363-69.459-106.363-133.823c-0.001-75.722,61.604-137.328,137.327-137.328
				c75.723,0,137.328,61.605,137.328,137.327C390.319,216.899,346.58,271.93,283.956,286.357z"/>
			<path d="M252.991,47.875c-58.437,0-105.979,47.543-105.979,105.979c0,58.438,47.543,105.98,105.979,105.98
				c58.437,0,105.98-47.542,105.98-105.98C358.971,95.417,311.428,47.875,252.991,47.875z M252.991,244.625
				c-50.051,0-90.77-40.72-90.77-90.771s40.719-90.77,90.77-90.77s90.771,40.719,90.771,90.77
				C343.763,203.905,303.042,244.625,252.991,244.625z"/>
			<path d="M307.835,151.122h15.208c0-37.119-30.199-67.318-67.319-67.318v15.208C284.457,99.011,307.835,122.388,307.835,151.122z"
				/>
			<rect x="258.779" y="382.607" width="15.208" height="26.503"/>
			<rect x="258.779" y="420.323" width="15.208" height="53.837"/>
			<rect x="336.685" y="377.669" width="41.447" height="15.208"/>
			<rect x="388.849" y="377.669" width="105.443" height="15.208"/>
			<rect x="426.869" y="444.747" width="67.423" height="15.208"/>
			<rect x="320.25" y="412.719" width="174.052" height="15.208"/>
		</g>
	</g>
</g>
<g>
</g>
<g>
</g>
<g>
</g>
<g>
</g>
<g>
</g>
<g>
</g>
<g>
</g>
<g>
</g>
<g>
</g>
<g>
</g>
<g>
</g>
<g>
</g>
<g>
</g>
<g>
</g>
<g>
</g>
</svg>
