<?xml version="1.0" encoding="iso-8859-1"?>
<!-- Generator: Adobe Illustrator 19.0.0, SVG Export Plug-In . SVG Version: 6.00 Build 0)  -->
<svg version="1.1" id="Layer_1" xmlns="http://www.w3.org/2000/svg" xmlns:xlink="http://www.w3.org/1999/xlink" x="0px" y="0px"
	 viewBox="0 0 512 512" style="enable-background:new 0 0 512 512;" xml:space="preserve">
<g>
	<g>
		<g>
			<path d="M448.518,208.066l31.726-28.629L281.403,0L82.561,179.436l31.726,28.629l-31.726,28.629l31.726,28.629l-31.726,28.629
				L281.403,473.39l198.841-179.435l-31.725-28.63l31.725-28.629L448.518,208.066z M457.321,179.436l-175.919,158.75l-11.979-10.81
				l175.919-158.75L457.321,179.436z M433.881,158.283L257.962,317.034l-8.504-7.673L425.377,150.61L433.881,158.283z
				 M413.917,140.267L237.998,299.018l-8.503-7.673l175.919-158.751L413.917,140.267z M393.953,122.252L218.034,281.002
				l-8.504-7.673l175.919-158.751L393.953,122.252z M373.988,104.236L198.07,262.987l-8.503-7.673L365.486,96.563L373.988,104.236z
				 M354.025,86.221l-175.919,158.75l-8.504-7.673l175.92-158.75L354.025,86.221z M334.061,68.206l-175.919,158.75l-8.503-7.673
				l175.918-158.75L334.061,68.206z M314.097,50.19L138.179,208.94l-8.504-7.673l175.92-158.75L314.097,50.19z M105.484,179.435
				l175.919-158.75l12.731,11.489l-175.919,158.75L105.484,179.435z M457.321,293.954L281.403,452.705l-175.92-158.751
				l20.265-18.287L281.403,416.13l155.655-140.463L457.321,293.954z M281.403,395.445l-175.92-158.75l20.265-18.287l155.655,140.463
				l155.655-140.463l20.264,18.287L281.403,395.445z"/>
			<polygon points="31.756,18.022 43.018,18.022 43.018,455.365 31.756,455.365 31.756,470.722 69.636,470.722 69.636,455.365 
				58.374,455.365 58.374,18.022 69.636,18.022 69.636,2.665 31.756,2.665 			"/>
			<polygon points="461.104,485.381 101.041,485.381 101.041,474.12 85.684,474.12 85.684,512 101.041,512 101.041,500.738 
				461.104,500.738 461.104,512 476.461,512 476.461,474.12 461.104,474.12 			"/>
		</g>
	</g>
</g>
<g>
</g>
<g>
</g>
<g>
</g>
<g>
</g>
<g>
</g>
<g>
</g>
<g>
</g>
<g>
</g>
<g>
</g>
<g>
</g>
<g>
</g>
<g>
</g>
<g>
</g>
<g>
</g>
<g>
</g>
</svg>
