<?xml version="1.0" encoding="iso-8859-1"?>
<!-- Generator: Adobe Illustrator 18.1.1, SVG Export Plug-In . SVG Version: 6.00 Build 0)  -->
<svg version="1.1" id="Capa_1" xmlns="http://www.w3.org/2000/svg" xmlns:xlink="http://www.w3.org/1999/xlink" x="0px" y="0px"
	 viewBox="0 0 229.396 229.396" style="enable-background:new 0 0 229.396 229.396;" xml:space="preserve">
<g>
	<g>
		<g>
			<g>
				<path style="fill:#fff;" d="M58.69,196.322c-6.444,0-12.495-2.506-17.047-7.065c-4.553-4.553-7.059-10.603-7.059-17.041
					c0-6.438,2.506-12.495,7.059-17.041c4.553-4.559,10.603-7.065,17.047-7.065c6.438,0,12.495,2.506,17.041,7.065
					c4.553,4.559,7.059,10.603,7.059,17.041c0,6.438-2.506,12.495-7.059,17.041C71.179,193.816,65.128,196.322,58.69,196.322z
					 M58.69,160.043c-3.252,0-6.313,1.265-8.61,3.568c-2.297,2.297-3.562,5.352-3.562,8.604c0,3.252,1.265,6.313,3.562,8.604
					c4.594,4.6,12.614,4.6,17.214,0c2.297-2.297,3.562-5.352,3.562-8.604c0-3.252-1.265-6.307-3.562-8.604
					S61.942,160.043,58.69,160.043z"/>
			</g>
		</g>
		<g>
			<path style="fill:#fff;" d="M111.837,176.19H99.903c0-12.071-4.702-23.42-13.235-31.953
				c-8.539-8.539-19.888-13.24-31.953-13.24v-11.934c15.257,0,29.602,5.943,40.396,16.737
				C105.9,146.582,111.843,160.932,111.837,176.19z"/>
		</g>
		<g>
			<path style="fill:#fff;" d="M151.332,176.446h-11.934c0-23.498-9.147-45.581-25.759-62.193S74.938,88.495,51.446,88.495
				V76.561c26.684,0,51.763,10.388,70.63,29.256C140.949,124.684,151.338,149.768,151.332,176.446z"/>
		</g>
		<g>
			<path style="fill:#fff;" d="M182.879,176.446c-0.006-72.468-58.965-131.432-131.432-131.432V33.08
				c79.049,0,143.36,64.317,143.366,143.366H182.879z"/>
		</g>
	</g>
	<g>
		<path style="fill:#fff;" d="M229.396,229.396H0V0h229.396V229.396z M11.934,217.463h205.529V11.934H11.934V217.463z"/>
	</g>
</g>
<g>
</g>
<g>
</g>
<g>
</g>
<g>
</g>
<g>
</g>
<g>
</g>
<g>
</g>
<g>
</g>
<g>
</g>
<g>
</g>
<g>
</g>
<g>
</g>
<g>
</g>
<g>
</g>
<g>
</g>
</svg>
